SplineFontDB: 3.2
FontName: FurnaceIcons
FullName: Furnace Icons
FamilyName: Furnace Icons
Weight: Regular
Copyright: 

StartChar: uniE100
Encoding: 57600 57600 1
Width: 1792
VWidth: 1687
Flags: W
HStem: 171.516 95.9375<754.864 980.648 1382.09 1612.77> 449.875 95.0781<141.391 377.778 1516.16 1654.36> 768.625 95.9375<141.391 377.778 780.433 998.844 1381.56 1608.87>
VStem: 32.9531 108.438<183 449.875 544.953 758.078> 401.547 114.297<567.194 735.759> 648.969 107.5<611.387 747.68> 1008.97 107.5<294.565 441.758> 1203.19 116.172<330.958 704.848> 1663.97 95.0781<183 284.797 316.503 446.984>
DStem2: 863.031 584.25 844.75 481.594 0.978916 -0.204262<-84.378 149.631>
LayerCount: 2
Fore
SplineSet
32.953125 183 m 1
 32.953125 406.359375 32.953125 629.71875 32.953125 853.078125 c 1
 128.942382812 853.078125 224.932617188 853.078125 320.921875 853.078125 c 1
 383.03125 853.078125 431 834.875 464.90625 798.390625 c 0
 498.890625 761.90625 515.84375 712.921875 515.84375 651.515625 c 256
 515.84375 590.03125 498.890625 541.046875 464.90625 504.5625 c 0
 431 468.15625 383.03125 449.875 320.921875 449.875 c 1
 261.078125 449.875 201.234375 449.875 141.390625 449.875 c 1
 141.390625 360.916992188 141.390625 271.958007812 141.390625 183 c 1
 105.245117188 183 69.0986328125 183 32.953125 183 c 1
141.390625 544.953125 m 1
 198.995117188 544.953125 256.598632812 544.953125 314.203125 544.953125 c 1
 341.703125 544.953125 363.1875 552.140625 378.5 566.515625 c 0
 393.890625 580.890625 401.546875 601.59375 401.546875 628.46875 c 1
 401.546875 643.807617188 401.546875 659.145507812 401.546875 674.484375 c 1
 401.546875 701.4375 393.890625 722.0625 378.5 736.4375 c 0
 363.1875 750.8125 341.703125 758.078125 314.203125 758.078125 c 1
 256.598632812 758.078125 198.995117188 758.078125 141.390625 758.078125 c 1
 141.390625 687.036132812 141.390625 615.995117188 141.390625 544.953125 c 1
873.578125 171.515625 m 0
 817.25 171.515625 769.4375 181.75 730.0625 202.21875 c 0
 690.6875 222.6875 656.9375 250.1875 628.8125 284.796875 c 1
 653.760742188 308.15625 678.708007812 331.515625 703.65625 354.875 c 1
 727.328125 326.046875 753.421875 304.25 781.859375 289.5625 c 0
 810.375 274.875 842.875 267.453125 879.359375 267.453125 c 0
 922.25 267.453125 954.515625 277.0625 976.3125 296.28125 c 0
 998.03125 315.5 1008.96875 341.4375 1008.96875 374.015625 c 0
 1008.96875 400.265625 1001.234375 421.046875 985.921875 436.4375 c 0
 970.53125 451.828125 943.34375 463.3125 904.28125 470.96875 c 1
 884.4375 474.510742188 864.59375 478.051757812 844.75 481.59375 c 1
 779.515625 493.703125 730.53125 515.1875 697.875 545.890625 c 0
 665.21875 576.59375 648.96875 618.859375 648.96875 672.609375 c 0
 648.96875 702.0625 654.515625 728.78125 665.765625 752.765625 c 0
 676.9375 776.75 692.640625 796.90625 712.796875 813.234375 c 0
 732.953125 829.5625 757.40625 842.21875 786.234375 851.125 c 0
 814.984375 860.109375 847.328125 864.5625 883.1875 864.5625 c 0
 933.734375 864.5625 977.5625 855.8125 1014.671875 838.234375 c 0
 1051.78125 820.578125 1083.5 795.1875 1109.75 761.90625 c 1
 1084.46386719 739.510742188 1059.17675781 717.114257812 1033.890625 694.71875 c 1
 1016.625 717.0625 995.53125 735.03125 970.53125 748.46875 c 0
 945.609375 761.90625 914.515625 768.625 877.40625 768.625 c 0
 839.046875 768.625 809.28125 760.890625 788.109375 745.578125 c 0
 767.015625 730.1875 756.46875 707.765625 756.46875 678.390625 c 0
 756.46875 650.1875 765.0625 629.25 782.40625 615.5 c 0
 799.671875 601.75 826.546875 591.28125 863.03125 584.25 c 1
 882.875 580.109375 902.71875 575.96875 922.5625 571.828125 c 1
 989.75 559.015625 1038.890625 537.21875 1069.90625 506.515625 c 0
 1100.921875 475.8125 1116.46875 433.546875 1116.46875 379.796875 c 0
 1116.46875 348.46875 1111 319.953125 1100.140625 294.328125 c 0
 1089.28125 268.78125 1073.421875 246.828125 1052.640625 228.625 c 0
 1031.78125 210.34375 1006.390625 196.28125 976.3125 186.359375 c 0
 946.234375 176.4375 911.9375 171.515625 873.578125 171.515625 c 0
1663.96875 284.796875 m 1
 1662.69238281 284.796875 1661.41699219 284.796875 1660.140625 284.796875 c 1
 1653.109375 252.140625 1634.046875 225.109375 1603.03125 203.625 c 0
 1571.9375 182.21875 1530.84375 171.515625 1479.671875 171.515625 c 0
 1439.984375 171.515625 1403.1875 179.015625 1369.28125 194.015625 c 0
 1335.296875 209.09375 1306.078125 231.125 1281.390625 260.265625 c 0
 1256.78125 289.40625 1237.5625 325.578125 1223.8125 368.78125 c 0
 1210.0625 411.984375 1203.1875 461.75 1203.1875 518.078125 c 0
 1203.1875 573.703125 1210.21875 623.15625 1224.28125 666.359375 c 0
 1238.34375 709.5625 1258.1875 745.890625 1283.8125 775.34375 c 0
 1309.4375 804.796875 1340.140625 826.984375 1376 842.0625 c 0
 1411.78125 857.0625 1451.78125 864.5625 1496 864.5625 c 0
 1556.15625 864.5625 1607.015625 851.28125 1648.578125 824.796875 c 0
 1690.21875 798.234375 1722.5625 761.203125 1745.609375 713.859375 c 1
 1716.15625 696.59375 1686.703125 679.328125 1657.25 662.0625 c 1
 1644.4375 693.390625 1624.59375 718.859375 1597.71875 738.390625 c 0
 1570.84375 757.84375 1536.9375 767.609375 1496 767.609375 c 0
 1442.875 767.609375 1400.140625 750.65625 1367.796875 716.75 c 0
 1335.53125 682.84375 1319.359375 634.875 1319.359375 572.765625 c 1
 1319.359375 536.28125 1319.359375 499.796875 1319.359375 463.3125 c 1
 1319.359375 401.203125 1335.53125 353.234375 1367.796875 319.328125 c 0
 1400.140625 285.421875 1442.875 268.46875 1496 268.46875 c 0
 1517.09375 268.46875 1537.25 271.125 1556.46875 276.59375 c 0
 1575.6875 282.0625 1592.484375 290.03125 1606.859375 300.578125 c 0
 1621.234375 311.125 1632.796875 324.25 1641.390625 339.953125 c 0
 1650.0625 355.65625 1654.359375 374.015625 1654.359375 395.1875 c 1
 1654.359375 412.453125 1654.359375 429.71875 1654.359375 446.984375 c 1
 1608.29199219 446.984375 1562.22363281 446.984375 1516.15625 446.984375 c 1
 1516.15625 478.026367188 1516.15625 509.067382812 1516.15625 540.109375 c 1
 1597.12011719 540.109375 1678.08300781 540.109375 1759.046875 540.109375 c 1
 1759.046875 421.073242188 1759.046875 302.036132812 1759.046875 183 c 1
 1727.35449219 183 1695.66113281 183 1663.96875 183 c 1
 1663.96875 216.932617188 1663.96875 250.864257812 1663.96875 284.796875 c 1
EndSplineSet
EndChar

StartChar: uniE101
Encoding: 57601 57601 2
Width: 1792
VWidth: 1687
Flags: W
HStem: 171.516 90.2344<203.228 410.876> 453.703 90.2344<815.531 1024.71> 762.844 90.2344<194.777 419.326 815.531 1024.71>
VStem: 46.8594 109.453<309.775 726.303> 457.719 109.453<309.775 726.303> 713.734 101.797<183 453.703 543.938 762.844> 1043.97 108.516<563.279 743.506> 1273.73 117.109<777.653 853.078> 1273.73 97.9688<183 708.051> 1627.02 118.125<183 258.425> 1647.17 97.9688<328.027 853.078>
DStem2: 1590.53 450.812 1376.47 710.031 0.377481 -0.926017<-320.846 135.117>
LayerCount: 2
Fore
SplineSet
307.015625 171.515625 m 256xfe
 266.703125 171.515625 230.53125 178.078125 198.578125 191.125 c 0
 166.546875 204.25 139.203125 224.953125 116.46875 253.078125 c 0
 93.734375 281.203125 76.46875 317.21875 64.59375 361.046875 c 0
 52.796875 404.953125 46.859375 457.21875 46.859375 518.078125 c 256
 46.859375 578.859375 52.796875 631.125 64.59375 675.03125 c 0
 76.46875 718.859375 93.734375 754.875 116.46875 783 c 0
 139.203125 811.125 166.546875 831.828125 198.578125 844.953125 c 0
 230.53125 858.078125 266.703125 864.5625 307.015625 864.5625 c 256
 347.328125 864.5625 383.5 858.078125 415.53125 844.953125 c 0
 447.484375 831.828125 474.90625 811.125 497.5625 783 c 0
 520.296875 754.875 537.5625 718.859375 549.4375 675.03125 c 0
 561.234375 631.125 567.171875 578.859375 567.171875 518.078125 c 256
 567.171875 457.21875 561.234375 404.953125 549.4375 361.046875 c 0
 537.5625 317.21875 520.296875 281.203125 497.5625 253.078125 c 0
 474.90625 224.953125 447.484375 204.25 415.53125 191.125 c 0
 383.5 178.078125 347.328125 171.515625 307.015625 171.515625 c 256xfe
307.015625 261.75 m 256
 355.0625 261.75 392.171875 277.21875 418.421875 308.3125 c 0
 444.59375 339.328125 457.71875 382.375 457.71875 437.375 c 1
 457.71875 491.151367188 457.71875 544.926757812 457.71875 598.703125 c 1
 457.71875 653.703125 444.59375 696.75 418.421875 727.765625 c 0
 392.171875 758.859375 355.0625 774.328125 307.015625 774.328125 c 256
 259.046875 774.328125 221.9375 758.859375 195.6875 727.765625 c 0
 169.4375 696.75 156.3125 653.703125 156.3125 598.703125 c 1
 156.3125 544.926757812 156.3125 491.151367188 156.3125 437.375 c 1
 156.3125 382.375 169.4375 339.328125 195.6875 308.3125 c 0
 221.9375 277.21875 259.046875 261.75 307.015625 261.75 c 256
713.734375 183 m 1
 713.734375 406.359375 713.734375 629.71875 713.734375 853.078125 c 1
 802.067382812 853.078125 890.401367188 853.078125 978.734375 853.078125 c 1
 1036.3125 853.078125 1079.671875 835.96875 1108.8125 801.75 c 0
 1137.875 767.453125 1152.484375 718.078125 1152.484375 653.390625 c 256
 1152.484375 588.78125 1137.875 539.328125 1108.8125 505.109375 c 0
 1079.671875 470.8125 1036.3125 453.703125 978.734375 453.703125 c 1
 924.333007812 453.703125 869.932617188 453.703125 815.53125 453.703125 c 1
 815.53125 363.46875 815.53125 273.234375 815.53125 183 c 1
 781.598632812 183 747.666992188 183 713.734375 183 c 1
815.53125 543.9375 m 1
 867.041992188 543.9375 918.551757812 543.9375 970.0625 543.9375 c 1
 994.359375 543.9375 1012.796875 550.1875 1025.296875 562.6875 c 0
 1037.71875 575.1875 1043.96875 595.1875 1043.96875 622.6875 c 1
 1043.96875 643.15625 1043.96875 663.625 1043.96875 684.09375 c 1
 1043.96875 711.671875 1037.71875 731.671875 1025.296875 744.09375 c 0
 1012.796875 756.59375 994.359375 762.84375 970.0625 762.84375 c 1
 918.551757812 762.84375 867.041992188 762.84375 815.53125 762.84375 c 1
 815.53125 689.875 815.53125 616.90625 815.53125 543.9375 c 1
1427.328125 585.265625 m 1
 1410.375 626.854492188 1393.421875 668.442382812 1376.46875 710.03125 c 1
 1372.30175781 710.03125 1368.13574219 710.03125 1363.96875 710.03125 c 1
 1366.546875 667.791992188 1369.125 625.551757812 1371.703125 583.3125 c 1
 1371.703125 449.875 1371.703125 316.4375 1371.703125 183 c 1
 1339.046875 183 1306.390625 183 1273.734375 183 c 1xfec0
 1273.734375 406.359375 1273.734375 629.71875 1273.734375 853.078125 c 1
 1312.77050781 853.078125 1351.80761719 853.078125 1390.84375 853.078125 c 1
 1457.40625 718.989257812 1523.96875 584.901367188 1590.53125 450.8125 c 1
 1607.82324219 409.223632812 1625.11425781 367.635742188 1642.40625 326.046875 c 1
 1646.57324219 326.046875 1650.73925781 326.046875 1654.90625 326.046875 c 1
 1652.328125 368.286132812 1649.75 410.526367188 1647.171875 452.765625 c 1
 1647.171875 586.203125 1647.171875 719.640625 1647.171875 853.078125 c 1
 1679.828125 853.078125 1712.484375 853.078125 1745.140625 853.078125 c 1xff20
 1745.140625 629.71875 1745.140625 406.359375 1745.140625 183 c 1
 1705.765625 183 1666.390625 183 1627.015625 183 c 1xfe40
 1560.453125 317.088867188 1493.890625 451.176757812 1427.328125 585.265625 c 1
EndSplineSet
EndChar

StartChar: uniE102
Encoding: 57602 57602 3
Width: 1792
VWidth: 1687
Flags: W
HStem: 84.8447 121.191<399.409 663.663> 99.2002 116.406<1138.19 1452.86> 429.181 116.406<556.547 729.398> 470.001 112.793<1138.19 1425.21> 820.392 116.406<1138.19 1425.21> 829.962 121.191<400.057 661.626>
VStem: 165.336 145.312<297.614 737.606> 741.312 118.945<99.2002 226.446 277.934 429.181> 1002.64 135.547<215.606 470.001 582.794 820.392> 1453.81 142.773<609.386 793.799> 1483.7 142.969<244.11 441.498>
LayerCount: 2
Fore
SplineSet
741.3125 226.446289062 m 1x6380
 739.75 226.446289062 738.1875 226.446289062 736.625 226.446289062 c 1
 727.8359375 185.625976562 704.0078125 151.836914062 665.140625 124.981445312 c 0
 626.2734375 98.2236328125 574.90625 84.8447265625 511.0390625 84.8447265625 c 0
 461.4296875 84.8447265625 415.3359375 94.2197265625 372.953125 112.969726562 c 0
 330.5703125 131.817382812 294.046875 159.356445312 263.1875 195.782226562 c 0
 232.328125 232.208007812 208.3046875 277.422851562 191.1171875 331.426757812 c 0
 173.9296875 385.430664062 165.3359375 447.637695312 165.3359375 518.047851562 c 0
 165.3359375 587.579101562 174.125 649.395507812 191.703125 703.399414062 c 0
 209.28125 757.403320312 234.0859375 802.813476562 266.1171875 839.629882812 c 0
 298.1484375 876.446289062 336.625 904.180664062 381.3515625 923.028320312 c 0
 426.078125 941.778320312 476.078125 951.153320312 531.3515625 951.153320312 c 0
 606.546875 951.153320312 670.21875 934.551757812 722.171875 901.446289062 c 0
 774.125 868.243164062 814.5546875 821.954101562 843.4609375 762.774414062 c 1
 806.612304688 741.192382812 769.762695312 719.610351562 732.9140625 698.028320312 c 1
 716.8984375 737.188476562 692.09375 769.024414062 658.5 793.438476562 c 0
 624.90625 817.754882812 582.5234375 829.961914062 531.3515625 829.961914062 c 0
 464.9453125 829.961914062 411.625 808.770507812 371.1953125 766.387695312 c 0
 330.765625 724.004882812 310.6484375 664.043945312 310.6484375 586.407226562 c 1
 310.6484375 540.801757812 310.6484375 495.196289062 310.6484375 449.590820312 c 1
 310.6484375 371.954101562 330.765625 311.993164062 371.1953125 269.610351562 c 0
 411.625 227.227539062 464.9453125 206.036132812 531.3515625 206.036132812 c 0x8780
 557.71875 206.036132812 582.9140625 209.356445312 606.9375 216.192382812 c 0
 630.9609375 223.028320312 652.0546875 232.989257812 670.0234375 246.172851562 c 0
 687.9921875 259.356445312 702.4453125 275.762695312 713.1875 295.391601562 c 0
 723.9296875 315.020507812 729.3984375 337.969726562 729.3984375 364.434570312 c 1
 729.3984375 386.016601562 729.3984375 407.598632812 729.3984375 429.180664062 c 1
 671.78125 429.180664062 614.1640625 429.180664062 556.546875 429.180664062 c 1
 556.546875 467.982421875 556.546875 506.784179688 556.546875 545.586914062 c 1
 657.784179688 545.586914062 759.020507812 545.586914062 860.2578125 545.586914062 c 1
 860.2578125 396.791015625 860.2578125 247.995117188 860.2578125 99.2001953125 c 1
 820.609375 99.2001953125 780.9609375 99.2001953125 741.3125 99.2001953125 c 1
 741.3125 141.615234375 741.3125 184.030273438 741.3125 226.446289062 c 1x6380
1002.640625 936.797851562 m 1x4ba0
 1126.20800781 936.797851562 1249.77636719 936.797851562 1373.34375 936.797851562 c 1
 1442.875 936.797851562 1497.5625 917.168945312 1537.2109375 878.008789062 c 0
 1576.859375 838.848632812 1596.5859375 786.407226562 1596.5859375 720.782226562 c 0x4bc0
 1596.5859375 689.629882812 1592.09375 662.969726562 1583.3046875 640.997070312 c 0
 1574.515625 619.024414062 1563.3828125 600.958007812 1549.7109375 586.993164062 c 0
 1536.234375 573.028320312 1520.609375 562.579101562 1503.03125 555.840820312 c 0
 1485.453125 549.004882812 1468.265625 544.805664062 1451.2734375 543.243164062 c 1
 1451.2734375 540.833984375 1451.2734375 538.424804688 1451.2734375 536.016601562 c 1
 1468.265625 535.235351562 1486.8203125 531.231445312 1507.1328125 524.004882812 c 0
 1527.640625 516.778320312 1546.5859375 505.352539062 1564.1640625 489.825195312 c 0
 1581.7421875 474.200195312 1596.5859375 454.180664062 1608.5 429.766601562 c 0
 1620.609375 405.352539062 1626.6640625 375.567382812 1626.6640625 340.411132812 c 0
 1626.6640625 306.817382812 1621.1953125 275.176757812 1610.453125 245.586914062 c 0
 1599.515625 215.997070312 1584.4765625 190.411132812 1565.3359375 168.829101562 c 0
 1546.1953125 147.247070312 1523.34375 130.157226562 1496.9765625 117.754882812 c 0
 1470.609375 105.352539062 1441.703125 99.2001953125 1410.6484375 99.2001953125 c 1
 1274.64550781 99.2001953125 1138.64355469 99.2001953125 1002.640625 99.2001953125 c 1
 1002.640625 378.399414062 1002.640625 657.598632812 1002.640625 936.797851562 c 1x4ba0
1138.1875 215.606445312 m 1
 1215.79199219 215.606445312 1293.39550781 215.606445312 1371 215.606445312 c 1
 1406.15625 215.606445312 1433.6953125 224.786132812 1453.8125 243.243164062 c 0x53c0
 1473.734375 261.602539062 1483.6953125 287.969726562 1483.6953125 322.442382812 c 1
 1483.6953125 336.016601562 1483.6953125 349.590820312 1483.6953125 363.165039062 c 1x53a0
 1483.6953125 397.637695312 1473.734375 424.004882812 1453.8125 442.364257812 c 0
 1433.6953125 460.821289062 1406.15625 470.000976562 1371 470.000976562 c 1
 1293.39550781 470.000976562 1215.79199219 470.000976562 1138.1875 470.000976562 c 1x53c0
 1138.1875 385.202148438 1138.1875 300.404296875 1138.1875 215.606445312 c 1
1138.1875 582.793945312 m 1
 1208.17480469 582.793945312 1278.16113281 582.793945312 1348.1484375 582.793945312 c 1
 1381.7421875 582.793945312 1407.71875 591.387695312 1426.078125 608.575195312 c 0
 1444.6328125 625.762695312 1453.8125 650.372070312 1453.8125 682.403320312 c 1
 1453.8125 695.196289062 1453.8125 707.989257812 1453.8125 720.782226562 c 1
 1453.8125 752.813476562 1444.6328125 777.422851562 1426.078125 794.610351562 c 0
 1407.71875 811.797851562 1381.7421875 820.391601562 1348.1484375 820.391601562 c 1
 1278.16113281 820.391601562 1208.17480469 820.391601562 1138.1875 820.391601562 c 1x1bc0
 1138.1875 741.192382812 1138.1875 661.993164062 1138.1875 582.793945312 c 1
EndSplineSet
EndChar

StartChar: uniE103
Encoding: 57603 57603 4
Width: 1792
VWidth: 1687
Flags: W
HStem: 171.516 96.9531<226.177 441.873 832.752 1027.57> 313.547 85.4688<1326.08 1544.91 1647.64 1738.89> 519.016 87.3438<857.168 1024.42> 754.172 98.9062<1514.99 1544.91> 767.609 96.9531<226.122 440.941>
VStem: 53.1094 115.156<330.807 708.111> 694.047 112.344<291.954 486.784> 1054.05 111.406<291.954 486.784> 1544.91 102.734<183 313.547 399.016 754.172>
DStem2: 1233.89 406.672 1326.08 399.016 0.512745 0.858541<40.6955 454.37>
LayerCount: 2
Fore
SplineSet
334.359375 171.515625 m 0xef80
 246.703125 171.515625 177.875 201.046875 127.953125 260.265625 c 0
 78.03125 319.484375 53.109375 405.421875 53.109375 518.078125 c 0
 53.109375 574.328125 59.515625 623.9375 72.328125 666.828125 c 0
 85.0625 709.71875 103.65625 745.890625 127.953125 775.34375 c 0
 152.328125 804.796875 181.859375 826.984375 216.78125 842.0625 c 0
 251.625 857.0625 290.84375 864.5625 334.359375 864.5625 c 0
 392.640625 864.5625 441.390625 851.828125 480.765625 826.203125 c 0
 520.140625 800.578125 551 762.84375 573.421875 712.921875 c 1
 543.03125 696.28125 512.640625 679.640625 482.25 663 c 1
 470.6875 695.03125 452.953125 720.421875 428.96875 739.328125 c 0
 404.90625 758.234375 373.421875 767.609375 334.359375 767.609375 c 0
 282.5625 767.609375 241.859375 750.03125 212.484375 714.875 c 0
 183.03125 679.640625 168.265625 630.96875 168.265625 568.9375 c 1
 168.265625 535.004882812 168.265625 501.073242188 168.265625 467.140625 c 1
 168.265625 405.109375 183.03125 356.4375 212.484375 321.203125 c 0
 241.859375 286.046875 282.5625 268.46875 334.359375 268.46875 c 0
 374.671875 268.46875 407.484375 278.859375 432.796875 299.640625 c 0
 458.03125 320.421875 476.78125 347.140625 488.96875 379.796875 c 1
 518.083007812 362.192382812 547.198242188 344.588867188 576.3125 326.984375 c 1
 553.890625 278.390625 522.5625 240.265625 482.25 212.765625 c 0
 441.859375 185.265625 392.640625 171.515625 334.359375 171.515625 c 0xef80
930.21875 171.515625 m 0
 893.109375 171.515625 859.984375 177.53125 830.84375 189.71875 c 0
 801.703125 201.90625 777.09375 219.328125 756.9375 242.0625 c 0
 736.78125 264.796875 721.234375 292.140625 710.375 324.09375 c 0
 699.515625 356.125 694.046875 392.296875 694.046875 432.609375 c 0
 694.046875 481.203125 701.390625 526.984375 716.15625 569.875 c 0
 730.84375 612.765625 749.75 652.140625 772.796875 687.921875 c 0
 795.84375 723.78125 821.546875 755.65625 850.0625 783.46875 c 0
 878.5 811.28125 906.546875 834.484375 934.046875 853.078125 c 1
 982.041992188 853.078125 1030.03613281 853.078125 1078.03125 853.078125 c 1xf780
 1040.296875 825.578125 1006.390625 799.015625 976.3125 773.390625 c 0
 946.234375 747.765625 919.984375 721.59375 897.5625 694.71875 c 0
 875.140625 667.765625 856.46875 639.328125 841.390625 609.25 c 0
 826.390625 579.171875 814.671875 546.203125 806.390625 510.34375 c 1
 808.629882812 509.71875 810.870117188 509.09375 813.109375 508.46875 c 1
 820.140625 521.90625 828.265625 534.484375 837.5625 546.359375 c 0
 846.859375 558.234375 857.71875 568.625 870.21875 577.53125 c 0
 882.71875 586.515625 896.9375 593.546875 912.953125 598.703125 c 0
 928.96875 603.78125 947.484375 606.359375 968.578125 606.359375 c 0
 996.78125 606.359375 1022.875 601.59375 1046.859375 591.984375 c 0
 1070.84375 582.375 1091.625 568.46875 1109.28125 550.1875 c 0
 1126.859375 531.984375 1140.609375 510.03125 1150.53125 484.40625 c 0
 1160.453125 458.859375 1165.453125 430.34375 1165.453125 399.015625 c 0
 1165.453125 365.109375 1159.828125 334.171875 1148.578125 306.359375 c 0
 1137.40625 278.546875 1121.546875 254.71875 1101.078125 234.875 c 0
 1080.609375 215.03125 1055.84375 199.484375 1026.703125 188.3125 c 0
 997.5625 177.0625 965.453125 171.515625 930.21875 171.515625 c 0
930.21875 259.796875 m 256
 969.28125 259.796875 999.671875 270.1875 1021.390625 290.96875 c 0
 1043.1875 311.828125 1054.046875 342.375 1054.046875 382.6875 c 1
 1054.046875 387.166992188 1054.046875 391.645507812 1054.046875 396.125 c 1
 1054.046875 436.4375 1043.1875 466.984375 1021.390625 487.765625 c 0
 999.671875 508.625 969.28125 519.015625 930.21875 519.015625 c 256
 891.15625 519.015625 860.765625 508.625 839.046875 487.765625 c 0
 817.25 466.984375 806.390625 436.4375 806.390625 396.125 c 1
 806.390625 391.645507812 806.390625 387.166992188 806.390625 382.6875 c 1
 806.390625 342.375 817.25 311.828125 839.046875 290.96875 c 0
 860.765625 270.1875 891.15625 259.796875 930.21875 259.796875 c 256
1544.90625 183 m 1
 1544.90625 226.515625 1544.90625 270.03125 1544.90625 313.546875 c 1
 1441.234375 313.546875 1337.5625 313.546875 1233.890625 313.546875 c 1
 1233.890625 344.588867188 1233.890625 375.629882812 1233.890625 406.671875 c 1
 1324.46386719 555.473632812 1415.03613281 704.276367188 1505.609375 853.078125 c 1
 1552.953125 853.078125 1600.296875 853.078125 1647.640625 853.078125 c 1
 1647.640625 701.723632812 1647.640625 550.370117188 1647.640625 399.015625 c 1
 1678.05761719 399.015625 1708.47363281 399.015625 1738.890625 399.015625 c 1
 1738.890625 370.526367188 1738.890625 342.036132812 1738.890625 313.546875 c 1
 1708.47363281 313.546875 1678.05761719 313.546875 1647.640625 313.546875 c 1
 1647.640625 270.03125 1647.640625 226.515625 1647.640625 183 c 1
 1613.39550781 183 1579.15136719 183 1544.90625 183 c 1
1326.078125 399.015625 m 1
 1399.02050781 399.015625 1471.96386719 399.015625 1544.90625 399.015625 c 1
 1544.90625 517.401367188 1544.90625 635.786132812 1544.90625 754.171875 c 1
 1542.66699219 754.171875 1540.42675781 754.171875 1538.1875 754.171875 c 1
 1467.484375 635.786132812 1396.78125 517.401367188 1326.078125 399.015625 c 1
EndSplineSet
EndChar

StartChar: uniE104
Encoding: 57604 57604 5
Width: 1792
Flags: W
HStem: -247.516 89.2969<837.797 1081.62 1317.8 1604.83> 23.1875 90.2344<277.797 486.972> 49.125 88.2812<1317.8 1576.94> 333.266 89.2969<277.797 486.972 1317.8 1604.83> 607.016 89.2188<189.574 399.743> 803.812 83.5156<721.625 898.188> 1143.66 144.922<1249.91 1277.31 1597.41 1625.22> 1196.39 92.1875<794.01 822.99> 1210.84 89.2188<218.757 416.322>
VStem: 95.6875 101.719<1044.03 1191.27> 176 101.797<-247.516 23.1875 113.422 332.328> 420.219 101.719<716.929 880.209> 506.234 108.516<132.763 312.99> 544.906 99.8438<618.5 718.344> 736 101.797<-158.219 422.562> 974.125 102.656<618.5 721.156> 1158.66 97.9688<618.5 1141.9> 1216 101.797<-158.219 49.125 137.406 333.266> 1618.5 97.9688<618.5 1143.75>
DStem2: 289.594 1016.94 271.312 920.922 0.978371 -0.206857<-75.1218 135.909> 544.906 618.5 644.75 618.5 0.286825 0.957983<28.6377 221.043 308.22 625.862> 875.219 1288.58 835.844 1098.5 0.288055 -0.957614<72.4214 390.859 477.766 670.167> 1278.66 1288.58 1261.47 1143.66 0.416776 -0.909009<124.572 396.023> 1442.88 921.859 1613.81 1145.53 0.379583 0.925158<0 271.817>
LayerCount: 2
Fore
SplineSet
176 -247.515625 m 1xdc2b20
 176 -24.15625 176 199.203125 176 422.5625 c 1
 264.333007812 422.5625 352.666992188 422.5625 441 422.5625 c 1
 498.578125 422.5625 541.9375 405.453125 571.078125 371.234375 c 0
 600.140625 336.9375 614.75 287.5625 614.75 222.875 c 256
 614.75 158.265625 600.140625 108.8125 571.078125 74.59375 c 0
 541.9375 40.296875 498.578125 23.1875 441 23.1875 c 1
 386.598632812 23.1875 332.198242188 23.1875 277.796875 23.1875 c 1
 277.796875 -67.046875 277.796875 -157.28125 277.796875 -247.515625 c 1
 243.864257812 -247.515625 209.932617188 -247.515625 176 -247.515625 c 1xdc2b20
277.796875 113.421875 m 1
 329.307617188 113.421875 380.817382812 113.421875 432.328125 113.421875 c 1
 456.625 113.421875 475.0625 119.671875 487.5625 132.171875 c 0
 499.984375 144.671875 506.234375 164.671875 506.234375 192.171875 c 1
 506.234375 212.640625 506.234375 233.109375 506.234375 253.578125 c 1
 506.234375 281.15625 499.984375 301.15625 487.5625 313.578125 c 0
 475.0625 326.078125 456.625 332.328125 432.328125 332.328125 c 1
 380.817382812 332.328125 329.307617188 332.328125 277.796875 332.328125 c 1
 277.796875 259.359375 277.796875 186.390625 277.796875 113.421875 c 1
736 -247.515625 m 1
 736 -24.15625 736 199.203125 736 422.5625 c 1
 769.932617188 422.5625 803.864257812 422.5625 837.796875 422.5625 c 1
 837.796875 228.96875 837.796875 35.375 837.796875 -158.21875 c 1
 919.073242188 -158.21875 1000.34863281 -158.21875 1081.625 -158.21875 c 1
 1081.625 -187.984375 1081.625 -217.75 1081.625 -247.515625 c 1
 966.416992188 -247.515625 851.208007812 -247.515625 736 -247.515625 c 1
1216 -247.515625 m 1xbc0360
 1216 -24.15625 1216 199.203125 1216 422.5625 c 1
 1345.609375 422.5625 1475.21875 422.5625 1604.828125 422.5625 c 1
 1604.828125 392.796875 1604.828125 363.03125 1604.828125 333.265625 c 1
 1509.15136719 333.265625 1413.47363281 333.265625 1317.796875 333.265625 c 1
 1317.796875 267.979492188 1317.796875 202.692382812 1317.796875 137.40625 c 1
 1404.17675781 137.40625 1490.55761719 137.40625 1576.9375 137.40625 c 1
 1576.9375 107.979492188 1576.9375 78.5517578125 1576.9375 49.125 c 1
 1490.55761719 49.125 1404.17675781 49.125 1317.796875 49.125 c 1
 1317.796875 -19.9892578125 1317.796875 -89.1044921875 1317.796875 -158.21875 c 1
 1413.47363281 -158.21875 1509.15136719 -158.21875 1604.828125 -158.21875 c 1
 1604.828125 -187.984375 1604.828125 -217.75 1604.828125 -247.515625 c 1
 1475.21875 -247.515625 1345.609375 -247.515625 1216 -247.515625 c 1xbc0360
300.21875 607.015625 m 0
 250.21875 607.015625 206.9375 616.390625 170.0625 635.296875 c 0
 133.34375 654.203125 101.78125 681.546875 75.53125 717.40625 c 1
 98.8642578125 738.838867188 122.198242188 760.270507812 145.53125 781.703125 c 1
 165.375 754.203125 188.1875 733.03125 213.8125 718.34375 c 0
 239.28125 703.65625 268.5 696.234375 301.15625 696.234375 c 0
 380.53125 696.234375 420.21875 732.71875 420.21875 805.6875 c 0
 420.21875 835.140625 413.03125 857.71875 398.96875 873.34375 c 0
 384.90625 889.046875 360.6875 901.078125 326 909.359375 c 1
 307.770507812 913.213867188 289.541992188 917.067382812 271.3125 920.921875 c 1
 211.15625 934.359375 166.9375 955.921875 138.34375 985.6875 c 0
 109.90625 1015.453125 95.6875 1057.25 95.6875 1111 c 0
 95.6875 1173.03125 114.4375 1220.0625 151.78125 1252.09375 c 0
 189.28125 1284.125 241.625 1300.0625 308.8125 1300.0625 c 0
 356.78125 1300.0625 397.25 1291.9375 430.21875 1275.609375 c 0
 463.1875 1259.28125 491.78125 1233.890625 516.15625 1199.28125 c 1
 492.770507812 1178.8125 469.385742188 1158.34375 446 1137.875 c 1
 428.8125 1162.171875 409.4375 1180.453125 388.03125 1192.5625 c 0
 366.625 1204.75 339.4375 1210.84375 306.9375 1210.84375 c 0
 270.375 1210.84375 243.03125 1203.265625 224.75 1188.265625 c 0
 206.625 1173.1875 197.40625 1148.421875 197.40625 1113.890625 c 0
 197.40625 1085.6875 204.59375 1064.4375 218.96875 1049.984375 c 0
 233.5 1035.609375 256.9375 1024.59375 289.59375 1016.9375 c 1
 307.823242188 1012.77050781 326.051757812 1008.60449219 344.28125 1004.4375 c 1
 376.3125 997.40625 403.5 988.578125 425.84375 978.03125 c 0
 448.34375 967.484375 466.78125 954.515625 481.15625 939.125 c 0
 495.53125 923.8125 505.84375 905.6875 512.25 884.90625 c 0
 518.65625 864.125 521.9375 839.90625 521.9375 812.40625 c 0x9cd320
 521.9375 745.21875 502.5625 694.203125 463.8125 659.28125 c 0
 425.0625 624.4375 370.53125 607.015625 300.21875 607.015625 c 0
974.125 618.5 m 1
 956.833007812 680.270507812 939.541992188 742.041992188 922.25 803.8125 c 1
 847.041992188 803.8125 771.833007812 803.8125 696.625 803.8125 c 1
 679.333007812 742.041992188 662.041992188 680.270507812 644.75 618.5 c 1
 611.46875 618.5 578.1875 618.5 544.90625 618.5 c 1
 611.78125 841.859375 678.65625 1065.21875 745.53125 1288.578125 c 1
 788.760742188 1288.578125 831.989257812 1288.578125 875.21875 1288.578125 c 1x9d0720
 942.40625 1065.21875 1009.59375 841.859375 1076.78125 618.5 c 1
 1042.5625 618.5 1008.34375 618.5 974.125 618.5 c 1
835.84375 1098.5 m 1
 828.8125 1131.12988281 821.78125 1163.76074219 814.75 1196.390625 c 1
 810.583007812 1196.390625 806.416992188 1196.390625 802.25 1196.390625 c 1
 795.21875 1163.76074219 788.1875 1131.12988281 781.15625 1098.5 c 1
 761.3125 1028.109375 741.46875 957.71875 721.625 887.328125 c 1
 780.479492188 887.328125 839.333007812 887.328125 898.1875 887.328125 c 1
 877.40625 957.71875 856.625 1028.109375 835.84375 1098.5 c 1
1618.5 1031.3125 m 1
 1620.73925781 1069.38574219 1622.97949219 1107.45800781 1625.21875 1145.53125 c 1
 1621.41699219 1145.53125 1617.61425781 1145.53125 1613.8125 1145.53125 c 1
 1598.44824219 1108.08300781 1583.08300781 1070.63574219 1567.71875 1033.1875 c 1
 1524.17675781 942.328125 1480.63574219 851.46875 1437.09375 760.609375 c 1
 1393.91699219 851.46875 1350.73925781 942.328125 1307.5625 1033.1875 c 1
 1292.19824219 1070.01074219 1276.83300781 1106.83300781 1261.46875 1143.65625 c 1
 1257.61425781 1143.65625 1253.76074219 1143.65625 1249.90625 1143.65625 c 1x9e03a0
 1252.14550781 1106.20800781 1254.38574219 1068.76074219 1256.625 1031.3125 c 1
 1256.625 893.708007812 1256.625 756.104492188 1256.625 618.5 c 1
 1223.96875 618.5 1191.3125 618.5 1158.65625 618.5 c 1
 1158.65625 841.859375 1158.65625 1065.21875 1158.65625 1288.578125 c 1
 1198.65625 1288.578125 1238.65625 1288.578125 1278.65625 1288.578125 c 1x9d03a0
 1314.85449219 1210.50488281 1351.05175781 1132.43261719 1387.25 1054.359375 c 1
 1402.92675781 1010.19238281 1418.60449219 966.026367188 1434.28125 921.859375 c 1
 1437.14550781 921.859375 1440.01074219 921.859375 1442.875 921.859375 c 1
 1458.55175781 966.026367188 1474.22949219 1010.19238281 1489.90625 1054.359375 c 1
 1525.73925781 1132.43261719 1561.57324219 1210.50488281 1597.40625 1288.578125 c 1x9e03a0
 1637.09375 1288.578125 1676.78125 1288.578125 1716.46875 1288.578125 c 1
 1716.46875 1065.21875 1716.46875 841.859375 1716.46875 618.5 c 1
 1683.8125 618.5 1651.15625 618.5 1618.5 618.5 c 1
 1618.5 756.104492188 1618.5 893.708007812 1618.5 1031.3125 c 1
EndSplineSet
EndChar

StartChar: uniE105
Encoding: 57605 57605 6
Width: 1792
VWidth: 1687
Flags: W
HStem: 183 96.0156<814.669 1050.52 1429.91 1750.53> 449.875 95.0781<149.906 386.215> 474.875 95.9375<1429.91 1720.84> 757.062 96.0156<149.906 386.215 813.763 1048.56 1429.91 1750.53>
VStem: 41.4688 108.438<183 449.875 544.953 758.078> 410.062 114.219<567.194 735.759> 651.625 115.156<330.807 708.111> 1321.47 108.438<279.016 474.875 570.812 757.062>
LayerCount: 2
Fore
SplineSet
41.46875 183 m 1xdf
 41.46875 406.359375 41.46875 629.71875 41.46875 853.078125 c 1
 137.458007812 853.078125 233.448242188 853.078125 329.4375 853.078125 c 1
 391.46875 853.078125 439.4375 834.875 473.34375 798.390625 c 0
 507.40625 761.90625 524.28125 712.921875 524.28125 651.515625 c 256
 524.28125 590.03125 507.40625 541.046875 473.34375 504.5625 c 0
 439.4375 468.15625 391.46875 449.875 329.4375 449.875 c 1
 269.59375 449.875 209.75 449.875 149.90625 449.875 c 1
 149.90625 360.916992188 149.90625 271.958007812 149.90625 183 c 1
 113.760742188 183 77.6142578125 183 41.46875 183 c 1xdf
149.90625 544.953125 m 1
 207.510742188 544.953125 265.114257812 544.953125 322.71875 544.953125 c 1
 350.21875 544.953125 371.625 552.140625 386.9375 566.515625 c 0
 402.40625 580.890625 410.0625 601.59375 410.0625 628.46875 c 1
 410.0625 643.807617188 410.0625 659.145507812 410.0625 674.484375 c 1
 410.0625 701.4375 402.40625 722.0625 386.9375 736.4375 c 0
 371.625 750.8125 350.21875 758.078125 322.71875 758.078125 c 1
 265.114257812 758.078125 207.510742188 758.078125 149.90625 758.078125 c 1
 149.90625 687.036132812 149.90625 615.995117188 149.90625 544.953125 c 1
932.875 171.515625 m 0
 845.21875 171.515625 776.46875 201.046875 726.46875 260.265625 c 0
 676.625 319.484375 651.625 405.421875 651.625 518.078125 c 0
 651.625 574.328125 658.03125 623.9375 670.84375 666.828125 c 0
 683.65625 709.71875 702.25 745.890625 726.46875 775.34375 c 0
 750.84375 804.796875 780.375 826.984375 815.375 842.0625 c 0
 850.21875 857.0625 889.4375 864.5625 932.875 864.5625 c 0
 991.15625 864.5625 1039.90625 851.828125 1079.28125 826.203125 c 0
 1118.65625 800.578125 1149.59375 762.84375 1171.9375 712.921875 c 1
 1141.57324219 696.28125 1111.20800781 679.640625 1080.84375 663 c 1
 1069.28125 695.03125 1051.46875 720.421875 1027.5625 739.328125 c 0
 1003.5 758.234375 971.9375 767.609375 932.875 767.609375 c 0
 881.15625 767.609375 840.375 750.03125 811 714.875 c 0
 781.625 679.640625 766.78125 630.96875 766.78125 568.9375 c 1
 766.78125 535.004882812 766.78125 501.073242188 766.78125 467.140625 c 1
 766.78125 405.109375 781.625 356.4375 811 321.203125 c 0
 840.375 286.046875 881.15625 268.46875 932.875 268.46875 c 0
 973.1875 268.46875 1006 278.859375 1031.3125 299.640625 c 0
 1056.625 320.421875 1075.375 347.140625 1087.5625 379.796875 c 1
 1116.67675781 362.192382812 1145.79199219 344.588867188 1174.90625 326.984375 c 1
 1152.40625 278.390625 1121.15625 240.265625 1080.84375 212.765625 c 0
 1040.375 185.265625 991.15625 171.515625 932.875 171.515625 c 0
1321.46875 183 m 1
 1321.46875 406.359375 1321.46875 629.71875 1321.46875 853.078125 c 1
 1464.48925781 853.078125 1607.51074219 853.078125 1750.53125 853.078125 c 1
 1750.53125 821.073242188 1750.53125 789.067382812 1750.53125 757.0625 c 1
 1643.65625 757.0625 1536.78125 757.0625 1429.90625 757.0625 c 1
 1429.90625 694.979492188 1429.90625 632.895507812 1429.90625 570.8125 c 1
 1526.88574219 570.8125 1623.86425781 570.8125 1720.84375 570.8125 c 1
 1720.84375 538.833007812 1720.84375 506.854492188 1720.84375 474.875 c 1
 1623.86425781 474.875 1526.88574219 474.875 1429.90625 474.875 c 1xbf
 1429.90625 409.588867188 1429.90625 344.301757812 1429.90625 279.015625 c 1
 1536.78125 279.015625 1643.65625 279.015625 1750.53125 279.015625 c 1
 1750.53125 247.010742188 1750.53125 215.004882812 1750.53125 183 c 1
 1607.51074219 183 1464.48925781 183 1321.46875 183 c 1
EndSplineSet
EndChar

StartChar: uniE106
Encoding: 57606 57606 7
Width: 1792
VWidth: 1687
Flags: W
HStem: 325.958 116.406<389.164 636.43> 811.993 124.805<499.082 527.573>
VStem: 145.609 137.891<99.2002 237.091> 745.609 141.602<99.2002 240.802> 1220.41 135.547<99.2002 492.633>
DStem2: 145.609 99.2002 283.5 99.2002 0.303392 0.952866<41.8349 280.126 400.882 789.887> 601.664 936.798 516.312 811.993 0.306233 -0.951957<92.6712 481.326 602.427 841.437> 1087.21 936.798 932.328 936.798 0.479431 -0.877579<0 425.309> 1294.83 563.556 1355.96 431.622 0.477305 0.878738<0 424.748>
LayerCount: 2
Fore
SplineSet
745.609375 99.2001953125 m 1
 720.4140625 174.786132812 695.21875 250.372070312 670.0234375 325.958007812 c 1
 565.596679688 325.958007812 461.168945312 325.958007812 356.7421875 325.958007812 c 1
 332.328125 250.372070312 307.9140625 174.786132812 283.5 99.2001953125 c 1
 237.536132812 99.2001953125 191.573242188 99.2001953125 145.609375 99.2001953125 c 1
 240.791992188 378.399414062 335.973632812 657.598632812 431.15625 936.797851562 c 1
 487.9921875 936.797851562 544.828125 936.797851562 601.6640625 936.797851562 c 1
 696.846679688 657.598632812 792.028320312 378.399414062 887.2109375 99.2001953125 c 1
 840.010742188 99.2001953125 792.809570312 99.2001953125 745.609375 99.2001953125 c 1
516.3125 811.993164062 m 1
 514.359375 811.993164062 512.40625 811.993164062 510.453125 811.993164062 c 1
 470.0234375 688.783203125 429.59375 565.573242188 389.1640625 442.364257812 c 1
 471.5859375 442.364257812 554.0078125 442.364257812 636.4296875 442.364257812 c 1
 596.390625 565.573242188 556.3515625 688.783203125 516.3125 811.993164062 c 1
1220.4140625 99.2001953125 m 1
 1220.4140625 209.193359375 1220.4140625 319.186523438 1220.4140625 429.180664062 c 1
 1124.38574219 598.385742188 1028.35644531 767.591796875 932.328125 936.797851562 c 1
 983.956054688 936.797851562 1035.58300781 936.797851562 1087.2109375 936.797851562 c 1
 1155.1796875 812.383789062 1223.1484375 687.969726562 1291.1171875 563.555664062 c 1
 1292.35449219 563.555664062 1293.59082031 563.555664062 1294.828125 563.555664062 c 1
 1362.40625 687.969726562 1429.984375 812.383789062 1497.5625 936.797851562 c 1
 1547.171875 936.797851562 1596.78125 936.797851562 1646.390625 936.797851562 c 1
 1549.58105469 768.405273438 1452.77050781 600.013671875 1355.9609375 431.622070312 c 1
 1355.9609375 320.814453125 1355.9609375 210.006835938 1355.9609375 99.2001953125 c 1
 1310.77832031 99.2001953125 1265.59667969 99.2001953125 1220.4140625 99.2001953125 c 1
EndSplineSet
EndChar

StartChar: uniE107
Encoding: 57607 57607 8
Width: 1792
VWidth: 1687
Flags: W
HStem: -253.33 91.1719<486.344 688.342 1095.48 1270.78> 60.5762 92.1094<518.508 677.882> 348.545 91.1719<497.902 685.553 1095.48 1270.78> 612.686 87.3438<530.171 727.317> 870.889 87.3438<1092.63 1259.92> 930.42 83.5156<544.742 712.82> 1218.39 87.3438<537.628 719.903 1093.28 1280.94>
VStem: 388.742 113.281<728.719 901.73> 408.898 105.625<1038.68 1193.65> 708.586 114.219<179.923 323.321> 722.023 112.344<-131.94 32.8528> 743.039 105.547<1038.68 1193.65> 755.461 113.281<728.719 901.73> 940.305 115.156<-121.3 307.598 991.115 1184.56> 1310.85 115.156<-122.103 308.491 990.464 1185.29>
LayerCount: 2
Fore
SplineSet
586.6328125 152.685546875 m 1xf226
 628.2734375 152.685546875 658.9765625 161.513671875 678.8203125 179.091796875 c 0
 698.6640625 196.748046875 708.5859375 219.248046875 708.5859375 246.826171875 c 1
 708.5859375 249.065429688 708.5859375 251.305664062 708.5859375 253.544921875 c 1
 708.5859375 284.248046875 698.9765625 307.763671875 679.7578125 324.091796875 c 0
 660.6171875 340.419921875 634.6796875 348.544921875 602.0234375 348.544921875 c 0
 569.9921875 348.544921875 542.8046875 341.357421875 520.4609375 326.982421875 c 0
 498.0390625 312.529296875 479.1328125 292.529296875 463.8203125 266.982421875 c 1
 439.809570312 287.763671875 415.799804688 308.544921875 391.7890625 329.326171875 c 1
 402.0234375 344.091796875 413.5859375 358.154296875 426.3203125 371.591796875 c 0
 439.1328125 385.029296875 454.2109375 396.748046875 471.4765625 406.669921875 c 0
 488.7421875 416.591796875 508.2734375 424.560546875 529.9921875 430.654296875 c 0
 551.7890625 436.748046875 576.7109375 439.716796875 604.9140625 439.716796875 c 0
 636.2421875 439.716796875 665.3828125 435.888671875 692.2578125 428.232421875 c 0
 719.1328125 420.576171875 742.1796875 409.169921875 761.3984375 394.169921875 c 0
 780.6171875 379.091796875 795.6171875 360.888671875 806.4765625 339.404296875 c 0
 817.4140625 317.998046875 822.8046875 293.857421875 822.8046875 266.982421875 c 0xf246
 822.8046875 245.810546875 819.4453125 226.669921875 812.7265625 209.326171875 c 0
 806.0078125 192.060546875 796.7109375 176.904296875 784.9140625 163.779296875 c 0
 773.0390625 150.654296875 759.2890625 139.951171875 743.6640625 131.591796875 c 0
 727.9609375 123.310546875 711.4765625 117.216796875 694.2109375 113.388671875 c 1
 694.2109375 111.774414062 694.2109375 110.159179688 694.2109375 108.544921875 c 1
 713.3515625 104.716796875 731.4765625 98.466796875 748.4296875 89.873046875 c 0
 765.3828125 81.201171875 780.3046875 70.029296875 793.0390625 56.201171875 c 0
 805.8515625 42.451171875 815.9296875 26.123046875 823.2734375 7.294921875 c 0
 830.6953125 -11.611328125 834.3671875 -33.173828125 834.3671875 -57.548828125 c 0
 834.3671875 -87.001953125 828.5859375 -113.720703125 817.1015625 -137.705078125 c 0
 805.5390625 -161.689453125 789.3671875 -182.314453125 768.5859375 -199.580078125 c 0
 747.8046875 -216.923828125 722.6484375 -230.126953125 693.1953125 -239.423828125 c 0
 663.8203125 -248.720703125 631.1640625 -253.330078125 595.3046875 -253.330078125 c 0
 563.9765625 -253.330078125 536.3984375 -249.970703125 512.7265625 -243.251953125 c 0
 489.0546875 -236.533203125 468.1171875 -227.626953125 449.8359375 -216.376953125 c 0
 431.6328125 -205.205078125 415.6171875 -192.392578125 401.8671875 -178.017578125 c 0
 388.1171875 -163.642578125 376.0859375 -148.720703125 365.8515625 -133.330078125 c 1
 392.4140625 -112.548828125 418.9765625 -91.767578125 445.5390625 -70.986328125 c 1
 453.8984375 -84.423828125 462.6484375 -96.689453125 471.9453125 -107.939453125 c 0
 481.2421875 -119.111328125 491.7890625 -128.720703125 503.6640625 -136.689453125 c 0
 515.4609375 -144.736328125 528.8984375 -150.986328125 543.9765625 -155.439453125 c 0
 558.9765625 -159.892578125 576.0859375 -162.158203125 595.3046875 -162.158203125 c 0
 636.2421875 -162.158203125 667.6484375 -152.392578125 689.3671875 -132.861328125 c 0
 711.1640625 -113.330078125 722.0234375 -86.298828125 722.0234375 -51.767578125 c 1
 722.0234375 -49.5283203125 722.0234375 -47.2880859375 722.0234375 -45.048828125 c 1
 722.0234375 -10.517578125 710.5390625 15.732421875 687.4921875 33.701171875 c 0
 664.4453125 51.591796875 631.7890625 60.576171875 589.5234375 60.576171875 c 1
 565.8515625 60.576171875 542.1796875 60.576171875 518.5078125 60.576171875 c 1
 518.5078125 91.279296875 518.5078125 121.982421875 518.5078125 152.685546875 c 1
 541.215820312 152.685546875 563.924804688 152.685546875 586.6328125 152.685546875 c 1xf226
1183.1171875 -253.330078125 m 0
 1141.5546875 -253.330078125 1105.3828125 -245.517578125 1074.6796875 -229.814453125 c 0
 1043.9765625 -214.189453125 1018.6640625 -191.611328125 998.8203125 -162.158203125 c 0
 978.9765625 -132.705078125 964.2890625 -96.533203125 954.6796875 -53.720703125 c 0
 945.0703125 -10.830078125 940.3046875 38.154296875 940.3046875 93.232421875 c 0
 940.3046875 147.607421875 945.0703125 196.357421875 954.6796875 239.560546875 c 0
 964.2890625 282.763671875 978.9765625 319.091796875 998.8203125 348.544921875 c 0
 1018.6640625 377.998046875 1043.9765625 400.576171875 1074.6796875 416.201171875 c 0
 1105.3828125 431.904296875 1141.5546875 439.716796875 1183.1171875 439.716796875 c 0
 1266.3203125 439.716796875 1327.6484375 409.326171875 1367.0234375 348.544921875 c 0
 1406.3203125 287.763671875 1426.0078125 202.607421875 1426.0078125 93.232421875 c 256
 1426.0078125 -16.220703125 1406.3203125 -101.376953125 1367.0234375 -162.158203125 c 0
 1327.6484375 -222.939453125 1266.3203125 -253.330078125 1183.1171875 -253.330078125 c 0
1183.1171875 -161.220703125 m 256
 1206.1640625 -161.220703125 1225.8515625 -156.533203125 1242.1796875 -147.314453125 c 0
 1258.5078125 -138.017578125 1271.7890625 -124.736328125 1282.0234375 -107.470703125 c 0
 1292.2578125 -90.126953125 1299.6015625 -69.501953125 1304.1328125 -45.517578125 c 0
 1308.5859375 -21.533203125 1310.8515625 5.185546875 1310.8515625 34.638671875 c 1
 1310.8515625 73.6748046875 1310.8515625 112.711914062 1310.8515625 151.748046875 c 1
 1310.8515625 181.201171875 1308.5859375 207.919921875 1304.1328125 231.904296875 c 0
 1299.6015625 255.888671875 1292.2578125 276.591796875 1282.0234375 293.857421875 c 0
 1271.7890625 311.123046875 1258.5078125 324.404296875 1242.1796875 333.701171875 c 0
 1225.8515625 342.919921875 1206.1640625 347.607421875 1183.1171875 347.607421875 c 256
 1160.0703125 347.607421875 1140.4609375 342.919921875 1124.1328125 333.701171875 c 0
 1107.8046875 324.404296875 1094.5234375 311.123046875 1084.2890625 293.857421875 c 0
 1074.0546875 276.591796875 1066.6328125 255.888671875 1062.1796875 231.904296875 c 0
 1057.7265625 207.919921875 1055.4609375 181.201171875 1055.4609375 151.748046875 c 1
 1055.4609375 112.711914062 1055.4609375 73.6748046875 1055.4609375 34.638671875 c 1
 1055.4609375 5.185546875 1057.7265625 -21.533203125 1062.1796875 -45.517578125 c 0
 1066.6328125 -69.501953125 1074.0546875 -90.126953125 1084.2890625 -107.470703125 c 0
 1094.5234375 -124.736328125 1107.8046875 -138.017578125 1124.1328125 -147.314453125 c 0
 1140.4609375 -156.533203125 1160.0703125 -161.220703125 1183.1171875 -161.220703125 c 256
628.7421875 612.685546875 m 256
 589.7578125 612.685546875 555.3046875 617.607421875 525.5390625 627.529296875 c 0
 495.8515625 637.451171875 470.8515625 651.044921875 450.6953125 668.310546875 c 0
 430.5390625 685.576171875 415.1484375 706.123046875 404.6015625 729.794921875 c 0
 394.0546875 753.466796875 388.7421875 779.013671875 388.7421875 806.591796875 c 0xf30e
 388.7421875 851.357421875 401.0859375 887.373046875 425.6953125 914.560546875 c 0
 450.3828125 941.748046875 482.8828125 960.810546875 523.1953125 971.669921875 c 1
 523.1953125 974.248046875 523.1953125 976.826171875 523.1953125 979.404296875 c 1
 488.5859375 991.513671875 460.9296875 1010.73242188 440.1484375 1036.98242188 c 0
 419.3671875 1063.23242188 408.8984375 1095.49804688 408.8984375 1133.93554688 c 0
 408.8984375 1159.56054688 413.8984375 1182.91992188 423.8203125 1204.01367188 c 0
 433.7421875 1225.10742188 447.9609375 1243.23242188 466.5546875 1258.23242188 c 0
 485.0703125 1273.31054688 508.1171875 1284.95117188 535.6171875 1293.31054688 c 0
 563.1953125 1301.59179688 594.2109375 1305.73242188 628.7421875 1305.73242188 c 256
 663.3515625 1305.73242188 694.3671875 1301.59179688 721.8671875 1293.31054688 c 0
 749.4453125 1284.95117188 772.4921875 1273.31054688 791.0078125 1258.23242188 c 0
 809.6015625 1243.23242188 823.8203125 1225.10742188 833.7421875 1204.01367188 c 0
 843.6640625 1182.91992188 848.5859375 1159.56054688 848.5859375 1133.93554688 c 0xf296
 848.5859375 1095.49804688 838.1953125 1063.23242188 817.4140625 1036.98242188 c 0
 796.6328125 1010.73242188 768.8984375 991.513671875 734.3671875 979.404296875 c 1
 734.3671875 976.826171875 734.3671875 974.248046875 734.3671875 971.669921875 c 1
 774.6796875 960.810546875 807.1796875 941.748046875 831.7890625 914.560546875 c 0
 856.4765625 887.373046875 868.7421875 851.357421875 868.7421875 806.591796875 c 0xf20e
 868.7421875 779.013671875 863.5078125 753.466796875 852.9609375 729.794921875 c 0
 842.3359375 706.123046875 827.0234375 685.576171875 806.8671875 668.310546875 c 0
 786.7109375 651.044921875 761.7109375 637.451171875 731.9453125 627.529296875 c 0
 702.1796875 617.607421875 667.8046875 612.685546875 628.7421875 612.685546875 c 256
628.7421875 700.029296875 m 256
 669.0546875 700.029296875 700.3046875 709.326171875 722.3359375 727.841796875 c 0
 744.4453125 746.435546875 755.4609375 772.294921875 755.4609375 805.576171875 c 1
 755.4609375 811.982421875 755.4609375 818.388671875 755.4609375 824.794921875 c 1
 755.4609375 858.076171875 744.4453125 884.013671875 722.3359375 902.607421875 c 0
 700.3046875 921.123046875 669.0546875 930.419921875 628.7421875 930.419921875 c 256xf70e
 588.4296875 930.419921875 557.2578125 921.123046875 535.1484375 902.607421875 c 0
 513.1171875 884.013671875 502.0234375 858.076171875 502.0234375 824.794921875 c 1
 502.0234375 818.388671875 502.0234375 811.982421875 502.0234375 805.576171875 c 1
 502.0234375 772.294921875 513.1171875 746.435546875 535.1484375 727.841796875 c 0
 557.2578125 709.326171875 588.4296875 700.029296875 628.7421875 700.029296875 c 256
628.7421875 1013.93554688 m 256
 665.9296875 1013.93554688 694.2109375 1021.90429688 713.7421875 1037.91992188 c 0
 733.2734375 1053.93554688 743.0390625 1077.29492188 743.0390625 1107.99804688 c 1
 743.0390625 1113.44042969 743.0390625 1118.88378906 743.0390625 1124.32617188 c 1
 743.0390625 1155.02929688 733.2734375 1178.38867188 713.7421875 1194.40429688 c 0
 694.2109375 1210.41992188 665.9296875 1218.38867188 628.7421875 1218.38867188 c 256
 591.6328125 1218.38867188 563.3515625 1210.41992188 543.8203125 1194.40429688 c 0
 524.2890625 1178.38867188 514.5234375 1155.02929688 514.5234375 1124.32617188 c 1
 514.5234375 1118.88378906 514.5234375 1113.44042969 514.5234375 1107.99804688 c 1xf696
 514.5234375 1077.29492188 524.2890625 1053.93554688 543.8203125 1037.91992188 c 0
 563.3515625 1021.90429688 591.6328125 1013.93554688 628.7421875 1013.93554688 c 256
1423.0390625 1044.63867188 m 0
 1423.0390625 996.044921875 1415.6171875 950.263671875 1400.9296875 907.373046875 c 0
 1386.2421875 864.482421875 1367.3359375 825.107421875 1344.2890625 789.326171875 c 0
 1321.2421875 753.466796875 1295.4609375 721.435546875 1267.0234375 693.310546875 c 0
 1238.5078125 665.107421875 1210.5390625 642.060546875 1183.0390625 624.169921875 c 1
 1135.01855469 624.169921875 1086.99707031 624.169921875 1038.9765625 624.169921875 c 1
 1076.7890625 651.669921875 1110.6953125 678.232421875 1140.7734375 703.857421875 c 0
 1170.8515625 729.482421875 1197.1015625 755.654296875 1219.5234375 782.607421875 c 0
 1241.8671875 809.482421875 1260.6171875 837.919921875 1275.6171875 867.998046875 c 0
 1290.6953125 898.076171875 1302.3359375 931.044921875 1310.6953125 966.904296875 c 1
 1308.45605469 967.529296875 1306.21582031 968.154296875 1303.9765625 968.779296875 c 1
 1296.9453125 955.341796875 1288.7421875 942.763671875 1279.5234375 930.888671875 c 0
 1270.2265625 919.013671875 1259.3671875 908.623046875 1246.8671875 899.716796875 c 0
 1234.3671875 890.732421875 1220.1484375 883.701171875 1204.1328125 878.544921875 c 0
 1188.1171875 873.466796875 1169.6015625 870.888671875 1148.4296875 870.888671875 c 0xfa06
 1120.3046875 870.888671875 1094.2109375 875.654296875 1070.2265625 885.263671875 c 0
 1046.2421875 894.873046875 1025.3828125 908.779296875 1007.8046875 927.060546875 c 0
 990.2265625 945.263671875 976.4765625 967.060546875 966.5546875 992.294921875 c 0
 956.6328125 1017.60742188 951.6328125 1046.27929688 951.6328125 1078.23242188 c 0
 951.6328125 1111.51367188 957.2578125 1142.21679688 968.4296875 1170.41992188 c 0
 979.6796875 1198.54492188 995.4609375 1222.60742188 1016.0078125 1242.37304688 c 0
 1036.4765625 1262.21679688 1061.0859375 1277.76367188 1089.9140625 1288.93554688 c 0
 1118.6640625 1300.18554688 1151.0078125 1305.73242188 1186.8671875 1305.73242188 c 0
 1223.9765625 1305.73242188 1257.1015625 1299.71679688 1286.2421875 1287.52929688 c 0
 1315.3046875 1275.34179688 1339.9921875 1257.91992188 1360.1484375 1235.18554688 c 0
 1380.3046875 1212.45117188 1395.8515625 1185.10742188 1406.7109375 1153.15429688 c 0
 1417.5703125 1121.12304688 1423.0390625 1084.95117188 1423.0390625 1044.63867188 c 0
1186.8671875 958.232421875 m 256
 1225.9296875 958.232421875 1256.3203125 968.623046875 1278.0390625 989.482421875 c 0
 1299.8359375 1010.26367188 1310.6953125 1040.81054688 1310.6953125 1081.12304688 c 1
 1310.6953125 1085.60253906 1310.6953125 1090.08105469 1310.6953125 1094.56054688 c 1
 1310.6953125 1134.87304688 1299.8359375 1165.41992188 1278.0390625 1186.27929688 c 0
 1256.3203125 1207.06054688 1225.9296875 1217.45117188 1186.8671875 1217.45117188 c 256
 1147.8046875 1217.45117188 1117.4140625 1207.06054688 1095.6171875 1186.27929688 c 0
 1073.8984375 1165.41992188 1063.0390625 1134.87304688 1063.0390625 1094.56054688 c 1
 1063.0390625 1090.08105469 1063.0390625 1085.60253906 1063.0390625 1081.12304688 c 1
 1063.0390625 1040.81054688 1073.8984375 1010.26367188 1095.6171875 989.482421875 c 0
 1117.4140625 968.623046875 1147.8046875 958.232421875 1186.8671875 958.232421875 c 256
EndSplineSet
EndChar

StartChar: uniE108
Encoding: 57608 57608 9
Width: 1792
VWidth: 1687
Flags: W
HStem: 183 88.2812<711 802.25 910.688 1002.88> 364.406 93.125<1273.34 1471> 757.062 96.0156<120.375 320.062 428.5 628.188 711 802.25 910.688 1002.88 1359.62 1385.56>
VStem: 320.062 108.438<183 757.062> 711 291.875<183 271.281 764.797 853.078> 1078.34 110.469<183 293.469> 1558.34 113.281<183 296.281>
DStem2: 1078.34 183 1188.81 183 0.303155 0.952941<33.4892 224.122 320.727 631.883> 1443.19 853.078 1375.06 753.234 0.305997 -0.952033<74.2085 385.084>
LayerCount: 2
Fore
SplineSet
428.5 757.0625 m 1
 428.5 565.708007812 428.5 374.354492188 428.5 183 c 1
 392.354492188 183 356.208007812 183 320.0625 183 c 1
 320.0625 374.354492188 320.0625 565.708007812 320.0625 757.0625 c 1
 253.5 757.0625 186.9375 757.0625 120.375 757.0625 c 1
 120.375 789.067382812 120.375 821.073242188 120.375 853.078125 c 1
 289.645507812 853.078125 458.916992188 853.078125 628.1875 853.078125 c 1
 628.1875 821.073242188 628.1875 789.067382812 628.1875 757.0625 c 1
 561.625 757.0625 495.0625 757.0625 428.5 757.0625 c 1
711 183 m 1
 711 212.426757812 711 241.854492188 711 271.28125 c 1
 741.416992188 271.28125 771.833007812 271.28125 802.25 271.28125 c 1
 802.25 435.786132812 802.25 600.291992188 802.25 764.796875 c 1
 771.833007812 764.796875 741.416992188 764.796875 711 764.796875 c 1
 711 794.223632812 711 823.651367188 711 853.078125 c 1
 808.291992188 853.078125 905.583007812 853.078125 1002.875 853.078125 c 1
 1002.875 823.651367188 1002.875 794.223632812 1002.875 764.796875 c 1
 972.145507812 764.796875 941.416992188 764.796875 910.6875 764.796875 c 1
 910.6875 600.291992188 910.6875 435.786132812 910.6875 271.28125 c 1
 941.416992188 271.28125 972.145507812 271.28125 1002.875 271.28125 c 1
 1002.875 241.854492188 1002.875 212.426757812 1002.875 183 c 1
 905.583007812 183 808.291992188 183 711 183 c 1
1558.34375 183 m 1
 1538.1875 243.46875 1518.03125 303.9375 1497.875 364.40625 c 1
 1414.38574219 364.40625 1330.89550781 364.40625 1247.40625 364.40625 c 1
 1227.875 303.9375 1208.34375 243.46875 1188.8125 183 c 1
 1151.98925781 183 1115.16699219 183 1078.34375 183 c 1
 1154.54199219 406.359375 1230.73925781 629.71875 1306.9375 853.078125 c 1
 1352.35449219 853.078125 1397.77050781 853.078125 1443.1875 853.078125 c 1
 1519.33300781 629.71875 1595.47949219 406.359375 1671.625 183 c 1
 1633.86425781 183 1596.10449219 183 1558.34375 183 c 1
1375.0625 753.234375 m 1
 1373.44824219 753.234375 1371.83300781 753.234375 1370.21875 753.234375 c 1
 1337.92675781 654.666992188 1305.63574219 556.098632812 1273.34375 457.53125 c 1
 1339.22949219 457.53125 1405.11425781 457.53125 1471 457.53125 c 1
 1439.02050781 556.098632812 1407.04199219 654.666992188 1375.0625 753.234375 c 1
EndSplineSet
EndChar

StartChar: uniE109
Encoding: 57609 57609 10
Width: 1792
VWidth: 1687
Flags: W
HStem: 171.516 95.9375<134.083 359.867> 364.406 93.125<745.609 943.344 1385.61 1583.34> 753.234 99.8438<830.443 859.33 1470.44 1499.33> 768.625 95.9375<159.651 378.063>
VStem: 28.1875 107.5<611.387 747.68> 388.188 107.5<294.565 441.758> 550.688 110.391<183 293.391> 1030.69 113.281<183 296.281> 1190.69 110.391<183 293.391> 1670.69 113.281<183 296.281>
DStem2: 242.25 584.25 223.969 481.594 0.978916 -0.204262<-84.378 149.631> 550.688 183 661.078 183 0.322775 0.946476<35.6313 226.241 322.753 322.753> 915.531 853.078 847.328 753.234 0.306115 -0.951995<74.1727 385.072 481.954 673.162> 1190.69 183 1301.08 183 0.322775 0.946476<35.6313 226.241 322.753 322.753> 1555.53 853.078 1487.33 753.234 0.306115 -0.951995<74.1727 385.072 481.954 673.162>
LayerCount: 2
Fore
SplineSet
252.796875 171.515625 m 0xdfc0
 196.46875 171.515625 148.65625 181.75 109.28125 202.21875 c 0
 69.90625 222.6875 36.15625 250.1875 8.03125 284.796875 c 1
 32.9794921875 308.15625 57.9267578125 331.515625 82.875 354.875 c 1
 106.546875 326.046875 132.640625 304.25 161.078125 289.5625 c 0
 189.59375 274.875 222.09375 267.453125 258.578125 267.453125 c 0
 301.46875 267.453125 333.734375 277.0625 355.53125 296.28125 c 0
 377.25 315.5 388.1875 341.4375 388.1875 374.015625 c 0
 388.1875 400.265625 380.453125 421.046875 365.140625 436.4375 c 0
 349.75 451.828125 322.5625 463.3125 283.5 470.96875 c 1
 263.65625 474.510742188 243.8125 478.051757812 223.96875 481.59375 c 1
 158.734375 493.703125 109.75 515.1875 77.09375 545.890625 c 0
 44.4375 576.59375 28.1875 618.859375 28.1875 672.609375 c 0
 28.1875 702.0625 33.734375 728.78125 44.984375 752.765625 c 0
 56.15625 776.75 71.859375 796.90625 92.015625 813.234375 c 0
 112.171875 829.5625 136.625 842.21875 165.453125 851.125 c 0
 194.203125 860.109375 226.546875 864.5625 262.40625 864.5625 c 0
 312.953125 864.5625 356.78125 855.8125 393.890625 838.234375 c 0
 431 820.578125 462.71875 795.1875 488.96875 761.90625 c 1
 463.682617188 739.510742188 438.395507812 717.114257812 413.109375 694.71875 c 1
 395.84375 717.0625 374.75 735.03125 349.75 748.46875 c 0
 324.828125 761.90625 293.734375 768.625 256.625 768.625 c 0
 218.265625 768.625 188.5 760.890625 167.328125 745.578125 c 0
 146.234375 730.1875 135.6875 707.765625 135.6875 678.390625 c 0
 135.6875 650.1875 144.28125 629.25 161.625 615.5 c 0
 178.890625 601.75 205.765625 591.28125 242.25 584.25 c 1
 262.09375 580.109375 281.9375 575.96875 301.78125 571.828125 c 1
 368.96875 559.015625 418.109375 537.21875 449.125 506.515625 c 0
 480.140625 475.8125 495.6875 433.546875 495.6875 379.796875 c 0
 495.6875 348.46875 490.21875 319.953125 479.359375 294.328125 c 0
 468.5 268.78125 452.640625 246.828125 431.859375 228.625 c 0
 411 210.34375 385.609375 196.28125 355.53125 186.359375 c 0
 325.453125 176.4375 291.15625 171.515625 252.796875 171.515625 c 0xdfc0
1030.6875 183 m 1
 1010.53125 243.46875 990.375 303.9375 970.21875 364.40625 c 1
 886.703125 364.40625 803.1875 364.40625 719.671875 364.40625 c 1
 700.140625 303.9375 680.609375 243.46875 661.078125 183 c 1
 624.28125 183 587.484375 183 550.6875 183 c 1
 626.859375 406.359375 703.03125 629.71875 779.203125 853.078125 c 1
 824.645507812 853.078125 870.088867188 853.078125 915.53125 853.078125 c 1xefc0
 991.676757812 629.71875 1067.82324219 406.359375 1143.96875 183 c 1
 1106.20800781 183 1068.44824219 183 1030.6875 183 c 1
847.328125 753.234375 m 1
 845.739257812 753.234375 844.151367188 753.234375 842.5625 753.234375 c 1
 810.245117188 654.666992188 777.926757812 556.098632812 745.609375 457.53125 c 1
 811.520507812 457.53125 877.432617188 457.53125 943.34375 457.53125 c 1
 911.338867188 556.098632812 879.333007812 654.666992188 847.328125 753.234375 c 1
1670.6875 183 m 5
 1650.53125 243.46875 1630.375 303.9375 1610.21875 364.40625 c 1
 1526.703125 364.40625 1443.1875 364.40625 1359.671875 364.40625 c 1
 1340.140625 303.9375 1320.609375 243.46875 1301.078125 183 c 1
 1264.28125 183 1227.484375 183 1190.6875 183 c 1
 1266.859375 406.359375 1343.03125 629.71875 1419.203125 853.078125 c 1
 1464.64550781 853.078125 1510.08886719 853.078125 1555.53125 853.078125 c 5
 1631.67675781 629.71875 1707.82324219 406.359375 1783.96875 183 c 1
 1746.20800781 183 1708.44824219 183 1670.6875 183 c 5
1487.328125 753.234375 m 1
 1485.73925781 753.234375 1484.15136719 753.234375 1482.5625 753.234375 c 1
 1450.24511719 654.666992188 1417.92675781 556.098632812 1385.609375 457.53125 c 1
 1451.52050781 457.53125 1517.43261719 457.53125 1583.34375 457.53125 c 1
 1551.33886719 556.098632812 1519.33300781 654.666992188 1487.328125 753.234375 c 1
EndSplineSet
EndChar

StartChar: uniE10A
Encoding: 57610 57610 11
Width: 1792
VWidth: 1687
Flags: W
HStem: 183 88.2812<773.109 864.281 972.797 1064.98 1342.08 1563.11> 764.797 88.2812<773.109 864.281 972.797 1064.98 1342.01 1562.58>
VStem: 96.625 112.344<740.734 853.078> 555.531 109.453<743.625 853.078> 773.109 291.875<183 271.281 764.797 853.078> 1172.17 115.156<330.807 708.111>
DStem2: 208.969 853.078 96.625 853.078 0.311738 -0.950168<0 589.589> 383.656 288.625 442.25 183 0.291293 0.956634<0 590.041>
LayerCount: 2
Fore
SplineSet
316.46875 183 m 1
 243.1875 406.359375 169.90625 629.71875 96.625 853.078125 c 1
 134.073242188 853.078125 171.520507812 853.078125 208.96875 853.078125 c 1
 244.489257812 742.6875 280.010742188 632.296875 315.53125 521.90625 c 1
 336.963867188 444.145507812 358.395507812 366.385742188 379.828125 288.625 c 1
 381.104492188 288.625 382.379882812 288.625 383.65625 288.625 c 1
 405.426757812 366.385742188 427.198242188 444.145507812 448.96875 521.90625 c 1
 484.489257812 632.296875 520.010742188 742.6875 555.53125 853.078125 c 1
 592.015625 853.078125 628.5 853.078125 664.984375 853.078125 c 1
 590.739257812 629.71875 516.495117188 406.359375 442.25 183 c 1
 400.323242188 183 358.395507812 183 316.46875 183 c 1
773.109375 183 m 1
 773.109375 212.426757812 773.109375 241.854492188 773.109375 271.28125 c 1
 803.5 271.28125 833.890625 271.28125 864.28125 271.28125 c 1
 864.28125 435.786132812 864.28125 600.291992188 864.28125 764.796875 c 1
 833.890625 764.796875 803.5 764.796875 773.109375 764.796875 c 1
 773.109375 794.223632812 773.109375 823.651367188 773.109375 853.078125 c 1
 870.401367188 853.078125 967.692382812 853.078125 1064.984375 853.078125 c 1
 1064.984375 823.651367188 1064.984375 794.223632812 1064.984375 764.796875 c 1
 1034.25488281 764.796875 1003.52636719 764.796875 972.796875 764.796875 c 1
 972.796875 600.291992188 972.796875 435.786132812 972.796875 271.28125 c 1
 1003.52636719 271.28125 1034.25488281 271.28125 1064.984375 271.28125 c 1
 1064.984375 241.854492188 1064.984375 212.426757812 1064.984375 183 c 1
 967.692382812 183 870.401367188 183 773.109375 183 c 1
1453.421875 171.515625 m 0
 1365.765625 171.515625 1296.9375 201.046875 1247.015625 260.265625 c 0
 1197.09375 319.484375 1172.171875 405.421875 1172.171875 518.078125 c 0
 1172.171875 574.328125 1178.578125 623.9375 1191.390625 666.828125 c 0
 1204.125 709.71875 1222.71875 745.890625 1247.015625 775.34375 c 0
 1271.390625 804.796875 1300.921875 826.984375 1335.84375 842.0625 c 0
 1370.6875 857.0625 1409.90625 864.5625 1453.421875 864.5625 c 0
 1511.703125 864.5625 1560.453125 851.828125 1599.828125 826.203125 c 0
 1639.203125 800.578125 1670.0625 762.84375 1692.484375 712.921875 c 1
 1662.09375 696.28125 1631.703125 679.640625 1601.3125 663 c 1
 1589.75 695.03125 1572.015625 720.421875 1548.03125 739.328125 c 0
 1523.96875 758.234375 1492.484375 767.609375 1453.421875 767.609375 c 0
 1401.625 767.609375 1360.921875 750.03125 1331.546875 714.875 c 0
 1302.09375 679.640625 1287.328125 630.96875 1287.328125 568.9375 c 1
 1287.328125 535.004882812 1287.328125 501.073242188 1287.328125 467.140625 c 1
 1287.328125 405.109375 1302.09375 356.4375 1331.546875 321.203125 c 0
 1360.921875 286.046875 1401.625 268.46875 1453.421875 268.46875 c 0
 1493.734375 268.46875 1526.546875 278.859375 1551.859375 299.640625 c 0
 1577.09375 320.421875 1595.84375 347.140625 1608.03125 379.796875 c 1
 1637.14550781 362.192382812 1666.26074219 344.588867188 1695.375 326.984375 c 1
 1672.953125 278.390625 1641.625 240.265625 1601.3125 212.765625 c 0
 1560.921875 185.265625 1511.703125 171.515625 1453.421875 171.515625 c 0
EndSplineSet
EndChar

StartChar: uniE10B
Encoding: 57611 57611 12
Width: 1792
VWidth: 1687
Flags: W
HStem: 183 96.0156<820.297 1141> 449.875 95.0781<180.297 416.684> 474.875 95.9375<820.297 1111.23> 757.062 96.0156<180.297 416.684 820.297 1141 1212.33 1412.02 1520.45 1720.14>
VStem: 71.8594 108.438<183 449.875 544.953 758.078> 440.453 114.297<567.194 735.759> 711.859 108.438<279.016 474.875 570.812 757.062> 1412.02 108.438<183 757.062>
LayerCount: 2
Fore
SplineSet
71.859375 183 m 1xdf
 71.859375 406.359375 71.859375 629.71875 71.859375 853.078125 c 1
 167.848632812 853.078125 263.838867188 853.078125 359.828125 853.078125 c 1
 421.9375 853.078125 469.90625 834.875 503.8125 798.390625 c 0
 537.796875 761.90625 554.75 712.921875 554.75 651.515625 c 256
 554.75 590.03125 537.796875 541.046875 503.8125 504.5625 c 0
 469.90625 468.15625 421.9375 449.875 359.828125 449.875 c 1
 299.984375 449.875 240.140625 449.875 180.296875 449.875 c 1
 180.296875 360.916992188 180.296875 271.958007812 180.296875 183 c 1
 144.151367188 183 108.004882812 183 71.859375 183 c 1xdf
180.296875 544.953125 m 1
 237.901367188 544.953125 295.504882812 544.953125 353.109375 544.953125 c 1
 380.609375 544.953125 402.09375 552.140625 417.40625 566.515625 c 0
 432.796875 580.890625 440.453125 601.59375 440.453125 628.46875 c 1
 440.453125 643.807617188 440.453125 659.145507812 440.453125 674.484375 c 1
 440.453125 701.4375 432.796875 722.0625 417.40625 736.4375 c 0
 402.09375 750.8125 380.609375 758.078125 353.109375 758.078125 c 1
 295.504882812 758.078125 237.901367188 758.078125 180.296875 758.078125 c 1
 180.296875 687.036132812 180.296875 615.995117188 180.296875 544.953125 c 1
711.859375 183 m 1
 711.859375 406.359375 711.859375 629.71875 711.859375 853.078125 c 1
 854.90625 853.078125 997.953125 853.078125 1141 853.078125 c 1
 1141 821.073242188 1141 789.067382812 1141 757.0625 c 1
 1034.09863281 757.0625 927.198242188 757.0625 820.296875 757.0625 c 1
 820.296875 694.979492188 820.296875 632.895507812 820.296875 570.8125 c 1
 917.276367188 570.8125 1014.25488281 570.8125 1111.234375 570.8125 c 1
 1111.234375 538.833007812 1111.234375 506.854492188 1111.234375 474.875 c 1
 1014.25488281 474.875 917.276367188 474.875 820.296875 474.875 c 1xbf
 820.296875 409.588867188 820.296875 344.301757812 820.296875 279.015625 c 1
 927.198242188 279.015625 1034.09863281 279.015625 1141 279.015625 c 1
 1141 247.010742188 1141 215.004882812 1141 183 c 1
 997.953125 183 854.90625 183 711.859375 183 c 1
1520.453125 757.0625 m 1
 1520.453125 565.708007812 1520.453125 374.354492188 1520.453125 183 c 1
 1484.30761719 183 1448.16113281 183 1412.015625 183 c 1
 1412.015625 374.354492188 1412.015625 565.708007812 1412.015625 757.0625 c 1
 1345.453125 757.0625 1278.890625 757.0625 1212.328125 757.0625 c 1
 1212.328125 789.067382812 1212.328125 821.073242188 1212.328125 853.078125 c 1
 1381.59863281 853.078125 1550.87011719 853.078125 1720.140625 853.078125 c 1
 1720.140625 821.073242188 1720.140625 789.067382812 1720.140625 757.0625 c 1
 1653.578125 757.0625 1587.015625 757.0625 1520.453125 757.0625 c 1
EndSplineSet
EndChar

StartChar: uniE10C
Encoding: 57612 57612 13
Width: 1792
VWidth: 1687
Flags: W
HStem: -253.33 85.3906<803.27 978.187> 95.1074 85.4688<828.18 977.718> 612.686 89.2188<1388.21 1579.14> 624.17 92.1875<328.559 354.926> 897.764 85.4688<802.406 938.743> 1204.95 89.2969<802.406 1011.58 1380.73 1582.23>
VStem: 82.0938 106.562<1187.69 1294.25> 493.891 104.688<1189.56 1294.25> 674.359 107.5<-147.67 75.4575> 700.609 101.797<624.17 897.764 983.232 1204.95> 998.891 107.5<-147.386 74.3151> 1030.84 108.516<1002.5 1185.69> 1233.73 109.453<750.416 1168>
DStem2: 188.656 1294.25 82.0938 1294.25 0.271727 -0.962374<0 593.586> 375.844 872.842 402.719 624.17 0.269742 0.962933<-155.735 437.628> 1024.12 905.42 922.406 897.764 0.413517 -0.910496<0 262.054>
LayerCount: 2
Fore
SplineSet
890.296875 -253.330078125 m 0xcfa8
 818.734375 -253.330078125 764.828125 -231.298828125 728.578125 -187.158203125 c 0
 692.484375 -142.939453125 674.359375 -78.642578125 674.359375 5.810546875 c 0
 674.359375 46.123046875 679.515625 86.435546875 689.671875 126.826171875 c 0
 699.984375 167.138671875 714.671875 205.654296875 733.890625 242.451171875 c 0
 753.109375 279.248046875 775.921875 313.701171875 802.484375 345.654296875 c 0
 829.046875 377.685546875 858.734375 405.185546875 891.390625 428.232421875 c 1
 937.120117188 428.232421875 982.848632812 428.232421875 1028.578125 428.232421875 c 1
 989.515625 398.154296875 955.921875 369.482421875 927.796875 342.294921875 c 0
 899.671875 315.107421875 875.765625 288.076171875 856.234375 261.201171875 c 0
 836.703125 234.326171875 820.921875 206.669921875 808.734375 178.154296875 c 0
 796.546875 149.638671875 787.328125 118.779296875 780.921875 85.498046875 c 1
 785.088867188 85.498046875 789.254882812 85.498046875 793.421875 85.498046875 c 1
 804.359375 116.201171875 821.546875 139.716796875 845.296875 156.044921875 c 0
 868.890625 172.373046875 897.015625 180.576171875 929.671875 180.576171875 c 0
 984.046875 180.576171875 1027.171875 162.919921875 1058.890625 127.763671875 c 0
 1090.453125 92.529296875 1106.390625 40.732421875 1106.390625 -27.783203125 c 0
 1106.390625 -98.798828125 1087.953125 -154.189453125 1051.234375 -193.876953125 c 0
 1014.359375 -233.564453125 960.765625 -253.330078125 890.296875 -253.330078125 c 0xcfa8
890.296875 -167.939453125 m 256
 962.640625 -167.939453125 998.890625 -128.251953125 998.890625 -48.876953125 c 1
 998.890625 -40.5693359375 998.890625 -32.2626953125 998.890625 -23.955078125 c 1
 998.890625 55.419921875 962.640625 95.107421875 890.296875 95.107421875 c 256
 818.109375 95.107421875 781.859375 55.419921875 781.859375 -23.955078125 c 1
 781.859375 -32.2626953125 781.859375 -40.5693359375 781.859375 -48.876953125 c 1
 781.859375 -128.251953125 818.109375 -167.939453125 890.296875 -167.939453125 c 256
278.890625 624.169921875 m 1xdf08
 213.291992188 847.529296875 147.692382812 1070.88867188 82.09375 1294.24804688 c 1
 117.614257812 1294.24804688 153.135742188 1294.24804688 188.65625 1294.24804688 c 1
 228.317382812 1153.77929688 267.979492188 1013.31054688 307.640625 872.841796875 c 1
 316.9375 820.680664062 326.234375 768.518554688 335.53125 716.357421875 c 1
 339.671875 716.357421875 343.8125 716.357421875 347.953125 716.357421875 c 1
 357.25 768.518554688 366.546875 820.680664062 375.84375 872.841796875 c 1
 415.192382812 1013.31054688 454.541992188 1153.77929688 493.890625 1294.24804688 c 1
 528.786132812 1294.24804688 563.682617188 1294.24804688 598.578125 1294.24804688 c 1
 533.291992188 1070.88867188 468.004882812 847.529296875 402.71875 624.169921875 c 1
 361.442382812 624.169921875 320.166992188 624.169921875 278.890625 624.169921875 c 1xdf08
802.40625 624.169921875 m 1xdf58
 768.473632812 624.169921875 734.541992188 624.169921875 700.609375 624.169921875 c 1
 700.609375 847.529296875 700.609375 1070.88867188 700.609375 1294.24804688 c 1
 788.942382812 1294.24804688 877.276367188 1294.24804688 965.609375 1294.24804688 c 1
 1023.1875 1294.24804688 1066.546875 1277.13867188 1095.6875 1242.91992188 c 0
 1124.75 1208.62304688 1139.359375 1159.56054688 1139.359375 1095.49804688 c 0
 1139.359375 1043.70117188 1129.75 1001.74804688 1110.53125 969.794921875 c 0
 1091.3125 937.763671875 1062.5625 916.357421875 1024.125 905.419921875 c 1
 1066.703125 811.669921875 1109.28125 717.919921875 1151.859375 624.169921875 c 1
 1114.09863281 624.169921875 1076.33886719 624.169921875 1038.578125 624.169921875 c 1
 999.854492188 715.368164062 961.129882812 806.565429688 922.40625 897.763671875 c 1
 882.40625 897.763671875 842.40625 897.763671875 802.40625 897.763671875 c 1
 802.40625 806.565429688 802.40625 715.368164062 802.40625 624.169921875 c 1xdf58
956.9375 983.232421875 m 1
 981.234375 983.232421875 999.671875 989.482421875 1012.171875 1001.90429688 c 0
 1024.59375 1014.40429688 1030.84375 1034.71679688 1030.84375 1062.91992188 c 1
 1030.84375 1083.70117188 1030.84375 1104.48242188 1030.84375 1125.26367188 c 1
 1030.84375 1153.46679688 1024.59375 1173.77929688 1012.171875 1186.27929688 c 0
 999.671875 1198.70117188 981.234375 1204.95117188 956.9375 1204.95117188 c 1
 905.426757812 1204.95117188 853.916992188 1204.95117188 802.40625 1204.95117188 c 1
 802.40625 1131.04492188 802.40625 1057.13867188 802.40625 983.232421875 c 1
 853.916992188 983.232421875 905.426757812 983.232421875 956.9375 983.232421875 c 1
1487.171875 612.685546875 m 0xef08
 1448.109375 612.685546875 1413.109375 619.248046875 1382.09375 632.294921875 c 0
 1351 645.419921875 1324.4375 666.123046875 1302.40625 694.248046875 c 0
 1280.296875 722.373046875 1263.34375 758.388671875 1251.46875 802.216796875 c 0
 1239.671875 846.123046875 1233.734375 898.388671875 1233.734375 959.248046875 c 256
 1233.734375 1020.02929688 1239.671875 1072.29492188 1251.46875 1116.20117188 c 0
 1263.34375 1160.02929688 1280.296875 1196.04492188 1302.40625 1224.16992188 c 0
 1324.4375 1252.29492188 1351 1272.99804688 1382.09375 1286.12304688 c 0
 1413.109375 1299.24804688 1448.109375 1305.73242188 1487.171875 1305.73242188 c 0
 1544.125 1305.73242188 1589.75 1293.46679688 1623.96875 1268.77929688 c 0
 1658.1875 1244.16992188 1685.609375 1207.21679688 1706.078125 1157.91992188 c 1
 1677.27636719 1141.93066406 1648.47363281 1125.94042969 1619.671875 1109.95117188 c 1
 1608.109375 1147.68554688 1592.015625 1174.87304688 1571.15625 1191.51367188 c 0
 1550.375 1208.15429688 1522.40625 1216.51367188 1487.171875 1216.51367188 c 0
 1441.78125 1216.51367188 1406.390625 1200.81054688 1381.078125 1169.48242188 c 0
 1355.84375 1138.07617188 1343.1875 1094.87304688 1343.1875 1039.87304688 c 1
 1343.1875 986.096679688 1343.1875 932.321289062 1343.1875 878.544921875 c 1
 1343.1875 823.544921875 1355.84375 780.341796875 1381.078125 748.935546875 c 0
 1406.390625 717.607421875 1441.78125 701.904296875 1487.171875 701.904296875 c 0
 1523.03125 701.904296875 1552.015625 710.888671875 1574.046875 728.779296875 c 0
 1596.15625 746.748046875 1613.265625 775.498046875 1625.453125 815.185546875 c 1
 1653.60449219 798.544921875 1681.75488281 781.904296875 1709.90625 765.263671875 c 1
 1688.8125 716.044921875 1660.609375 678.232421875 1625.453125 651.982421875 c 0
 1590.21875 625.732421875 1544.125 612.685546875 1487.171875 612.685546875 c 0xef08
EndSplineSet
EndChar

StartChar: uniE10D
Encoding: 57613 57613 14
Width: 1792
VWidth: 1687
Flags: W
HStem: -247.516 96.0156<568.266 840.922 1048.27 1320.92> 607.016 96.9531<456.756 680.46> 885.375 95.0781<1137.88 1374.26> 1203.11 96.9531<456.756 680.46 1137.88 1374.26>
VStem: 279.672 116.172<767.663 1139.42> 459.828 108.438<-151.5 422.562> 741.391 116.172<767.663 1139.42> 939.828 108.438<-151.5 422.562> 1029.44 108.438<618.5 885.375 980.453 1193.58> 1398.03 114.297<1002.69 1171.26>
LayerCount: 2
Fore
SplineSet
459.828125 -247.515625 m 1xfe40
 459.828125 -24.15625 459.828125 199.203125 459.828125 422.5625 c 1
 495.973632812 422.5625 532.120117188 422.5625 568.265625 422.5625 c 1
 568.265625 231.208007812 568.265625 39.853515625 568.265625 -151.5 c 1
 659.151367188 -151.5 750.036132812 -151.5 840.921875 -151.5 c 1
 840.921875 -183.505859375 840.921875 -215.510742188 840.921875 -247.515625 c 1
 713.890625 -247.515625 586.859375 -247.515625 459.828125 -247.515625 c 1xfe40
939.828125 -247.515625 m 1xff40
 939.828125 -24.15625 939.828125 199.203125 939.828125 422.5625 c 1
 975.973632812 422.5625 1012.12011719 422.5625 1048.265625 422.5625 c 1
 1048.265625 231.208007812 1048.265625 39.853515625 1048.265625 -151.5 c 1
 1139.15136719 -151.5 1230.03613281 -151.5 1320.921875 -151.5 c 1
 1320.921875 -183.505859375 1320.921875 -215.510742188 1320.921875 -247.515625 c 1
 1193.890625 -247.515625 1066.859375 -247.515625 939.828125 -247.515625 c 1xff40
568.65625 607.015625 m 256
 525.0625 607.015625 485.609375 614.515625 450.0625 629.515625 c 0
 414.515625 644.59375 384.125 666.625 358.890625 695.765625 c 0
 333.578125 724.90625 314.046875 761.078125 300.296875 804.28125 c 0
 286.546875 847.484375 279.671875 897.25 279.671875 953.578125 c 256
 279.671875 1009.828125 286.546875 1059.59375 300.296875 1102.796875 c 0
 314.046875 1146 333.578125 1182.171875 358.890625 1211.3125 c 0
 384.125 1240.453125 414.515625 1262.484375 450.0625 1277.5625 c 0
 485.609375 1292.5625 525.0625 1300.0625 568.65625 1300.0625 c 256
 612.171875 1300.0625 651.625 1292.5625 687.171875 1277.5625 c 0
 722.71875 1262.484375 753.109375 1240.453125 778.34375 1211.3125 c 0
 803.65625 1182.171875 823.1875 1146 836.9375 1102.796875 c 0
 850.6875 1059.59375 857.5625 1009.828125 857.5625 953.578125 c 256
 857.5625 897.25 850.6875 847.484375 836.9375 804.28125 c 0
 823.1875 761.078125 803.65625 724.90625 778.34375 695.765625 c 0
 753.109375 666.625 722.71875 644.59375 687.171875 629.515625 c 0
 651.625 614.515625 612.171875 607.015625 568.65625 607.015625 c 256
568.65625 703.96875 m 0
 594.203125 703.96875 617.71875 708.421875 639.203125 717.40625 c 0
 660.609375 726.3125 678.890625 739.28125 693.890625 756.234375 c 0
 708.96875 773.1875 720.609375 793.890625 728.96875 818.1875 c 0
 737.25 842.484375 741.390625 869.984375 741.390625 900.765625 c 1
 741.390625 935.947265625 741.390625 971.129882812 741.390625 1006.3125 c 1
 741.390625 1037.09375 737.25 1064.59375 728.96875 1088.890625 c 0
 720.609375 1113.1875 708.96875 1133.890625 693.890625 1150.84375 c 0
 678.890625 1167.796875 660.609375 1180.765625 639.203125 1189.671875 c 0
 617.71875 1198.65625 594.203125 1203.109375 568.65625 1203.109375 c 0
 542.40625 1203.109375 518.734375 1198.65625 497.5625 1189.671875 c 0
 476.46875 1180.765625 458.34375 1167.796875 443.34375 1150.84375 c 0
 428.265625 1133.890625 416.625 1113.1875 408.265625 1088.890625 c 0
 399.984375 1064.59375 395.84375 1037.09375 395.84375 1006.3125 c 1
 395.84375 971.129882812 395.84375 935.947265625 395.84375 900.765625 c 1
 395.84375 869.984375 399.984375 842.484375 408.265625 818.1875 c 0
 416.625 793.890625 428.265625 773.1875 443.34375 756.234375 c 0
 458.34375 739.28125 476.46875 726.3125 497.5625 717.40625 c 0
 518.734375 708.421875 542.40625 703.96875 568.65625 703.96875 c 0
1029.4375 618.5 m 1xfec0
 1029.4375 841.859375 1029.4375 1065.21875 1029.4375 1288.578125 c 1
 1125.42675781 1288.578125 1221.41699219 1288.578125 1317.40625 1288.578125 c 1
 1379.515625 1288.578125 1427.484375 1270.37402344 1461.390625 1233.890625 c 0
 1495.375 1197.40527344 1512.328125 1148.421875 1512.328125 1087.015625 c 256
 1512.328125 1025.53027344 1495.375 976.546875 1461.390625 940.0625 c 0
 1427.484375 903.65625 1379.515625 885.375 1317.40625 885.375 c 1
 1257.5625 885.375 1197.71875 885.375 1137.875 885.375 c 1
 1137.875 796.416015625 1137.875 707.458007812 1137.875 618.5 c 1
 1101.72949219 618.5 1065.58300781 618.5 1029.4375 618.5 c 1xfec0
1137.875 980.453125 m 1
 1195.47949219 980.453125 1253.08300781 980.453125 1310.6875 980.453125 c 1
 1338.1875 980.453125 1359.671875 987.640625 1374.984375 1002.015625 c 0
 1390.375 1016.390625 1398.03125 1037.09277344 1398.03125 1063.96875 c 1
 1398.03125 1079.30664062 1398.03125 1094.64550781 1398.03125 1109.984375 c 1
 1398.03125 1136.9375 1390.375 1157.56152344 1374.984375 1171.9375 c 0
 1359.671875 1186.31152344 1338.1875 1193.578125 1310.6875 1193.578125 c 1
 1253.08300781 1193.578125 1195.47949219 1193.578125 1137.875 1193.578125 c 1
 1137.875 1122.53613281 1137.875 1051.49414062 1137.875 980.453125 c 1
EndSplineSet
EndChar

StartChar: uniE10E
Encoding: 57614 57614 15
Width: 1792
VWidth: 1687
Flags: W
HStem: 183 96.0156<177.043 421.987 1508.81 1781.47> 449.875 95.0781<868.812 1105.12> 758.078 95<177.765 421.265 868.812 1105.12>
VStem: 10.5312 116.25<332.163 703.916> 472.25 116.25<332.163 703.916> 760.375 108.438<183 449.875 544.953 758.078> 1128.97 114.219<567.194 735.759> 1400.38 108.438<279.016 853.078>
LayerCount: 2
Fore
SplineSet
299.59375 171.515625 m 256
 256 171.515625 216.46875 179.015625 181 194.015625 c 0
 145.375 209.09375 115.0625 231.125 89.75 260.265625 c 0
 64.4375 289.40625 44.90625 325.578125 31.15625 368.78125 c 0
 17.40625 411.984375 10.53125 461.75 10.53125 518.078125 c 256
 10.53125 574.328125 17.40625 624.09375 31.15625 667.296875 c 0
 44.90625 710.5 64.4375 746.671875 89.75 775.8125 c 0
 115.0625 804.953125 145.375 826.984375 181 842.0625 c 0
 216.46875 857.0625 256 864.5625 299.59375 864.5625 c 256
 343.03125 864.5625 382.5625 857.0625 418.03125 842.0625 c 0
 453.65625 826.984375 483.96875 804.953125 509.28125 775.8125 c 0
 534.59375 746.671875 554.125 710.5 567.875 667.296875 c 0
 581.625 624.09375 588.5 574.328125 588.5 518.078125 c 256
 588.5 461.75 581.625 411.984375 567.875 368.78125 c 0
 554.125 325.578125 534.59375 289.40625 509.28125 260.265625 c 0
 483.96875 231.125 453.65625 209.09375 418.03125 194.015625 c 0
 382.5625 179.015625 343.03125 171.515625 299.59375 171.515625 c 256
299.59375 268.46875 m 0
 325.0625 268.46875 348.65625 272.921875 370.0625 281.90625 c 0
 391.46875 290.8125 409.75 303.78125 424.75 320.734375 c 0
 439.90625 337.6875 451.46875 358.390625 459.90625 382.6875 c 0
 468.1875 406.984375 472.25 434.484375 472.25 465.265625 c 1
 472.25 500.448242188 472.25 535.629882812 472.25 570.8125 c 1
 472.25 601.59375 468.1875 629.09375 459.90625 653.390625 c 0
 451.46875 677.6875 439.90625 698.390625 424.75 715.34375 c 0
 409.75 732.296875 391.46875 745.265625 370.0625 754.171875 c 0
 348.65625 763.15625 325.0625 767.609375 299.59375 767.609375 c 0
 273.34375 767.609375 249.59375 763.15625 228.5 754.171875 c 0
 207.40625 745.265625 189.28125 732.296875 174.28125 715.34375 c 0
 159.125 698.390625 147.5625 677.6875 139.125 653.390625 c 0
 130.84375 629.09375 126.78125 601.59375 126.78125 570.8125 c 1
 126.78125 535.629882812 126.78125 500.448242188 126.78125 465.265625 c 1
 126.78125 434.484375 130.84375 406.984375 139.125 382.6875 c 0
 147.5625 358.390625 159.125 337.6875 174.28125 320.734375 c 0
 189.28125 303.78125 207.40625 290.8125 228.5 281.90625 c 0
 249.59375 272.921875 273.34375 268.46875 299.59375 268.46875 c 0
760.375 183 m 1
 760.375 406.359375 760.375 629.71875 760.375 853.078125 c 1
 856.364257812 853.078125 952.354492188 853.078125 1048.34375 853.078125 c 1
 1110.375 853.078125 1158.34375 834.875 1192.25 798.390625 c 0
 1226.3125 761.90625 1243.1875 712.921875 1243.1875 651.515625 c 256
 1243.1875 590.03125 1226.3125 541.046875 1192.25 504.5625 c 0
 1158.34375 468.15625 1110.375 449.875 1048.34375 449.875 c 1
 988.5 449.875 928.65625 449.875 868.8125 449.875 c 1
 868.8125 360.916992188 868.8125 271.958007812 868.8125 183 c 1
 832.666992188 183 796.520507812 183 760.375 183 c 1
868.8125 544.953125 m 1
 926.416992188 544.953125 984.020507812 544.953125 1041.625 544.953125 c 1
 1069.125 544.953125 1090.53125 552.140625 1105.84375 566.515625 c 0
 1121.3125 580.890625 1128.96875 601.59375 1128.96875 628.46875 c 1
 1128.96875 643.807617188 1128.96875 659.145507812 1128.96875 674.484375 c 1
 1128.96875 701.4375 1121.3125 722.0625 1105.84375 736.4375 c 0
 1090.53125 750.8125 1069.125 758.078125 1041.625 758.078125 c 1
 984.020507812 758.078125 926.416992188 758.078125 868.8125 758.078125 c 1
 868.8125 687.036132812 868.8125 615.995117188 868.8125 544.953125 c 1
1400.375 183 m 1
 1400.375 406.359375 1400.375 629.71875 1400.375 853.078125 c 1
 1436.52050781 853.078125 1472.66699219 853.078125 1508.8125 853.078125 c 1
 1508.8125 661.723632812 1508.8125 470.370117188 1508.8125 279.015625 c 1
 1599.69824219 279.015625 1690.58300781 279.015625 1781.46875 279.015625 c 1
 1781.46875 247.010742188 1781.46875 215.004882812 1781.46875 183 c 1
 1654.4375 183 1527.40625 183 1400.375 183 c 1
EndSplineSet
EndChar

StartChar: uniE10F
Encoding: 57615 57615 16
Width: 1792
VWidth: 1687
Flags: W
HStem: 183 96.0156<742.719 983.085 1340.88 1585.94> 474.875 95.9375<182.719 458.188 1468.24 1586.52> 757.062 96.0156<182.719 492.719 742.719 983.085 1378.58 1614.18>
VStem: 74.2812 108.438<183 474.875 570.812 757.062> 634.281 108.438<279.016 757.062> 1038.34 116.25<334.419 701.659> 1250.22 107.5<611.387 747.68> 1610.22 107.5<294.565 441.758>
DStem2: 1464.28 584.25 1446 481.594 0.978916 -0.204262<-84.3745 149.704>
LayerCount: 2
Fore
SplineSet
74.28125 183 m 1
 74.28125 406.359375 74.28125 629.71875 74.28125 853.078125 c 1
 213.760742188 853.078125 353.239257812 853.078125 492.71875 853.078125 c 1
 492.71875 821.073242188 492.71875 789.067382812 492.71875 757.0625 c 1
 389.385742188 757.0625 286.051757812 757.0625 182.71875 757.0625 c 1
 182.71875 694.979492188 182.71875 632.895507812 182.71875 570.8125 c 1
 274.541992188 570.8125 366.364257812 570.8125 458.1875 570.8125 c 1
 458.1875 538.833007812 458.1875 506.854492188 458.1875 474.875 c 1
 366.364257812 474.875 274.541992188 474.875 182.71875 474.875 c 1
 182.71875 377.583007812 182.71875 280.291992188 182.71875 183 c 1
 146.573242188 183 110.426757812 183 74.28125 183 c 1
634.28125 853.078125 m 1
 713.291992188 853.078125 792.301757812 853.078125 871.3125 853.078125 c 1
 914.28125 853.078125 953.03125 846.046875 988.03125 831.984375 c 0
 1022.875 817.84375 1052.5625 796.90625 1077.25 769.09375 c 0
 1101.9375 741.203125 1121 706.359375 1134.4375 664.40625 c 0
 1147.875 622.53125 1154.59375 573.703125 1154.59375 518.078125 c 256
 1154.59375 462.375 1147.875 413.546875 1134.4375 371.671875 c 0
 1121 329.71875 1101.9375 294.875 1077.25 266.984375 c 0
 1052.5625 239.171875 1022.875 218.234375 988.03125 204.09375 c 0
 953.03125 190.03125 914.28125 183 871.3125 183 c 1
 792.301757812 183 713.291992188 183 634.28125 183 c 1
 634.28125 406.359375 634.28125 629.71875 634.28125 853.078125 c 1
871.3125 279.015625 m 1
 921.3125 279.015625 961.625 294.71875 992.25 326.046875 c 0
 1023.03125 357.375 1038.34375 403.46875 1038.34375 464.25 c 1
 1038.34375 500.109375 1038.34375 535.96875 1038.34375 571.828125 c 1
 1038.34375 632.609375 1023.03125 678.703125 992.25 710.03125 c 0
 961.625 741.4375 921.3125 757.0625 871.3125 757.0625 c 1
 828.448242188 757.0625 785.583007812 757.0625 742.71875 757.0625 c 1
 742.71875 597.713867188 742.71875 438.364257812 742.71875 279.015625 c 1
 785.583007812 279.015625 828.448242188 279.015625 871.3125 279.015625 c 1
1474.90625 171.515625 m 0
 1418.5 171.515625 1370.6875 181.75 1331.3125 202.21875 c 0
 1291.9375 222.6875 1258.1875 250.1875 1230.0625 284.796875 c 1
 1255.01074219 308.15625 1279.95800781 331.515625 1304.90625 354.875 c 1
 1328.65625 326.046875 1354.75 304.25 1383.1875 289.5625 c 0
 1411.625 274.875 1444.125 267.453125 1480.6875 267.453125 c 0
 1523.5 267.453125 1555.84375 277.0625 1577.5625 296.28125 c 0
 1599.28125 315.5 1610.21875 341.4375 1610.21875 374.015625 c 0
 1610.21875 400.265625 1602.5625 421.046875 1587.25 436.4375 c 0
 1571.78125 451.828125 1544.59375 463.3125 1505.53125 470.96875 c 1
 1485.6875 474.510742188 1465.84375 478.051757812 1446 481.59375 c 1
 1380.84375 493.703125 1331.78125 515.1875 1299.125 545.890625 c 0
 1266.46875 576.59375 1250.21875 618.859375 1250.21875 672.609375 c 0
 1250.21875 702.0625 1255.84375 728.78125 1267.09375 752.765625 c 0
 1278.1875 776.75 1293.96875 796.90625 1314.125 813.234375 c 0
 1334.28125 829.5625 1358.65625 842.21875 1387.5625 851.125 c 0
 1416.3125 860.109375 1448.65625 864.5625 1484.4375 864.5625 c 0
 1535.0625 864.5625 1578.8125 855.8125 1616 838.234375 c 0
 1653.03125 820.578125 1684.75 795.1875 1711 761.90625 c 1
 1685.73925781 739.510742188 1660.47949219 717.114257812 1635.21875 694.71875 c 1
 1617.875 717.0625 1596.78125 735.03125 1571.78125 748.46875 c 0
 1546.9375 761.90625 1515.84375 768.625 1478.65625 768.625 c 0
 1440.375 768.625 1410.53125 760.890625 1389.4375 745.578125 c 0
 1368.34375 730.1875 1357.71875 707.765625 1357.71875 678.390625 c 0
 1357.71875 650.1875 1366.3125 629.25 1383.65625 615.5 c 0
 1401 601.75 1427.875 591.28125 1464.28125 584.25 c 1
 1484.125 580.109375 1503.96875 575.96875 1523.8125 571.828125 c 1
 1591 559.015625 1640.21875 537.21875 1671.15625 506.515625 c 0
 1702.25 475.8125 1717.71875 433.546875 1717.71875 379.796875 c 0
 1717.71875 348.46875 1712.25 319.953125 1701.46875 294.328125 c 0
 1690.53125 268.78125 1674.75 246.828125 1653.96875 228.625 c 0
 1633.03125 210.34375 1607.71875 196.28125 1577.5625 186.359375 c 0
 1547.5625 176.4375 1513.1875 171.515625 1474.90625 171.515625 c 0
EndSplineSet
EndChar

StartChar: uniE110
Encoding: 57616 57616 17
Width: 1792
VWidth: 1687
Flags: W
HStem: 99.2002 116.406<1160.36 1475.04> 470.001 112.793<1160.36 1447.48> 820.392 116.406<1160.36 1447.48>
VStem: 143.168 140.43<796.368 936.798> 716.801 136.816<799.981 936.798> 1024.81 135.547<215.606 470.001 582.794 820.392> 1475.98 142.773<609.386 793.799> 1505.96 142.871<244.11 441.498>
DStem2: 283.598 936.798 143.168 936.798 0.311738 -0.950168<0 736.986> 501.957 231.231 575.199 99.2002 0.291293 0.956634<0 737.551>
LayerCount: 2
Fore
SplineSet
417.97265625 99.2001953125 m 1xfc
 326.37109375 378.399414062 234.76953125 657.598632812 143.16796875 936.797851562 c 1
 189.977539062 936.797851562 236.788085938 936.797851562 283.59765625 936.797851562 c 1
 327.999023438 798.809570312 372.399414062 660.821289062 416.80078125 522.833007812 c 1
 443.590820312 425.631835938 470.381835938 328.431640625 497.171875 231.231445312 c 1
 498.766601562 231.231445312 500.362304688 231.231445312 501.95703125 231.231445312 c 1
 529.170898438 328.431640625 556.383789062 425.631835938 583.59765625 522.833007812 c 1
 627.999023438 660.821289062 672.399414062 798.809570312 716.80078125 936.797851562 c 1
 762.40625 936.797851562 808.01171875 936.797851562 853.6171875 936.797851562 c 1
 760.811523438 657.598632812 668.004882812 378.399414062 575.19921875 99.2001953125 c 1
 522.790039062 99.2001953125 470.381835938 99.2001953125 417.97265625 99.2001953125 c 1xfc
1024.80859375 936.797851562 m 1
 1148.40917969 936.797851562 1272.00878906 936.797851562 1395.609375 936.797851562 c 1
 1465.140625 936.797851562 1519.828125 917.168945312 1559.37890625 878.008789062 c 0
 1599.02734375 838.848632812 1618.75390625 786.407226562 1618.75390625 720.782226562 c 0xfe
 1618.75390625 689.629882812 1614.359375 662.969726562 1605.5703125 640.997070312 c 0
 1596.78125 619.024414062 1585.55078125 600.958007812 1571.9765625 586.993164062 c 0
 1558.40234375 573.028320312 1542.77734375 562.579101562 1525.19921875 555.840820312 c 0
 1507.62109375 549.004882812 1490.43359375 544.805664062 1473.5390625 543.243164062 c 1
 1473.5390625 540.833984375 1473.5390625 538.424804688 1473.5390625 536.016601562 c 1
 1490.43359375 535.235351562 1508.98828125 531.231445312 1529.3984375 524.004882812 c 0
 1549.80859375 516.778320312 1568.75390625 505.352539062 1586.4296875 489.825195312 c 0
 1604.0078125 474.200195312 1618.75390625 454.180664062 1630.765625 429.766601562 c 0
 1642.77734375 405.352539062 1648.83203125 375.567382812 1648.83203125 340.411132812 c 0xfd
 1648.83203125 306.817382812 1643.36328125 275.176757812 1632.62109375 245.586914062 c 0
 1621.78125 215.997070312 1606.7421875 190.411132812 1587.6015625 168.829101562 c 0
 1568.36328125 147.247070312 1545.609375 130.157226562 1519.14453125 117.754882812 c 0
 1492.77734375 105.352539062 1463.96875 99.2001953125 1432.81640625 99.2001953125 c 1
 1296.81347656 99.2001953125 1160.81152344 99.2001953125 1024.80859375 99.2001953125 c 1
 1024.80859375 378.399414062 1024.80859375 657.598632812 1024.80859375 936.797851562 c 1
1160.35546875 215.606445312 m 1
 1237.95996094 215.606445312 1315.56347656 215.606445312 1393.16796875 215.606445312 c 1
 1428.421875 215.606445312 1455.9609375 224.786132812 1475.98046875 243.243164062 c 0xfe
 1496 261.602539062 1505.9609375 287.969726562 1505.9609375 322.442382812 c 1
 1505.9609375 336.016601562 1505.9609375 349.590820312 1505.9609375 363.165039062 c 1xfd
 1505.9609375 397.637695312 1496 424.004882812 1475.98046875 442.364257812 c 0
 1455.9609375 460.821289062 1428.421875 470.000976562 1393.16796875 470.000976562 c 1
 1315.56347656 470.000976562 1237.95996094 470.000976562 1160.35546875 470.000976562 c 1
 1160.35546875 385.202148438 1160.35546875 300.404296875 1160.35546875 215.606445312 c 1
1160.35546875 582.793945312 m 1
 1230.375 582.793945312 1300.39453125 582.793945312 1370.4140625 582.793945312 c 1
 1404.0078125 582.793945312 1429.984375 591.387695312 1448.34375 608.575195312 c 0
 1466.80078125 625.762695312 1475.98046875 650.372070312 1475.98046875 682.403320312 c 1
 1475.98046875 695.196289062 1475.98046875 707.989257812 1475.98046875 720.782226562 c 1
 1475.98046875 752.813476562 1466.80078125 777.422851562 1448.34375 794.610351562 c 0
 1429.984375 811.797851562 1404.0078125 820.391601562 1370.4140625 820.391601562 c 1
 1300.39453125 820.391601562 1230.375 820.391601562 1160.35546875 820.391601562 c 1
 1160.35546875 741.192382812 1160.35546875 661.993164062 1160.35546875 582.793945312 c 1
EndSplineSet
EndChar

StartChar: uniE111
Encoding: 57617 57617 18
Width: 1792
VWidth: 1687
Flags: W
HStem: -247.66 88.2812<529.736 717.81 1048.08 1247.08> 66.2461 92.1094<1077.25 1236.62> 99.8398 87.3438<550.762 718.015> 354.215 91.1719<1056.64 1244.29> 629.84 90.2344<1027.95 1216.16 1322.72 1485.92> 1221.17 78.75<1171.98 1216.16>
VStem: 306.078 103.672<629.84 1142.5> 387.641 112.344<-127.222 67.6086> 722.719 103.672<787.262 1299.92> 747.641 111.406<-127.222 67.6086> 1216.16 106.562<720.074 1221.17> 1267.33 114.219<185.593 328.991> 1280.77 112.344<-126.27 38.5227>
DStem2: 645.922 929.371 486.547 1000.39 0.508638 -0.860981<-299.653 157.446> 986.703 1114.61 1052.95 1055.15 0.683543 0.72991<1.41729 229.335>
LayerCount: 2
Fore
SplineSet
623.8125 -247.66015625 m 0xbd40
 586.703125 -247.66015625 553.578125 -241.64453125 524.4375 -229.45703125 c 0
 495.296875 -217.26953125 470.6875 -199.84765625 450.53125 -177.11328125 c 0
 430.375 -154.37890625 414.828125 -127.03515625 403.96875 -95.08203125 c 0
 393.109375 -63.05078125 387.640625 -26.87890625 387.640625 13.43359375 c 0xbd40
 387.640625 62.02734375 394.984375 107.80859375 409.75 150.69921875 c 0xbe
 424.4375 193.58984375 443.34375 232.96484375 466.390625 268.74609375 c 0
 489.4375 304.60546875 515.140625 336.48046875 543.65625 364.29296875 c 0
 572.09375 392.10546875 600.140625 415.30859375 627.640625 433.90234375 c 1
 675.635742188 433.90234375 723.629882812 433.90234375 771.625 433.90234375 c 1
 733.890625 406.40234375 699.984375 379.83984375 669.90625 354.21484375 c 0
 639.828125 328.58984375 613.578125 302.41796875 591.15625 275.54296875 c 0
 568.734375 248.58984375 550.0625 220.15234375 534.984375 190.07421875 c 0
 519.984375 159.99609375 508.265625 127.02734375 499.984375 91.16796875 c 1
 502.223632812 90.54296875 504.463867188 89.91796875 506.703125 89.29296875 c 1
 513.734375 102.73046875 521.859375 115.30859375 531.15625 127.18359375 c 0
 540.453125 139.05859375 551.3125 149.44921875 563.8125 158.35546875 c 0xdd
 576.3125 167.33984375 590.53125 174.37109375 606.546875 179.52734375 c 0
 622.5625 184.60546875 641.078125 187.18359375 662.171875 187.18359375 c 0
 690.375 187.18359375 716.46875 182.41796875 740.453125 172.80859375 c 0
 764.4375 163.19921875 785.21875 149.29296875 802.875 131.01171875 c 0
 820.453125 112.80859375 834.203125 90.85546875 844.125 65.23046875 c 0
 854.046875 39.68359375 859.046875 11.16796875 859.046875 -20.16015625 c 0
 859.046875 -54.06640625 853.421875 -85.00390625 842.171875 -112.81640625 c 0
 831 -140.62890625 815.140625 -164.45703125 794.671875 -184.30078125 c 0
 774.203125 -204.14453125 749.4375 -219.69140625 720.296875 -230.86328125 c 0
 691.15625 -242.11328125 659.046875 -247.66015625 623.8125 -247.66015625 c 0xbd40
623.8125 -159.37890625 m 256
 662.875 -159.37890625 693.265625 -148.98828125 714.984375 -128.20703125 c 0
 736.78125 -107.34765625 747.640625 -76.80078125 747.640625 -36.48828125 c 1
 747.640625 -32.0087890625 747.640625 -27.529296875 747.640625 -23.05078125 c 1
 747.640625 17.26171875 736.78125 47.80859375 714.984375 68.58984375 c 0
 693.265625 89.44921875 662.875 99.83984375 623.8125 99.83984375 c 256
 584.75 99.83984375 554.359375 89.44921875 532.640625 68.58984375 c 0
 510.84375 47.80859375 499.984375 17.26171875 499.984375 -23.05078125 c 1
 499.984375 -27.529296875 499.984375 -32.0087890625 499.984375 -36.48828125 c 1
 499.984375 -76.80078125 510.84375 -107.34765625 532.640625 -128.20703125 c 0
 554.359375 -148.98828125 584.75 -159.37890625 623.8125 -159.37890625 c 256
1145.375 158.35546875 m 1xdc08
 1187.015625 158.35546875 1217.71875 167.18359375 1237.5625 184.76171875 c 0
 1257.40625 202.41796875 1267.328125 224.918945312 1267.328125 252.49609375 c 1
 1267.328125 254.736328125 1267.328125 256.975585938 1267.328125 259.21484375 c 1
 1267.328125 289.918945312 1257.71875 313.43359375 1238.5 329.76171875 c 0
 1219.359375 346.08984375 1193.421875 354.21484375 1160.765625 354.21484375 c 0
 1128.734375 354.21484375 1101.546875 347.02734375 1079.203125 332.65234375 c 0
 1056.78125 318.19921875 1037.875 298.19921875 1022.5625 272.65234375 c 1
 998.551757812 293.43359375 974.541992188 314.21484375 950.53125 334.99609375 c 1
 960.765625 349.76171875 972.328125 363.82421875 985.0625 377.26171875 c 0
 997.875 390.69921875 1012.953125 402.41796875 1030.21875 412.33984375 c 0
 1047.484375 422.26171875 1067.015625 430.23046875 1088.734375 436.32421875 c 0
 1110.53125 442.41796875 1135.453125 445.38671875 1163.65625 445.38671875 c 0
 1194.984375 445.38671875 1224.125 441.55859375 1251 433.90234375 c 0
 1277.875 426.24609375 1300.921875 414.83984375 1320.140625 399.83984375 c 0
 1339.359375 384.76171875 1354.359375 366.55859375 1365.21875 345.07421875 c 0
 1376.15625 323.66796875 1381.546875 299.528320312 1381.546875 272.65234375 c 0xdc10
 1381.546875 251.48046875 1378.1875 232.33984375 1371.46875 214.99609375 c 0
 1364.75 197.73046875 1355.453125 182.575195312 1343.65625 169.44921875 c 0
 1331.78125 156.325195312 1318.03125 145.622070312 1302.40625 137.26171875 c 0
 1286.703125 128.981445312 1270.21875 122.88671875 1252.953125 119.05859375 c 1
 1252.953125 117.444335938 1252.953125 115.830078125 1252.953125 114.21484375 c 1
 1272.09375 110.387695312 1290.21875 104.137695312 1307.171875 95.54296875 c 0
 1324.125 86.87109375 1339.046875 75.69921875 1351.78125 61.87109375 c 0
 1364.59375 48.12109375 1374.671875 31.79296875 1382.015625 12.96484375 c 0
 1389.4375 -5.94140625 1393.109375 -27.5029296875 1393.109375 -51.87890625 c 0
 1393.109375 -81.33203125 1387.328125 -108.049804688 1375.84375 -132.03515625 c 0
 1364.28125 -156.018554688 1348.109375 -176.643554688 1327.328125 -193.91015625 c 0
 1306.546875 -211.252929688 1281.390625 -224.456054688 1251.9375 -233.75390625 c 0
 1222.5625 -243.049804688 1189.90625 -247.66015625 1154.046875 -247.66015625 c 0
 1122.71875 -247.66015625 1095.140625 -244.299804688 1071.46875 -237.58203125 c 0
 1047.796875 -230.862304688 1026.859375 -221.95703125 1008.578125 -210.70703125 c 0
 990.375 -199.53515625 974.359375 -186.72265625 960.609375 -172.34765625 c 0
 946.859375 -157.97265625 934.828125 -143.05078125 924.59375 -127.66015625 c 1
 951.15625 -106.87890625 977.71875 -86.09765625 1004.28125 -65.31640625 c 1
 1012.640625 -78.75390625 1021.390625 -91.01953125 1030.6875 -102.26953125 c 0
 1039.984375 -113.44140625 1050.53125 -123.05078125 1062.40625 -131.01953125 c 0
 1074.203125 -139.065429688 1087.640625 -145.315429688 1102.71875 -149.76953125 c 0
 1117.71875 -154.22265625 1134.828125 -156.48828125 1154.046875 -156.48828125 c 0
 1194.984375 -156.48828125 1226.390625 -146.72265625 1248.109375 -127.19140625 c 0
 1269.90625 -107.66015625 1280.765625 -80.62890625 1280.765625 -46.09765625 c 1
 1280.765625 -43.857421875 1280.765625 -41.6181640625 1280.765625 -39.37890625 c 1
 1280.765625 -4.8466796875 1269.28125 21.40234375 1246.234375 39.37109375 c 0
 1223.1875 57.26171875 1190.53125 66.24609375 1148.265625 66.24609375 c 1
 1124.59375 66.24609375 1100.921875 66.24609375 1077.25 66.24609375 c 1
 1077.25 96.94921875 1077.25 127.65234375 1077.25 158.35546875 c 1
 1099.95800781 158.35546875 1122.66699219 158.35546875 1145.375 158.35546875 c 1xdc08
486.546875 1000.38671875 m 1
 461.911132812 1047.75683594 437.276367188 1095.12695312 412.640625 1142.49609375 c 1
 411.676757812 1142.49609375 410.713867188 1142.49609375 409.75 1142.49609375 c 1
 409.75 971.611328125 409.75 800.725585938 409.75 629.83984375 c 1
 375.192382812 629.83984375 340.635742188 629.83984375 306.078125 629.83984375 c 1
 306.078125 853.19921875 306.078125 1076.55859375 306.078125 1299.91796875 c 1
 346.390625 1299.91796875 386.703125 1299.91796875 427.015625 1299.91796875 c 1
 499.984375 1176.40234375 572.953125 1052.88671875 645.921875 929.37109375 c 1
 670.557617188 882.001953125 695.192382812 834.631835938 719.828125 787.26171875 c 1
 720.791992188 787.26171875 721.754882812 787.26171875 722.71875 787.26171875 c 1
 722.71875 958.147460938 722.71875 1129.03320312 722.71875 1299.91796875 c 1
 757.276367188 1299.91796875 791.833007812 1299.91796875 826.390625 1299.91796875 c 1
 826.390625 1076.55859375 826.390625 853.19921875 826.390625 629.83984375 c 1x9e80
 786.078125 629.83984375 745.765625 629.83984375 705.453125 629.83984375 c 1
 632.484375 753.35546875 559.515625 876.87109375 486.546875 1000.38671875 c 1
1027.953125 629.83984375 m 1
 1027.953125 659.91796875 1027.953125 689.99609375 1027.953125 720.07421875 c 1
 1090.6875 720.07421875 1153.421875 720.07421875 1216.15625 720.07421875 c 1
 1216.15625 887.10546875 1216.15625 1054.13671875 1216.15625 1221.16796875 c 1
 1213.578125 1221.16796875 1211 1221.16796875 1208.421875 1221.16796875 c 1
 1156.59863281 1165.83007812 1104.77636719 1110.49121094 1052.953125 1055.15234375 c 1
 1030.87011719 1074.97070312 1008.78613281 1094.78808594 986.703125 1114.60546875 c 1
 1043.65625 1176.37695312 1100.609375 1238.14746094 1157.5625 1299.91796875 c 1
 1212.61425781 1299.91796875 1267.66699219 1299.91796875 1322.71875 1299.91796875 c 1
 1322.71875 1106.63671875 1322.71875 913.35546875 1322.71875 720.07421875 c 1x9c20
 1377.12011719 720.07421875 1431.52050781 720.07421875 1485.921875 720.07421875 c 1
 1485.921875 689.99609375 1485.921875 659.91796875 1485.921875 629.83984375 c 1
 1333.265625 629.83984375 1180.609375 629.83984375 1027.953125 629.83984375 c 1
EndSplineSet
EndChar

StartChar: uniE112
Encoding: 57618 57618 19
Width: 1792
VWidth: 1687
Flags: W
HStem: 171.516 96.9531<151.634 379.752 774.678 990.363 1414.68 1630.36> 767.609 96.9531<178.808 399.181 774.597 989.432 1414.6 1629.43>
VStem: 47.4062 107.5<611.387 747.68> 407.406 107.5<294.565 441.758> 601.625 115.156<330.807 708.111> 1241.62 115.156<330.807 708.111>
DStem2: 261.469 584.25 243.188 481.594 0.978916 -0.204262<-84.3815 149.558>
LayerCount: 2
Fore
SplineSet
271.9375 171.515625 m 0
 215.6875 171.515625 167.875 181.75 128.5 202.21875 c 0
 89.125 222.6875 55.375 250.1875 27.25 284.796875 c 1
 52.1982421875 308.15625 77.1455078125 331.515625 102.09375 354.875 c 1
 125.6875 326.046875 151.78125 304.25 180.21875 289.5625 c 0
 208.8125 274.875 241.3125 267.453125 277.71875 267.453125 c 0
 320.6875 267.453125 352.875 277.0625 374.75 296.28125 c 0
 396.46875 315.5 407.40625 341.4375 407.40625 374.015625 c 0
 407.40625 400.265625 399.59375 421.046875 384.28125 436.4375 c 0
 368.96875 451.828125 341.78125 463.3125 302.71875 470.96875 c 1
 282.875 474.510742188 263.03125 478.051757812 243.1875 481.59375 c 1
 177.875 493.703125 128.96875 515.1875 96.3125 545.890625 c 0
 63.65625 576.59375 47.40625 618.859375 47.40625 672.609375 c 0
 47.40625 702.0625 52.875 728.78125 64.125 752.765625 c 0
 75.375 776.75 91 796.90625 111.15625 813.234375 c 0
 131.3125 829.5625 155.84375 842.21875 184.59375 851.125 c 0
 213.34375 860.109375 245.6875 864.5625 281.625 864.5625 c 0
 332.09375 864.5625 376 855.8125 413.03125 838.234375 c 0
 450.21875 820.578125 481.9375 795.1875 508.1875 761.90625 c 1
 482.875 739.510742188 457.5625 717.114257812 432.25 694.71875 c 1
 415.0625 717.0625 393.96875 735.03125 368.96875 748.46875 c 0
 343.96875 761.90625 312.875 768.625 275.84375 768.625 c 0
 237.40625 768.625 207.71875 760.890625 186.46875 745.578125 c 0
 165.375 730.1875 154.90625 707.765625 154.90625 678.390625 c 0
 154.90625 650.1875 163.5 629.25 180.84375 615.5 c 0
 198.03125 601.75 224.90625 591.28125 261.46875 584.25 c 1
 281.3125 580.109375 301.15625 575.96875 321 571.828125 c 1
 388.1875 559.015625 437.25 537.21875 468.34375 506.515625 c 0
 499.28125 475.8125 514.90625 433.546875 514.90625 379.796875 c 0
 514.90625 348.46875 509.4375 319.953125 498.5 294.328125 c 0
 487.71875 268.78125 471.78125 246.828125 451 228.625 c 0
 430.21875 210.34375 404.75 196.28125 374.75 186.359375 c 0
 344.59375 176.4375 310.375 171.515625 271.9375 171.515625 c 0
882.875 171.515625 m 0
 795.21875 171.515625 726.3125 201.046875 676.46875 260.265625 c 0
 626.46875 319.484375 601.625 405.421875 601.625 518.078125 c 0
 601.625 574.328125 608.03125 623.9375 620.84375 666.828125 c 0
 633.5 709.71875 652.09375 745.890625 676.46875 775.34375 c 0
 700.84375 804.796875 730.375 826.984375 765.21875 842.0625 c 0
 800.0625 857.0625 839.28125 864.5625 882.875 864.5625 c 0
 941.15625 864.5625 989.90625 851.828125 1029.28125 826.203125 c 0
 1068.65625 800.578125 1099.4375 762.84375 1121.9375 712.921875 c 1
 1091.52050781 696.28125 1061.10449219 679.640625 1030.6875 663 c 1
 1019.125 695.03125 1001.46875 720.421875 977.40625 739.328125 c 0
 953.34375 758.234375 921.9375 767.609375 882.875 767.609375 c 0
 831 767.609375 790.375 750.03125 761 714.875 c 0
 731.46875 679.640625 716.78125 630.96875 716.78125 568.9375 c 1
 716.78125 535.004882812 716.78125 501.073242188 716.78125 467.140625 c 1
 716.78125 405.109375 731.46875 356.4375 761 321.203125 c 0
 790.375 286.046875 831 268.46875 882.875 268.46875 c 0
 923.1875 268.46875 956 278.859375 981.3125 299.640625 c 0
 1006.46875 320.421875 1025.21875 347.140625 1037.40625 379.796875 c 1
 1066.52050781 362.192382812 1095.63574219 344.588867188 1124.75 326.984375 c 1
 1102.40625 278.390625 1071 240.265625 1030.6875 212.765625 c 0
 990.375 185.265625 941.15625 171.515625 882.875 171.515625 c 0
1522.875 171.515625 m 0
 1435.21875 171.515625 1366.3125 201.046875 1316.46875 260.265625 c 0
 1266.46875 319.484375 1241.625 405.421875 1241.625 518.078125 c 0
 1241.625 574.328125 1248.03125 623.9375 1260.84375 666.828125 c 0
 1273.5 709.71875 1292.09375 745.890625 1316.46875 775.34375 c 0
 1340.84375 804.796875 1370.375 826.984375 1405.21875 842.0625 c 0
 1440.0625 857.0625 1479.28125 864.5625 1522.875 864.5625 c 0
 1581.15625 864.5625 1629.90625 851.828125 1669.28125 826.203125 c 0
 1708.65625 800.578125 1739.4375 762.84375 1761.9375 712.921875 c 1
 1731.52050781 696.28125 1701.10449219 679.640625 1670.6875 663 c 1
 1659.125 695.03125 1641.46875 720.421875 1617.40625 739.328125 c 0
 1593.34375 758.234375 1561.9375 767.609375 1522.875 767.609375 c 0
 1471 767.609375 1430.375 750.03125 1401 714.875 c 0
 1371.46875 679.640625 1356.78125 630.96875 1356.78125 568.9375 c 1
 1356.78125 535.004882812 1356.78125 501.073242188 1356.78125 467.140625 c 1
 1356.78125 405.109375 1371.46875 356.4375 1401 321.203125 c 0
 1430.375 286.046875 1471 268.46875 1522.875 268.46875 c 0
 1563.1875 268.46875 1596 278.859375 1621.3125 299.640625 c 0
 1646.46875 320.421875 1665.21875 347.140625 1677.40625 379.796875 c 1
 1706.52050781 362.192382812 1735.63574219 344.588867188 1764.75 326.984375 c 1
 1742.40625 278.390625 1711 240.265625 1670.6875 212.765625 c 0
 1630.375 185.265625 1581.15625 171.515625 1522.875 171.515625 c 0
EndSplineSet
EndChar

StartChar: uniE113
Encoding: 57619 57619 20
Width: 1792
VWidth: 1687
Flags: W
HStem: 183 89.2969<228.172 451.245 1380.3 1712.48> 453.703 90.2344<848.188 1057.36> 763.781 89.2969<228.172 451.245 848.188 1057.36 1280.45 1586.7>
VStem: 79.5156 109.453<309.775 726.303> 490.375 109.453<309.775 726.303> 746.391 101.797<183 453.703 543.938 762.844> 1076.62 108.516<563.279 743.506>
DStem2: 1265.14 274.172 1380.3 272.297 0.548962 0.835847<61.6492 585.764>
LayerCount: 2
Fore
SplineSet
339.671875 171.515625 m 256
 299.359375 171.515625 263.1875 178.078125 231.234375 191.125 c 0
 199.203125 204.25 171.859375 224.953125 149.125 253.078125 c 0
 126.390625 281.203125 109.125 317.21875 97.25 361.046875 c 0
 85.453125 404.953125 79.515625 457.21875 79.515625 518.078125 c 256
 79.515625 578.859375 85.453125 631.125 97.25 675.03125 c 0
 109.125 718.859375 126.390625 754.875 149.125 783 c 0
 171.859375 811.125 199.203125 831.828125 231.234375 844.953125 c 0
 263.1875 858.078125 299.359375 864.5625 339.671875 864.5625 c 256
 379.984375 864.5625 416.15625 858.078125 448.1875 844.953125 c 0
 480.140625 831.828125 507.5625 811.125 530.21875 783 c 0
 552.953125 754.875 570.21875 718.859375 582.09375 675.03125 c 0
 593.890625 631.125 599.828125 578.859375 599.828125 518.078125 c 256
 599.828125 457.21875 593.890625 404.953125 582.09375 361.046875 c 0
 570.21875 317.21875 552.953125 281.203125 530.21875 253.078125 c 0
 507.5625 224.953125 480.140625 204.25 448.1875 191.125 c 0
 416.15625 178.078125 379.984375 171.515625 339.671875 171.515625 c 256
339.671875 261.75 m 256
 387.71875 261.75 424.828125 277.21875 451.078125 308.3125 c 0
 477.25 339.328125 490.375 382.375 490.375 437.375 c 1
 490.375 491.151367188 490.375 544.926757812 490.375 598.703125 c 1
 490.375 653.703125 477.25 696.75 451.078125 727.765625 c 0
 424.828125 758.859375 387.71875 774.328125 339.671875 774.328125 c 256
 291.703125 774.328125 254.59375 758.859375 228.34375 727.765625 c 0
 202.09375 696.75 188.96875 653.703125 188.96875 598.703125 c 1
 188.96875 544.926757812 188.96875 491.151367188 188.96875 437.375 c 1
 188.96875 382.375 202.09375 339.328125 228.34375 308.3125 c 0
 254.59375 277.21875 291.703125 261.75 339.671875 261.75 c 256
746.390625 183 m 1
 746.390625 406.359375 746.390625 629.71875 746.390625 853.078125 c 1
 834.723632812 853.078125 923.057617188 853.078125 1011.390625 853.078125 c 1
 1068.96875 853.078125 1112.328125 835.96875 1141.46875 801.75 c 0
 1170.53125 767.453125 1185.140625 718.078125 1185.140625 653.390625 c 256
 1185.140625 588.78125 1170.53125 539.328125 1141.46875 505.109375 c 0
 1112.328125 470.8125 1068.96875 453.703125 1011.390625 453.703125 c 1
 956.989257812 453.703125 902.588867188 453.703125 848.1875 453.703125 c 1
 848.1875 363.46875 848.1875 273.234375 848.1875 183 c 1
 814.254882812 183 780.323242188 183 746.390625 183 c 1
848.1875 543.9375 m 1
 899.698242188 543.9375 951.208007812 543.9375 1002.71875 543.9375 c 1
 1027.015625 543.9375 1045.453125 550.1875 1057.953125 562.6875 c 0
 1070.375 575.1875 1076.625 595.1875 1076.625 622.6875 c 1
 1076.625 643.15625 1076.625 663.625 1076.625 684.09375 c 1
 1076.625 711.671875 1070.375 731.671875 1057.953125 744.09375 c 0
 1045.453125 756.59375 1027.015625 762.84375 1002.71875 762.84375 c 1
 951.208007812 762.84375 899.698242188 762.84375 848.1875 762.84375 c 1
 848.1875 689.875 848.1875 616.90625 848.1875 543.9375 c 1
1712.484375 183 m 1
 1563.37011719 183 1414.25488281 183 1265.140625 183 c 1
 1265.140625 213.390625 1265.140625 243.78125 1265.140625 274.171875 c 1
 1372.328125 437.375 1479.515625 600.578125 1586.703125 763.78125 c 1
 1484.62011719 763.78125 1382.53613281 763.78125 1280.453125 763.78125 c 1
 1280.453125 793.546875 1280.453125 823.3125 1280.453125 853.078125 c 1
 1420.94824219 853.078125 1561.44238281 853.078125 1701.9375 853.078125 c 1
 1701.9375 822.6875 1701.9375 792.296875 1701.9375 761.90625 c 1
 1594.72363281 598.703125 1487.51074219 435.5 1380.296875 272.296875 c 1
 1491.02636719 272.296875 1601.75488281 272.296875 1712.484375 272.296875 c 1
 1712.484375 242.53125 1712.484375 212.765625 1712.484375 183 c 1
EndSplineSet
EndChar

StartChar: uniE114
Encoding: 57620 57620 21
Width: 1792
VWidth: 1687
Flags: W
HStem: -247.516 96.0156<794.758 1115.46> 44.3594 95.9375<794.758 1085.7> 326.547 96.0156<794.758 1115.46> 607.016 96.9531<1094.81 1318.51> 885.375 95.0781<415.93 652.317> 1193.58 95<415.93 652.317 1084.89 1328.46>
VStem: 46.3203 108.438<-247.516 4.38833 82.7188 422.562> 307.492 108.438<618.5 885.375 980.453 1193.58> 435.07 126.719<295.844 422.562> 450.461 130.547<-247.516 -116.969> 686.32 108.438<-151.5 44.3594 140.297 326.547 1002.69 1171.26> 917.727 116.172<767.663 1139.42> 1379.45 116.172<767.662 1139.42> 1404.68 108.516<-247.516 79.9207>
DStem2: 158.586 82.7188 246.945 65.4531 0.660468 0.750854<0 45.3946 144.153 437.782> 322.805 140.297 246.945 65.4531 0.545149 -0.838339<21.3897 394.71> 1298.12 422.562 1174.29 422.562 0.479608 -0.877483<0 340.284> 1464.21 123.969 1513.2 18.4219 0.477483 0.878641<0 339.836>
LayerCount: 2
Fore
SplineSet
246.9453125 65.453125 m 1xff70
 216.215820312 30.244140625 185.487304688 -4.9638671875 154.7578125 -40.171875 c 1
 154.7578125 -109.287109375 154.7578125 -178.401367188 154.7578125 -247.515625 c 1
 118.612304688 -247.515625 82.4658203125 -247.515625 46.3203125 -247.515625 c 5
 46.3203125 -24.15625 46.3203125 199.203125 46.3203125 422.5625 c 1
 82.4658203125 422.5625 118.612304688 422.5625 154.7578125 422.5625 c 1
 154.7578125 309.28125 154.7578125 196 154.7578125 82.71875 c 1
 156.034179688 82.71875 157.309570312 82.71875 158.5859375 82.71875 c 1
 190.590820312 123.369140625 222.596679688 164.020507812 254.6015625 204.671875 c 1
 314.7578125 277.301757812 374.9140625 349.931640625 435.0703125 422.5625 c 1
 477.309570312 422.5625 519.549804688 422.5625 561.7890625 422.5625 c 1xffb0
 482.127929688 328.473632812 402.465820312 234.384765625 322.8046875 140.296875 c 1
 408.872070312 11.025390625 494.940429688 -118.245117188 581.0078125 -247.515625 c 1
 537.4921875 -247.515625 493.9765625 -247.515625 450.4609375 -247.515625 c 1
 382.622070312 -143.193359375 314.784179688 -38.8701171875 246.9453125 65.453125 c 1xff70
686.3203125 -247.515625 m 1
 686.3203125 -24.15625 686.3203125 199.203125 686.3203125 422.5625 c 1
 829.3671875 422.5625 972.4140625 422.5625 1115.4609375 422.5625 c 1
 1115.4609375 390.556640625 1115.4609375 358.551757812 1115.4609375 326.546875 c 1
 1008.55957031 326.546875 901.659179688 326.546875 794.7578125 326.546875 c 1
 794.7578125 264.462890625 794.7578125 202.379882812 794.7578125 140.296875 c 1
 891.737304688 140.296875 988.715820312 140.296875 1085.6953125 140.296875 c 1
 1085.6953125 108.317382812 1085.6953125 76.337890625 1085.6953125 44.359375 c 1
 988.715820312 44.359375 891.737304688 44.359375 794.7578125 44.359375 c 1
 794.7578125 -20.927734375 794.7578125 -86.2138671875 794.7578125 -151.5 c 1
 901.659179688 -151.5 1008.55957031 -151.5 1115.4609375 -151.5 c 1
 1115.4609375 -183.505859375 1115.4609375 -215.510742188 1115.4609375 -247.515625 c 1
 972.4140625 -247.515625 829.3671875 -247.515625 686.3203125 -247.515625 c 1
1404.6796875 -247.515625 m 1xff34
 1404.6796875 -159.521484375 1404.6796875 -71.5263671875 1404.6796875 16.46875 c 1
 1327.8828125 151.833007812 1251.0859375 287.197265625 1174.2890625 422.5625 c 1
 1215.56542969 422.5625 1256.84082031 422.5625 1298.1171875 422.5625 c 1
 1352.51855469 323.03125 1406.91894531 223.5 1461.3203125 123.96875 c 1
 1462.28417969 123.96875 1463.24707031 123.96875 1464.2109375 123.96875 c 1
 1518.29980469 223.5 1572.38769531 323.03125 1626.4765625 422.5625 c 1
 1666.1640625 422.5625 1705.8515625 422.5625 1745.5390625 422.5625 c 1
 1668.09082031 287.848632812 1590.64355469 153.134765625 1513.1953125 18.421875 c 1
 1513.1953125 -70.224609375 1513.1953125 -158.870117188 1513.1953125 -247.515625 c 1
 1477.0234375 -247.515625 1440.8515625 -247.515625 1404.6796875 -247.515625 c 1xff34
307.4921875 618.5 m 1
 307.4921875 841.859375 307.4921875 1065.21875 307.4921875 1288.578125 c 1
 403.481445312 1288.578125 499.471679688 1288.578125 595.4609375 1288.578125 c 1
 657.5703125 1288.578125 705.5390625 1270.375 739.4453125 1233.890625 c 0
 773.4296875 1197.40625 790.3828125 1148.421875 790.3828125 1087.015625 c 256
 790.3828125 1025.53125 773.4296875 976.546875 739.4453125 940.0625 c 0
 705.5390625 903.65625 657.5703125 885.375 595.4609375 885.375 c 1
 535.6171875 885.375 475.7734375 885.375 415.9296875 885.375 c 1
 415.9296875 796.416015625 415.9296875 707.458007812 415.9296875 618.5 c 1
 379.784179688 618.5 343.637695312 618.5 307.4921875 618.5 c 1
415.9296875 980.453125 m 1
 473.534179688 980.453125 531.137695312 980.453125 588.7421875 980.453125 c 1
 616.2421875 980.453125 637.7265625 987.640625 653.0390625 1002.015625 c 0
 668.4296875 1016.390625 676.0859375 1037.09375 676.0859375 1063.96875 c 1
 676.0859375 1079.30664062 676.0859375 1094.64550781 676.0859375 1109.984375 c 1
 676.0859375 1136.9375 668.4296875 1157.5625 653.0390625 1171.9375 c 0
 637.7265625 1186.3125 616.2421875 1193.578125 588.7421875 1193.578125 c 1
 531.137695312 1193.578125 473.534179688 1193.578125 415.9296875 1193.578125 c 1
 415.9296875 1122.53613281 415.9296875 1051.49414062 415.9296875 980.453125 c 1
1206.7109375 607.015625 m 256
 1163.1171875 607.015625 1123.6640625 614.515625 1088.1171875 629.515625 c 0
 1052.5703125 644.59375 1022.1796875 666.624023438 996.9453125 695.765625 c 0
 971.6328125 724.90625 952.1015625 761.078125 938.3515625 804.28125 c 0
 924.6015625 847.484375 917.7265625 897.25 917.7265625 953.578125 c 256
 917.7265625 1009.828125 924.6015625 1059.59375 938.3515625 1102.796875 c 0
 952.1015625 1146 971.6328125 1182.171875 996.9453125 1211.3125 c 0
 1022.1796875 1240.453125 1052.5703125 1262.48339844 1088.1171875 1277.5625 c 0
 1123.6640625 1292.56152344 1163.1171875 1300.0625 1206.7109375 1300.0625 c 256
 1250.2265625 1300.0625 1289.6796875 1292.5625 1325.2265625 1277.5625 c 0
 1360.7734375 1262.48339844 1391.1640625 1240.45214844 1416.3984375 1211.3125 c 0
 1441.7109375 1182.171875 1461.2421875 1146 1474.9921875 1102.796875 c 0
 1488.7421875 1059.59375 1495.6171875 1009.82714844 1495.6171875 953.578125 c 256xff38
 1495.6171875 897.25 1488.7421875 847.483398438 1474.9921875 804.28125 c 0
 1461.2421875 761.077148438 1441.7109375 724.905273438 1416.3984375 695.765625 c 0
 1391.1640625 666.625 1360.7734375 644.59375 1325.2265625 629.515625 c 0
 1289.6796875 614.515625 1250.2265625 607.015625 1206.7109375 607.015625 c 256
1206.7109375 703.96875 m 0
 1232.2578125 703.96875 1255.7734375 708.421875 1277.2578125 717.40625 c 0
 1298.6640625 726.3125 1316.9453125 739.28125 1331.9453125 756.234375 c 0
 1347.0234375 773.186523438 1358.6640625 793.890625 1367.0234375 818.1875 c 0
 1375.3046875 842.484375 1379.4453125 869.983398438 1379.4453125 900.765625 c 1
 1379.4453125 935.947265625 1379.4453125 971.129882812 1379.4453125 1006.3125 c 1
 1379.4453125 1037.09375 1375.3046875 1064.59277344 1367.0234375 1088.890625 c 0
 1358.6640625 1113.18652344 1347.0234375 1133.890625 1331.9453125 1150.84375 c 0
 1316.9453125 1167.79589844 1298.6640625 1180.76464844 1277.2578125 1189.671875 c 0
 1255.7734375 1198.65625 1232.2578125 1203.109375 1206.7109375 1203.109375 c 0
 1180.4609375 1203.109375 1156.7890625 1198.65625 1135.6171875 1189.671875 c 0
 1114.5234375 1180.765625 1096.3984375 1167.796875 1081.3984375 1150.84375 c 0
 1066.3203125 1133.890625 1054.6796875 1113.18652344 1046.3203125 1088.890625 c 0
 1038.0390625 1064.59277344 1033.8984375 1037.09375 1033.8984375 1006.3125 c 1
 1033.8984375 971.129882812 1033.8984375 935.947265625 1033.8984375 900.765625 c 1
 1033.8984375 869.983398438 1038.0390625 842.484375 1046.3203125 818.1875 c 0
 1054.6796875 793.890625 1066.3203125 773.186523438 1081.3984375 756.234375 c 0
 1096.3984375 739.280273438 1114.5234375 726.311523438 1135.6171875 717.40625 c 0
 1156.7890625 708.420898438 1180.4609375 703.96875 1206.7109375 703.96875 c 0
EndSplineSet
EndChar

StartChar: uniE115
Encoding: 57621 57621 22
Width: 1792
VWidth: 1687
Flags: W
HStem: 15.5 139.688<684.242 1061.86> 460.461 135.352<684.242 1028.79> 880.93 139.688<684.242 1028.79>
VStem: 521.586 162.656<155.188 460.461 595.812 880.93> 1062.99 171.328<627.723 849.019> 1098.97 171.445<189.391 426.257>
LayerCount: 2
Fore
SplineSet
521.5859375 1020.6171875 m 5xf4
 669.90625 1020.6171875 818.2265625 1020.6171875 966.546875 1020.6171875 c 1
 1049.984375 1020.6171875 1115.609375 997.0625 1163.0703125 950.0703125 c 0
 1210.6484375 903.078125 1234.3203125 840.1484375 1234.3203125 761.3984375 c 0xf8
 1234.3203125 724.015625 1229.046875 692.0234375 1218.5 665.65625 c 0
 1207.953125 639.2890625 1194.4765625 617.609375 1178.1875 600.8515625 c 0
 1161.8984375 584.09375 1143.1484375 571.5546875 1122.0546875 563.46875 c 0
 1100.9609375 555.265625 1080.3359375 550.2265625 1060.0625 548.3515625 c 1
 1060.0625 545.4609375 1060.0625 542.5703125 1060.0625 539.6796875 c 1
 1080.3359375 538.7421875 1102.6015625 533.9375 1127.09375 525.265625 c 0
 1151.5859375 516.59375 1174.3203125 502.8828125 1195.53125 484.25 c 0
 1216.625 465.5 1234.3203125 441.4765625 1248.734375 412.1796875 c 0
 1263.1484375 382.8828125 1270.4140625 347.140625 1270.4140625 304.953125 c 0
 1270.4140625 264.640625 1263.8515625 226.671875 1250.9609375 191.1640625 c 0
 1237.953125 155.65625 1219.90625 124.953125 1196.9375 99.0546875 c 0
 1173.8515625 73.15625 1146.546875 52.6484375 1114.7890625 37.765625 c 0
 1083.1484375 22.8828125 1048.578125 15.5 1011.1953125 15.5 c 5
 847.9921875 15.5 684.7890625 15.5 521.5859375 15.5 c 1
 521.5859375 350.5390625 521.5859375 685.578125 521.5859375 1020.6171875 c 5xf4
684.2421875 155.1875 m 1
 777.3671875 155.1875 870.4921875 155.1875 963.6171875 155.1875 c 1
 1005.921875 155.1875 1038.96875 166.203125 1062.9921875 188.3515625 c 0xf8
 1087.015625 210.3828125 1098.96875 242.0234375 1098.96875 283.390625 c 1
 1098.96875 299.6796875 1098.96875 315.96875 1098.96875 332.2578125 c 1xf4
 1098.96875 373.625 1087.015625 405.265625 1062.9921875 427.296875 c 0
 1038.96875 449.4453125 1005.921875 460.4609375 963.6171875 460.4609375 c 1
 870.4921875 460.4609375 777.3671875 460.4609375 684.2421875 460.4609375 c 1
 684.2421875 358.703125 684.2421875 256.9453125 684.2421875 155.1875 c 1
684.2421875 595.8125 m 1
 768.265625 595.8125 852.2890625 595.8125 936.3125 595.8125 c 1
 976.625 595.8125 1007.796875 606.125 1029.828125 626.75 c 0
 1051.9765625 647.375 1062.9921875 676.90625 1062.9921875 715.34375 c 1
 1062.9921875 730.6953125 1062.9921875 746.046875 1062.9921875 761.3984375 c 1
 1062.9921875 799.8359375 1051.9765625 829.3671875 1029.828125 849.9921875 c 0
 1007.796875 870.6171875 976.625 880.9296875 936.3125 880.9296875 c 1
 852.2890625 880.9296875 768.265625 880.9296875 684.2421875 880.9296875 c 1
 684.2421875 785.890625 684.2421875 690.8515625 684.2421875 595.8125 c 1
EndSplineSet
EndChar

StartChar: uniE116
Encoding: 57622 57622 23
Width: 1792
VWidth: 1687
Flags: W
HStem: -66.1094 93.125<474.359 672.172> 322.719 99.8438<559.262 588.09> 607.016 95.9375<328.301 554.086> 618.5 124.766<964.387 984.548 1352.16 1364.12> 1204.12 95.9375<353.87 572.282>
VStem: 222.406 107.5<1046.89 1183.18> 279.516 110.312<-247.516 -137.203> 582.406 107.5<730.065 877.258> 746.859 110.391<1178.19 1288.58> 759.516 113.281<-247.516 -134.234> 980.922 103.75<-247.516 265.141> 1397.64 103.594<-90.0938 422.562> 1483.19 106.562<1182.02 1288.58>
DStem2: 279.516 -247.516 389.828 -247.516 0.303392 0.952866<33.468 224.101 320.706 631.909> 436.469 1019.75 418.188 917.094 0.978916 -0.204262<-84.378 149.631> 644.359 422.562 576.078 322.719 0.306233 -0.951957<74.137 385.061 481.942 673.15> 857.25 1288.58 746.859 1288.58 0.206752 -0.978393<0 557.355> 975.297 743.266 1027.17 618.5 0.24367 0.969858<0 458.809> 1320.77 52.0156 1161.39 123.031 0.508638 -0.860981<-299.653 157.446> 1229.75 1288.58 1167.33 1168.58 0.238997 -0.97102<101.604 559.948> 1364.12 744.281 1424.59 618.5 0.213693 0.976901<0 557.167>
LayerCount: 2
Fore
SplineSet
759.515625 -247.515625 m 1xcb60
 739.359375 -187.046875 719.203125 -126.578125 699.046875 -66.109375 c 1
 615.504882812 -66.109375 531.963867188 -66.109375 448.421875 -66.109375 c 1
 428.890625 -126.578125 409.359375 -187.046875 389.828125 -247.515625 c 1
 353.057617188 -247.515625 316.286132812 -247.515625 279.515625 -247.515625 c 1
 355.661132812 -24.15625 431.807617188 199.203125 507.953125 422.5625 c 1
 553.421875 422.5625 598.890625 422.5625 644.359375 422.5625 c 1
 720.504882812 199.203125 796.651367188 -24.15625 872.796875 -247.515625 c 1
 835.036132812 -247.515625 797.276367188 -247.515625 759.515625 -247.515625 c 1xcb60
576.078125 322.71875 m 1
 574.515625 322.71875 572.953125 322.71875 571.390625 322.71875 c 1
 539.046875 224.150390625 506.703125 125.583007812 474.359375 27.015625 c 1
 540.296875 27.015625 606.234375 27.015625 672.171875 27.015625 c 1
 640.140625 125.583007812 608.109375 224.150390625 576.078125 322.71875 c 1
1161.390625 123.03125 m 1
 1136.75488281 170.400390625 1112.12011719 217.770507812 1087.484375 265.140625 c 1
 1086.546875 265.140625 1085.609375 265.140625 1084.671875 265.140625 c 1
 1084.671875 94.2548828125 1084.671875 -76.630859375 1084.671875 -247.515625 c 1
 1050.08886719 -247.515625 1015.50488281 -247.515625 980.921875 -247.515625 c 1
 980.921875 -24.15625 980.921875 199.203125 980.921875 422.5625 c 1
 1021.234375 422.5625 1061.546875 422.5625 1101.859375 422.5625 c 1
 1174.828125 299.046875 1247.796875 175.53125 1320.765625 52.015625 c 1
 1345.40136719 4.6455078125 1370.03613281 -42.724609375 1394.671875 -90.09375 c 1
 1395.66113281 -90.09375 1396.65136719 -90.09375 1397.640625 -90.09375 c 1
 1397.640625 80.791015625 1397.640625 251.676757812 1397.640625 422.5625 c 1
 1432.171875 422.5625 1466.703125 422.5625 1501.234375 422.5625 c 1
 1501.234375 199.203125 1501.234375 -24.15625 1501.234375 -247.515625 c 1xc930
 1460.921875 -247.515625 1420.609375 -247.515625 1380.296875 -247.515625 c 1
 1307.328125 -124 1234.359375 -0.484375 1161.390625 123.03125 c 1
447.015625 607.015625 m 0xed20
 390.6875 607.015625 342.875 617.249023438 303.5 637.71875 c 0
 264.125 658.1875 230.375 685.6875 202.25 720.296875 c 1
 227.198242188 743.65625 252.145507812 767.015625 277.09375 790.375 c 1
 300.765625 761.546875 326.859375 739.75 355.296875 725.0625 c 0
 383.8125 710.375 416.3125 702.953125 452.796875 702.953125 c 0
 495.6875 702.953125 527.953125 712.5625 549.75 731.78125 c 0
 571.46875 751 582.40625 776.9375 582.40625 809.515625 c 0
 582.40625 835.765625 574.671875 856.546875 559.359375 871.9375 c 0
 543.96875 887.328125 516.78125 898.8125 477.71875 906.46875 c 1
 457.875 910.009765625 438.03125 913.551757812 418.1875 917.09375 c 1
 352.953125 929.203125 303.96875 950.6875 271.3125 981.390625 c 0
 238.65625 1012.09375 222.40625 1054.359375 222.40625 1108.109375 c 0
 222.40625 1137.5625 227.953125 1164.28125 239.203125 1188.265625 c 0
 250.375 1212.25 266.078125 1232.40625 286.234375 1248.734375 c 0
 306.390625 1265.0625 330.84375 1277.71875 359.671875 1286.625 c 0
 388.421875 1295.609375 420.765625 1300.0625 456.625 1300.0625 c 0
 507.171875 1300.0625 551 1291.3125 588.109375 1273.734375 c 0
 625.21875 1256.078125 656.9375 1230.6875 683.1875 1197.40625 c 1
 657.901367188 1175.00976562 632.614257812 1152.61425781 607.328125 1130.21875 c 1
 590.0625 1152.5625 568.96875 1170.53125 543.96875 1183.96875 c 0
 519.046875 1197.40625 487.953125 1204.125 450.84375 1204.125 c 0
 412.484375 1204.125 382.71875 1196.390625 361.546875 1181.078125 c 0
 340.453125 1165.6875 329.90625 1143.265625 329.90625 1113.890625 c 0
 329.90625 1085.6875 338.5 1064.75 355.84375 1051 c 0
 373.109375 1037.25 399.984375 1026.78125 436.46875 1019.75 c 1
 456.3125 1015.609375 476.15625 1011.46875 496 1007.328125 c 1
 563.1875 994.515625 612.328125 972.71875 643.34375 942.015625 c 0
 674.359375 911.3125 689.90625 869.046875 689.90625 815.296875 c 0
 689.90625 783.96875 684.4375 755.453125 673.578125 729.828125 c 0
 662.71875 704.28125 646.859375 682.328125 626.078125 664.125 c 0
 605.21875 645.84375 579.828125 631.78125 549.75 621.859375 c 0
 519.671875 611.936523438 485.375 607.015625 447.015625 607.015625 c 0xed20
905.21875 618.5 m 1xd9a8
 852.432617188 841.859375 799.645507812 1065.21875 746.859375 1288.578125 c 1
 783.65625 1288.578125 820.453125 1288.578125 857.25 1288.578125 c 1
 879.958007812 1181.05175781 902.666992188 1073.52539062 925.375 966 c 1
 941.078125 891.754882812 956.78125 817.509765625 972.484375 743.265625 c 1
 973.421875 743.265625 974.359375 743.265625 975.296875 743.265625 c 1
 993.239257812 817.509765625 1011.18261719 891.754882812 1029.125 966 c 1
 1055.66113281 1073.52539062 1082.19824219 1181.05175781 1108.734375 1288.578125 c 1
 1149.07324219 1288.578125 1189.41113281 1288.578125 1229.75 1288.578125 c 1
 1255.97363281 1181.05175781 1282.19824219 1073.52539062 1308.421875 966 c 1
 1326.02636719 892.09375 1343.62988281 818.1875 1361.234375 744.28125 c 1
 1362.19824219 744.28125 1363.16113281 744.28125 1364.125 744.28125 c 1
 1380.453125 818.1875 1396.78125 892.09375 1413.109375 966 c 1
 1436.46875 1073.52539062 1459.828125 1181.05175781 1483.1875 1288.578125 c 1
 1518.70800781 1288.578125 1554.22949219 1288.578125 1589.75 1288.578125 c 1
 1534.69824219 1065.21875 1479.64550781 841.859375 1424.59375 618.5 c 1
 1383.96875 618.5 1343.34375 618.5 1302.71875 618.5 c 1
 1274.22949219 734.020507812 1245.73925781 849.541015625 1217.25 965.0625 c 1
 1200.609375 1032.90039062 1183.96875 1100.73925781 1167.328125 1168.578125 c 1
 1166.67675781 1168.578125 1166.02636719 1168.578125 1165.375 1168.578125 c 1
 1148.421875 1100.73925781 1131.46875 1032.90039062 1114.515625 965.0625 c 1
 1085.40136719 849.541015625 1056.28613281 734.020507812 1027.171875 618.5 c 1
 986.520507812 618.5 945.870117188 618.5 905.21875 618.5 c 1xd9a8
EndSplineSet
EndChar

StartChar: uniE117
Encoding: 57623 57623 24
Width: 1792
VWidth: 1687
Flags: W
HStem: 624.17 96.0156<520.383 793.039>
VStem: 280.539 103.75<-241.846 270.811> 411.945 108.438<720.186 1294.25> 697.258 103.594<-84.4238 428.232> 938.195 120<-241.846 -121.846> 945.852 127.656<300.576 428.232> 1050.3 108.516<624.17 951.606> 1383.66 127.656<-241.846 -114.189 300.576 428.232>
DStem2: 620.383 57.6855 461.008 128.701 0.508638 -0.860981<-299.653 157.446> 943.742 1294.25 819.914 1294.25 0.479608 -0.877483<0 340.284> 938.195 -241.846 1058.2 -241.846 0.552681 0.833393<66.3217 372.475 510.607 804.036> 1073.51 428.232 945.852 428.232 0.546973 -0.83715<0 292.459 418.391 730.603> 1109.84 995.654 1158.82 890.107 0.477483 0.878641<0 339.836>
LayerCount: 2
Fore
SplineSet
461.0078125 128.701171875 m 1xf1
 436.372070312 176.071289062 411.737304688 223.440429688 387.1015625 270.810546875 c 1
 386.1640625 270.810546875 385.2265625 270.810546875 384.2890625 270.810546875 c 1
 384.2890625 99.9248046875 384.2890625 -70.9599609375 384.2890625 -241.845703125 c 1
 349.706054688 -241.845703125 315.122070312 -241.845703125 280.5390625 -241.845703125 c 1
 280.5390625 -18.486328125 280.5390625 204.873046875 280.5390625 428.232421875 c 1
 320.8515625 428.232421875 361.1640625 428.232421875 401.4765625 428.232421875 c 1
 474.4453125 304.716796875 547.4140625 181.201171875 620.3828125 57.685546875 c 1
 645.018554688 10.3154296875 669.653320312 -37.0537109375 694.2890625 -84.423828125 c 1
 695.278320312 -84.423828125 696.268554688 -84.423828125 697.2578125 -84.423828125 c 1
 697.2578125 86.4619140625 697.2578125 257.346679688 697.2578125 428.232421875 c 1
 731.7890625 428.232421875 766.3203125 428.232421875 800.8515625 428.232421875 c 1
 800.8515625 204.873046875 800.8515625 -18.486328125 800.8515625 -241.845703125 c 1
 760.5390625 -241.845703125 720.2265625 -241.845703125 679.9140625 -241.845703125 c 1
 606.9453125 -118.330078125 533.9765625 5.185546875 461.0078125 128.701171875 c 1xf1
1511.3203125 -241.845703125 m 1
 1468.76855469 -241.845703125 1426.21582031 -241.845703125 1383.6640625 -241.845703125 c 1
 1329.54980469 -152.887695312 1275.43457031 -63.9287109375 1221.3203125 25.029296875 c 1
 1220.3828125 25.029296875 1219.4453125 25.029296875 1218.5078125 25.029296875 c 1
 1165.0703125 -63.9287109375 1111.6328125 -152.887695312 1058.1953125 -241.845703125 c 1
 1018.1953125 -241.845703125 978.1953125 -241.845703125 938.1953125 -241.845703125 c 1xf9
 1010.48730469 -127.600585938 1082.77832031 -13.3564453125 1155.0703125 100.888671875 c 1
 1085.33105469 210.002929688 1015.59082031 319.118164062 945.8515625 428.232421875 c 1
 988.403320312 428.232421875 1030.95605469 428.232421875 1073.5078125 428.232421875 c 1xf5
 1124.39355469 345.029296875 1175.27832031 261.826171875 1226.1640625 178.623046875 c 1
 1226.7890625 178.623046875 1227.4140625 178.623046875 1228.0390625 178.623046875 c 1
 1279.54980469 261.826171875 1331.05957031 345.029296875 1382.5703125 428.232421875 c 1
 1422.5703125 428.232421875 1462.5703125 428.232421875 1502.5703125 428.232421875 c 1
 1432.20605469 319.430664062 1361.84082031 210.627929688 1291.4765625 101.826171875 c 1
 1364.7578125 -12.7314453125 1438.0390625 -127.288085938 1511.3203125 -241.845703125 c 1
411.9453125 624.169921875 m 1
 411.9453125 847.529296875 411.9453125 1070.88867188 411.9453125 1294.24804688 c 1
 448.090820312 1294.24804688 484.237304688 1294.24804688 520.3828125 1294.24804688 c 1
 520.3828125 1102.89355469 520.3828125 911.540039062 520.3828125 720.185546875 c 1
 611.268554688 720.185546875 702.153320312 720.185546875 793.0390625 720.185546875 c 1
 793.0390625 688.180664062 793.0390625 656.174804688 793.0390625 624.169921875 c 1
 666.0078125 624.169921875 538.9765625 624.169921875 411.9453125 624.169921875 c 1
1050.3046875 624.169921875 m 1xf3
 1050.3046875 712.165039062 1050.3046875 800.159179688 1050.3046875 888.154296875 c 1
 973.5078125 1023.51855469 896.7109375 1158.88378906 819.9140625 1294.24804688 c 1
 861.190429688 1294.24804688 902.465820312 1294.24804688 943.7421875 1294.24804688 c 1
 998.143554688 1194.71679688 1052.54394531 1095.18554688 1106.9453125 995.654296875 c 1
 1107.90917969 995.654296875 1108.87207031 995.654296875 1109.8359375 995.654296875 c 1
 1163.92480469 1095.18554688 1218.01269531 1194.71679688 1272.1015625 1294.24804688 c 1
 1311.7890625 1294.24804688 1351.4765625 1294.24804688 1391.1640625 1294.24804688 c 1
 1313.71582031 1159.53417969 1236.26855469 1024.82128906 1158.8203125 890.107421875 c 1
 1158.8203125 801.461914062 1158.8203125 712.815429688 1158.8203125 624.169921875 c 1
 1122.6484375 624.169921875 1086.4765625 624.169921875 1050.3046875 624.169921875 c 1xf3
EndSplineSet
EndChar

StartChar: uniE118
Encoding: 57624 57624 25
Width: 1792
VWidth: 1687
Flags: W
HStem: -60.4395 93.125<1083.51 1281.16> 28.8574 91.25<418.508 570.842> 333.232 95<418.508 654.817 1169.79 1195.72> 624.17 96.0156<609.465 629.562 1148.12 1468.74> 916.045 95.9375<1148.12 1439.05> 1198.23 96.0156<1148.12 1468.74>
VStem: 310.07 108.438<-241.846 28.8574 120.107 333.232> 334.367 112.344<1181.9 1294.25> 678.664 114.219<142.348 310.913> 793.273 109.375<1184.87 1294.25> 888.508 110.469<-241.846 -131.377> 1039.68 108.438<720.186 916.045 1011.98 1198.23> 1368.51 113.281<-241.846 -128.564>
DStem2: 446.711 1294.25 334.367 1294.25 0.289596 -0.957149<0 589.723> 662.258 40.4199 551.945 28.8574 0.456936 -0.8895<0 262.07> 621.398 729.795 679.992 624.17 0.291293 0.956634<0 590.041> 888.508 -241.846 998.977 -241.846 0.303155 0.952941<33.4892 224.122 320.727 631.883> 1253.35 428.232 1185.23 328.389 0.305997 -0.952033<74.2085 385.084>
LayerCount: 2
Fore
SplineSet
418.5078125 -241.845703125 m 1x7e98
 382.362304688 -241.845703125 346.215820312 -241.845703125 310.0703125 -241.845703125 c 1
 310.0703125 -18.486328125 310.0703125 204.873046875 310.0703125 428.232421875 c 1
 406.372070312 428.232421875 502.674804688 428.232421875 598.9765625 428.232421875 c 1
 659.1328125 428.232421875 706.4765625 410.185546875 741.0078125 374.013671875 c 0
 775.5390625 337.841796875 792.8828125 288.701171875 792.8828125 226.669921875 c 0
 792.8828125 178.623046875 781.7890625 138.779296875 759.7578125 107.138671875 c 0
 737.7265625 75.419921875 705.2265625 53.232421875 662.2578125 40.419921875 c 1
 710.590820312 -53.6689453125 758.924804688 -147.756835938 807.2578125 -241.845703125 c 1
 766.9453125 -241.845703125 726.6328125 -241.845703125 686.3203125 -241.845703125 c 1
 641.528320312 -151.611328125 596.737304688 -61.376953125 551.9453125 28.857421875 c 1
 507.465820312 28.857421875 462.987304688 28.857421875 418.5078125 28.857421875 c 1
 418.5078125 -61.376953125 418.5078125 -151.611328125 418.5078125 -241.845703125 c 1x7e98
591.3203125 120.107421875 m 1
 618.8203125 120.107421875 640.2265625 127.294921875 655.5390625 141.669921875 c 0
 671.0078125 156.044921875 678.6640625 176.748046875 678.6640625 203.623046875 c 1
 678.6640625 218.961914062 678.6640625 234.299804688 678.6640625 249.638671875 c 1
 678.6640625 276.591796875 671.0078125 297.216796875 655.5390625 311.591796875 c 0
 640.2265625 325.966796875 618.8203125 333.232421875 591.3203125 333.232421875 c 1
 533.715820312 333.232421875 476.112304688 333.232421875 418.5078125 333.232421875 c 1
 418.5078125 262.190429688 418.5078125 191.149414062 418.5078125 120.107421875 c 1
 476.112304688 120.107421875 533.715820312 120.107421875 591.3203125 120.107421875 c 1
1368.5078125 -241.845703125 m 1
 1348.3515625 -181.376953125 1328.1953125 -120.908203125 1308.0390625 -60.439453125 c 1
 1224.54980469 -60.439453125 1141.05957031 -60.439453125 1057.5703125 -60.439453125 c 1
 1038.0390625 -120.908203125 1018.5078125 -181.376953125 998.9765625 -241.845703125 c 5
 962.153320312 -241.845703125 925.331054688 -241.845703125 888.5078125 -241.845703125 c 1xbcb8
 964.706054688 -18.486328125 1040.90332031 204.873046875 1117.1015625 428.232421875 c 5
 1162.51855469 428.232421875 1207.93457031 428.232421875 1253.3515625 428.232421875 c 1
 1329.49707031 204.873046875 1405.64355469 -18.486328125 1481.7890625 -241.845703125 c 1
 1444.02832031 -241.845703125 1406.26855469 -241.845703125 1368.5078125 -241.845703125 c 1
1185.2265625 328.388671875 m 1
 1183.61230469 328.388671875 1181.99707031 328.388671875 1180.3828125 328.388671875 c 1
 1148.09082031 229.821289062 1115.79980469 131.252929688 1083.5078125 32.685546875 c 1
 1149.39355469 32.685546875 1215.27832031 32.685546875 1281.1640625 32.685546875 c 1
 1249.18457031 131.252929688 1217.20605469 229.821289062 1185.2265625 328.388671875 c 1
554.2109375 624.169921875 m 1
 480.9296875 847.529296875 407.6484375 1070.88867188 334.3671875 1294.24804688 c 1
 371.815429688 1294.24804688 409.262695312 1294.24804688 446.7109375 1294.24804688 c 1
 482.231445312 1183.85742188 517.752929688 1073.46679688 553.2734375 963.076171875 c 1
 574.6796875 885.315429688 596.0859375 807.555664062 617.4921875 729.794921875 c 1
 618.793945312 729.794921875 620.096679688 729.794921875 621.3984375 729.794921875 c 1
 643.168945312 807.555664062 664.940429688 885.315429688 686.7109375 963.076171875 c 1
 722.231445312 1073.46679688 757.752929688 1183.85742188 793.2734375 1294.24804688 c 1
 829.731445312 1294.24804688 866.190429688 1294.24804688 902.6484375 1294.24804688 c 1x3dd8
 828.4296875 1070.88867188 754.2109375 847.529296875 679.9921875 624.169921875 c 1
 638.065429688 624.169921875 596.137695312 624.169921875 554.2109375 624.169921875 c 1
1039.6796875 624.169921875 m 5
 1039.6796875 847.529296875 1039.6796875 1070.88867188 1039.6796875 1294.24804688 c 1
 1182.70019531 1294.24804688 1325.72167969 1294.24804688 1468.7421875 1294.24804688 c 1
 1468.7421875 1262.24316406 1468.7421875 1230.23730469 1468.7421875 1198.23242188 c 1
 1361.8671875 1198.23242188 1254.9921875 1198.23242188 1148.1171875 1198.23242188 c 1
 1148.1171875 1136.14941406 1148.1171875 1074.06542969 1148.1171875 1011.98242188 c 1
 1245.09667969 1011.98242188 1342.07519531 1011.98242188 1439.0546875 1011.98242188 c 1
 1439.0546875 980.002929688 1439.0546875 948.024414062 1439.0546875 916.044921875 c 1
 1342.07519531 916.044921875 1245.09667969 916.044921875 1148.1171875 916.044921875 c 1
 1148.1171875 850.758789062 1148.1171875 785.471679688 1148.1171875 720.185546875 c 1
 1254.9921875 720.185546875 1361.8671875 720.185546875 1468.7421875 720.185546875 c 1
 1468.7421875 688.180664062 1468.7421875 656.174804688 1468.7421875 624.169921875 c 1
 1325.72167969 624.169921875 1182.70019531 624.169921875 1039.6796875 624.169921875 c 5
EndSplineSet
EndChar

StartChar: uniE119
Encoding: 57625 57625 26
Width: 1792
VWidth: 1687
Flags: W
HStem: 99.2002 112.793<1049.91 1285.26 1418.46 1622.37> 838.36 98.4375<1239.05 1285.26>
VStem: 169.633 150<99.2002 249.2> 179.203 159.57<777.228 936.798> 726.469 159.57<99.2002 258.771 777.228 936.798> 1285.26 133.203<211.993 838.36>
DStem2: 169.633 99.2002 319.633 99.2002 0.552681 0.833393<82.9021 411.831 638.258 1005.04> 338.773 936.798 179.203 936.798 0.546973 -0.83715<0 365.574 522.989 913.254> 998.344 705.157 1081.16 630.841 0.683539 0.729914<1.88118 286.669>
LayerCount: 2
Fore
SplineSet
886.0390625 99.2001953125 m 1xdc
 832.848632812 99.2001953125 779.659179688 99.2001953125 726.46875 99.2001953125 c 1
 658.825195312 210.397460938 591.182617188 321.595703125 523.5390625 432.793945312 c 1
 522.3671875 432.793945312 521.1953125 432.793945312 520.0234375 432.793945312 c 1
 453.2265625 321.595703125 386.4296875 210.397460938 319.6328125 99.2001953125 c 1
 269.6328125 99.2001953125 219.6328125 99.2001953125 169.6328125 99.2001953125 c 1xec
 259.997070312 242.005859375 350.362304688 384.811523438 440.7265625 527.618164062 c 1
 353.551757812 664.010742188 266.377929688 800.404296875 179.203125 936.797851562 c 1
 232.393554688 936.797851562 285.583007812 936.797851562 338.7734375 936.797851562 c 1
 402.379882812 832.793945312 465.987304688 728.790039062 529.59375 624.786132812 c 1
 530.375 624.786132812 531.15625 624.786132812 531.9375 624.786132812 c 1
 596.325195312 728.790039062 660.713867188 832.793945312 725.1015625 936.797851562 c 1
 775.1015625 936.797851562 825.1015625 936.797851562 875.1015625 936.797851562 c 1
 787.145507812 800.794921875 699.190429688 664.791992188 611.234375 528.790039062 c 1
 702.8359375 385.592773438 794.4375 242.396484375 886.0390625 99.2001953125 c 1xdc
1049.90625 99.2001953125 m 1
 1049.90625 136.797851562 1049.90625 174.395507812 1049.90625 211.993164062 c 1
 1128.35644531 211.993164062 1206.80761719 211.993164062 1285.2578125 211.993164062 c 1
 1285.2578125 420.782226562 1285.2578125 629.571289062 1285.2578125 838.360351562 c 1
 1282.00292969 838.360351562 1278.74707031 838.360351562 1275.4921875 838.360351562 c 1
 1210.71386719 769.186523438 1145.93457031 700.013671875 1081.15625 630.840820312 c 1
 1053.55175781 655.612304688 1025.94824219 680.384765625 998.34375 705.157226562 c 1
 1069.56738281 782.370117188 1140.79199219 859.583984375 1212.015625 936.797851562 c 1
 1280.83105469 936.797851562 1349.64550781 936.797851562 1418.4609375 936.797851562 c 1
 1418.4609375 695.196289062 1418.4609375 453.594726562 1418.4609375 211.993164062 c 1
 1486.4296875 211.993164062 1554.3984375 211.993164062 1622.3671875 211.993164062 c 1
 1622.3671875 174.395507812 1622.3671875 136.797851562 1622.3671875 99.2001953125 c 1
 1431.546875 99.2001953125 1240.7265625 99.2001953125 1049.90625 99.2001953125 c 1
EndSplineSet
EndChar

StartChar: uniE11A
Encoding: 57626 57626 27
Width: 1792
Flags: W
HStem: -253.3 85.3906<331.166 506.082> -61.0391 130.176<891.389 1021.56> 95.1377 85.4687<356.078 505.623> 117.311 130.176<1455.12 1585.3> 612.716 89.2188<1388.21 1579.14> 624.2 92.1875<328.559 354.926> 897.794 85.4688<802.406 938.743> 1204.98 89.2969<802.406 1011.58 1380.73 1582.23>
VStem: 82.0938 106.562<1187.72 1294.28> 202.297 107.5<-147.64 75.4877> 493.891 104.688<1189.59 1294.28> 526.75 107.5<-147.355 74.3454> 700.609 101.797<624.2 897.794 983.263 1204.98> 1030.84 108.516<1002.53 1185.72> 1187.45 101.78<-25.0879 211.535> 1233.73 109.453<750.447 1168.03>
DStem2: 188.656 1294.28 82.0938 1294.28 0.271727 -0.962374<0 593.586> 891.389 69.1366 891.389 -61.0391 0.717299 0.696766<0 311.586> 1024.12 905.45 922.406 897.794 0.413517 -0.910496<0 262.054> 1289.23 -25.0879 1187.45 -248.968 0.735691 0.677318<0 314.262>
LayerCount: 2
Fore
SplineSet
418.234375 -253.330078125 m 0xe3dc
 346.59375 -253.330078125 292.6875 -231.298828125 256.515625 -187.158203125 c 0
 220.34375 -142.939453125 202.296875 -78.642578125 202.296875 5.810546875 c 0
 202.296875 46.123046875 207.375 86.435546875 217.609375 126.826171875 c 0
 227.84375 167.138671875 242.609375 205.654296875 261.75 242.451171875 c 0
 280.96875 279.248046875 303.859375 313.701171875 330.421875 345.654296875 c 0
 356.984375 377.685546875 386.59375 405.185546875 419.25 428.232421875 c 1
 465.004882812 428.232421875 510.760742188 428.232421875 556.515625 428.232421875 c 1
 517.453125 398.154296875 483.859375 369.482421875 455.734375 342.294921875 c 0
 427.53125 315.107421875 403.703125 288.076171875 384.171875 261.201171875 c 0
 364.640625 234.326171875 348.859375 206.669921875 336.671875 178.154296875 c 0
 324.484375 149.638671875 315.1875 118.779296875 308.859375 85.498046875 c 1
 313 85.498046875 317.140625 85.498046875 321.28125 85.498046875 c 1
 332.21875 116.201171875 349.484375 139.716796875 373.15625 156.044921875 c 0
 396.828125 172.373046875 424.953125 180.576171875 457.609375 180.576171875 c 0
 511.984375 180.576171875 555.03125 162.919921875 586.75 127.763671875 c 0
 618.390625 92.529296875 634.25 40.732421875 634.25 -27.783203125 c 0
 634.25 -98.798828125 615.890625 -154.189453125 579.09375 -193.876953125 c 0
 542.296875 -233.564453125 488.625 -253.330078125 418.234375 -253.330078125 c 0xe3dc
418.234375 -167.939453125 m 256
 490.578125 -167.939453125 526.75 -128.251953125 526.75 -48.876953125 c 1
 526.75 -40.5703125 526.75 -32.2626953125 526.75 -23.955078125 c 1
 526.75 55.419921875 490.578125 95.107421875 418.234375 95.107421875 c 256
 345.96875 95.107421875 309.796875 55.419921875 309.796875 -23.955078125 c 1
 309.796875 -32.2626953125 309.796875 -40.5703125 309.796875 -48.876953125 c 1
 309.796875 -128.251953125 345.96875 -167.939453125 418.234375 -167.939453125 c 256
278.890625 624.169921875 m 1xc7ec
 213.291992188 847.529296875 147.692382812 1070.88867188 82.09375 1294.24804688 c 1
 117.614257812 1294.24804688 153.135742188 1294.24804688 188.65625 1294.24804688 c 1
 228.317382812 1153.77929688 267.979492188 1013.31054688 307.640625 872.841796875 c 1
 316.9375 820.6796875 326.234375 768.518554688 335.53125 716.357421875 c 1
 339.671875 716.357421875 343.8125 716.357421875 347.953125 716.357421875 c 1
 357.25 768.518554688 366.546875 820.6796875 375.84375 872.841796875 c 1
 415.192382812 1013.31054688 454.541992188 1153.77929688 493.890625 1294.24804688 c 1
 528.786132812 1294.24804688 563.682617188 1294.24804688 598.578125 1294.24804688 c 1
 533.291992188 1070.88867188 468.004882812 847.529296875 402.71875 624.169921875 c 1
 361.442382812 624.169921875 320.166992188 624.169921875 278.890625 624.169921875 c 1xc7ec
802.40625 624.169921875 m 1
 768.473632812 624.169921875 734.541992188 624.169921875 700.609375 624.169921875 c 1
 700.609375 847.529296875 700.609375 1070.88867188 700.609375 1294.24804688 c 1
 788.942382812 1294.24804688 877.276367188 1294.24804688 965.609375 1294.24804688 c 1
 1023.1875 1294.24804688 1066.546875 1277.13867188 1095.6875 1242.91992188 c 0
 1124.75 1208.62304688 1139.359375 1159.56054688 1139.359375 1095.49804688 c 0
 1139.359375 1043.70117188 1129.75 1001.74804688 1110.53125 969.794921875 c 0
 1091.3125 937.763671875 1062.5625 916.357421875 1024.125 905.419921875 c 1
 1066.703125 811.669921875 1109.28125 717.919921875 1151.859375 624.169921875 c 1
 1114.09863281 624.169921875 1076.33886719 624.169921875 1038.578125 624.169921875 c 1
 999.854492188 715.3671875 961.129882812 806.565429688 922.40625 897.763671875 c 1
 882.40625 897.763671875 842.40625 897.763671875 802.40625 897.763671875 c 1
 802.40625 806.565429688 802.40625 715.3671875 802.40625 624.169921875 c 1
956.9375 983.232421875 m 1
 981.234375 983.232421875 999.671875 989.482421875 1012.171875 1001.90429688 c 0
 1024.59375 1014.40429688 1030.84375 1034.71679688 1030.84375 1062.91992188 c 1
 1030.84375 1083.70117188 1030.84375 1104.48242188 1030.84375 1125.26367188 c 1
 1030.84375 1153.46679688 1024.59375 1173.77929688 1012.171875 1186.27929688 c 0
 999.671875 1198.70117188 981.234375 1204.95117188 956.9375 1204.95117188 c 1
 905.426757812 1204.95117188 853.916992188 1204.95117188 802.40625 1204.95117188 c 1
 802.40625 1131.04492188 802.40625 1057.13867188 802.40625 983.232421875 c 1
 853.916992188 983.232421875 905.426757812 983.232421875 956.9375 983.232421875 c 1
1487.171875 612.685546875 m 0xcbcd
 1448.109375 612.685546875 1413.109375 619.248046875 1382.09375 632.294921875 c 0
 1351 645.419921875 1324.4375 666.123046875 1302.40625 694.248046875 c 0
 1280.296875 722.373046875 1263.34375 758.388671875 1251.46875 802.216796875 c 0
 1239.671875 846.123046875 1233.734375 898.388671875 1233.734375 959.248046875 c 256
 1233.734375 1020.02929688 1239.671875 1072.29492188 1251.46875 1116.20117188 c 0
 1263.34375 1160.02929688 1280.296875 1196.04492188 1302.40625 1224.16992188 c 0
 1324.4375 1252.29492188 1351 1272.99804688 1382.09375 1286.12304688 c 0
 1413.109375 1299.24804688 1448.109375 1305.73242188 1487.171875 1305.73242188 c 0
 1544.125 1305.73242188 1589.75 1293.46679688 1623.96875 1268.77929688 c 0
 1658.1875 1244.16992188 1685.609375 1207.21679688 1706.078125 1157.91992188 c 1
 1677.27636719 1141.9296875 1648.47363281 1125.94042969 1619.671875 1109.95117188 c 1
 1608.109375 1147.68554688 1592.015625 1174.87304688 1571.15625 1191.51367188 c 0
 1550.375 1208.15429688 1522.40625 1216.51367188 1487.171875 1216.51367188 c 0
 1441.78125 1216.51367188 1406.390625 1200.81054688 1381.078125 1169.48242188 c 0
 1355.84375 1138.07617188 1343.1875 1094.87304688 1343.1875 1039.87304688 c 1
 1343.1875 986.096679688 1343.1875 932.3203125 1343.1875 878.544921875 c 1
 1343.1875 823.544921875 1355.84375 780.341796875 1381.078125 748.935546875 c 0
 1406.390625 717.607421875 1441.78125 701.904296875 1487.171875 701.904296875 c 0
 1523.03125 701.904296875 1552.015625 710.888671875 1574.046875 728.779296875 c 0
 1596.15625 746.748046875 1613.265625 775.498046875 1625.453125 815.185546875 c 1
 1653.60449219 798.544921875 1681.75488281 781.904296875 1709.90625 765.263671875 c 1
 1688.8125 716.044921875 1660.609375 678.232421875 1625.453125 651.982421875 c 0
 1590.21875 625.732421875 1544.125 612.685546875 1487.171875 612.685546875 c 0xcbcd
1289.23339844 435.383789062 m 5
 1289.23339844 -25.1181640625 l 5
 1585.29882812 247.456054688 l 5
 1585.29882812 117.280273438 l 5
 1187.45410156 -248.998046875 l 5xd3ce
 1187.45410156 211.504882812 l 5
 891.388671875 -61.0693359375 l 5
 891.388671875 69.1064453125 l 5
 1289.23339844 435.383789062 l 5
EndSplineSet
EndChar

StartChar: uniE11B
Encoding: 57627 57627 28
Width: 1792
VWidth: 1687
Flags: W
HStem: -253.33 96.9531<1073.4 1297.1> 332.217 96.0156<306.547 506.234 614.672 814.359 1062.75 1307.77> 612.686 96.9531<474.093 697.732> 1198.23 96.0156<463.45 708.394 987.25 1186.94 1295.38 1495.06>
VStem: 296.938 116.25<773.332 1145.09> 506.234 108.438<-241.846 332.217> 758.656 116.25<773.332 1145.09> 896.312 116.172<-92.6831 279.07> 1186.94 108.438<624.17 1198.23> 1358.03 116.172<-92.6831 279.07>
LayerCount: 2
Fore
SplineSet
614.671875 332.216796875 m 1
 614.671875 140.862304688 614.671875 -50.4912109375 614.671875 -241.845703125 c 1
 578.526367188 -241.845703125 542.379882812 -241.845703125 506.234375 -241.845703125 c 1
 506.234375 -50.4912109375 506.234375 140.862304688 506.234375 332.216796875 c 1
 439.671875 332.216796875 373.109375 332.216796875 306.546875 332.216796875 c 1
 306.546875 364.221679688 306.546875 396.227539062 306.546875 428.232421875 c 1
 475.817382812 428.232421875 645.088867188 428.232421875 814.359375 428.232421875 c 1
 814.359375 396.227539062 814.359375 364.221679688 814.359375 332.216796875 c 1
 747.796875 332.216796875 681.234375 332.216796875 614.671875 332.216796875 c 1
1185.296875 -253.330078125 m 256
 1141.703125 -253.330078125 1102.25 -245.830078125 1066.703125 -230.830078125 c 0
 1031.15625 -215.751953125 1000.765625 -193.720703125 975.53125 -164.580078125 c 0
 950.21875 -135.439453125 930.6875 -99.267578125 916.9375 -56.064453125 c 0
 903.1875 -12.861328125 896.3125 36.904296875 896.3125 93.232421875 c 256
 896.3125 149.482421875 903.1875 199.248046875 916.9375 242.451171875 c 0
 930.6875 285.654296875 950.21875 321.826171875 975.53125 350.966796875 c 0
 1000.765625 380.107421875 1031.15625 402.138671875 1066.703125 417.216796875 c 0
 1102.25 432.216796875 1141.703125 439.716796875 1185.296875 439.716796875 c 256
 1228.8125 439.716796875 1268.265625 432.216796875 1303.8125 417.216796875 c 0
 1339.359375 402.138671875 1369.75 380.107421875 1394.984375 350.966796875 c 0
 1420.296875 321.826171875 1439.828125 285.654296875 1453.578125 242.451171875 c 0
 1467.328125 199.248046875 1474.203125 149.482421875 1474.203125 93.232421875 c 256
 1474.203125 36.904296875 1467.328125 -12.861328125 1453.578125 -56.064453125 c 0
 1439.828125 -99.267578125 1420.296875 -135.439453125 1394.984375 -164.580078125 c 0
 1369.75 -193.720703125 1339.359375 -215.751953125 1303.8125 -230.830078125 c 0
 1268.265625 -245.830078125 1228.8125 -253.330078125 1185.296875 -253.330078125 c 256
1185.296875 -156.376953125 m 0
 1210.84375 -156.376953125 1234.359375 -151.923828125 1255.84375 -142.939453125 c 0
 1277.25 -134.033203125 1295.53125 -121.064453125 1310.53125 -104.111328125 c 0
 1325.609375 -87.158203125 1337.25 -66.455078125 1345.609375 -42.158203125 c 0
 1353.890625 -17.861328125 1358.03125 9.638671875 1358.03125 40.419921875 c 1
 1358.03125 75.6025390625 1358.03125 110.784179688 1358.03125 145.966796875 c 1
 1358.03125 176.748046875 1353.890625 204.248046875 1345.609375 228.544921875 c 0
 1337.25 252.841796875 1325.609375 273.544921875 1310.53125 290.498046875 c 0
 1295.53125 307.451171875 1277.25 320.419921875 1255.84375 329.326171875 c 0
 1234.359375 338.310546875 1210.84375 342.763671875 1185.296875 342.763671875 c 0
 1159.046875 342.763671875 1135.375 338.310546875 1114.203125 329.326171875 c 0
 1093.109375 320.419921875 1074.984375 307.451171875 1059.984375 290.498046875 c 0
 1044.90625 273.544921875 1033.265625 252.841796875 1024.90625 228.544921875 c 0
 1016.625 204.248046875 1012.484375 176.748046875 1012.484375 145.966796875 c 1
 1012.484375 110.784179688 1012.484375 75.6025390625 1012.484375 40.419921875 c 1
 1012.484375 9.638671875 1016.625 -17.861328125 1024.90625 -42.158203125 c 0
 1033.265625 -66.455078125 1044.90625 -87.158203125 1059.984375 -104.111328125 c 0
 1074.984375 -121.064453125 1093.109375 -134.033203125 1114.203125 -142.939453125 c 0
 1135.375 -151.923828125 1159.046875 -156.376953125 1185.296875 -156.376953125 c 0
586 612.685546875 m 256
 542.40625 612.685546875 502.875 620.185546875 467.40625 635.185546875 c 0
 431.78125 650.263671875 401.46875 672.294921875 376.15625 701.435546875 c 0
 350.84375 730.576171875 331.3125 766.748046875 317.5625 809.951171875 c 0
 303.8125 853.154296875 296.9375 902.919921875 296.9375 959.248046875 c 256
 296.9375 1015.49804688 303.8125 1065.26367188 317.5625 1108.46679688 c 0
 331.3125 1151.66992188 350.84375 1187.84179688 376.15625 1216.98242188 c 0
 401.46875 1246.12304688 431.78125 1268.15429688 467.40625 1283.23242188 c 0
 502.875 1298.23242188 542.40625 1305.73242188 586 1305.73242188 c 256
 629.4375 1305.73242188 668.96875 1298.23242188 704.4375 1283.23242188 c 0
 740.0625 1268.15429688 770.375 1246.12304688 795.6875 1216.98242188 c 0
 821 1187.84179688 840.53125 1151.66992188 854.28125 1108.46679688 c 0
 868.03125 1065.26367188 874.90625 1015.49804688 874.90625 959.248046875 c 256
 874.90625 902.919921875 868.03125 853.154296875 854.28125 809.951171875 c 0
 840.53125 766.748046875 821 730.576171875 795.6875 701.435546875 c 0
 770.375 672.294921875 740.0625 650.263671875 704.4375 635.185546875 c 0
 668.96875 620.185546875 629.4375 612.685546875 586 612.685546875 c 256
586 709.638671875 m 0
 611.46875 709.638671875 635.0625 714.091796875 656.46875 723.076171875 c 0
 677.875 731.982421875 696.15625 744.951171875 711.15625 761.904296875 c 0
 726.3125 778.857421875 737.875 799.560546875 746.3125 823.857421875 c 0
 754.59375 848.154296875 758.65625 875.654296875 758.65625 906.435546875 c 1
 758.65625 941.618164062 758.65625 976.799804688 758.65625 1011.98242188 c 1
 758.65625 1042.76367188 754.59375 1070.26367188 746.3125 1094.56054688 c 0
 737.875 1118.85742188 726.3125 1139.56054688 711.15625 1156.51367188 c 0
 696.15625 1173.46679688 677.875 1186.43554688 656.46875 1195.34179688 c 0
 635.0625 1204.32617188 611.46875 1208.77929688 586 1208.77929688 c 0
 559.75 1208.77929688 536 1204.32617188 514.90625 1195.34179688 c 0
 493.8125 1186.43554688 475.6875 1173.46679688 460.6875 1156.51367188 c 0
 445.53125 1139.56054688 433.96875 1118.85742188 425.53125 1094.56054688 c 0
 417.25 1070.26367188 413.1875 1042.76367188 413.1875 1011.98242188 c 1
 413.1875 976.799804688 413.1875 941.618164062 413.1875 906.435546875 c 1
 413.1875 875.654296875 417.25 848.154296875 425.53125 823.857421875 c 0
 433.96875 799.560546875 445.53125 778.857421875 460.6875 761.904296875 c 0
 475.6875 744.951171875 493.8125 731.982421875 514.90625 723.076171875 c 0
 536 714.091796875 559.75 709.638671875 586 709.638671875 c 0
1295.375 1198.23242188 m 1
 1295.375 1006.87792969 1295.375 815.524414062 1295.375 624.169921875 c 1
 1259.22949219 624.169921875 1223.08300781 624.169921875 1186.9375 624.169921875 c 1
 1186.9375 815.524414062 1186.9375 1006.87792969 1186.9375 1198.23242188 c 1
 1120.375 1198.23242188 1053.8125 1198.23242188 987.25 1198.23242188 c 1
 987.25 1230.23730469 987.25 1262.24316406 987.25 1294.24804688 c 1
 1156.52050781 1294.24804688 1325.79199219 1294.24804688 1495.0625 1294.24804688 c 1
 1495.0625 1262.24316406 1495.0625 1230.23730469 1495.0625 1198.23242188 c 1
 1428.5 1198.23242188 1361.9375 1198.23242188 1295.375 1198.23242188 c 1
EndSplineSet
EndChar

StartChar: uniE11C
Encoding: 57628 57628 29
Width: 1792
Flags: W
HStem: -259 89.2188<739.069 929.998> 23.1875 90.2344<153.266 362.441> 277.641 144.922<1262.72 1290.05 1610.22 1638.03> 332.328 90.2344<153.266 362.441 730.871 933.092> 618.5 89.2969<924.08 1127.76 1464.98 1708.81> 1143.66 144.922<174.438 201.767 521.938 549.75>
VStem: 51.4688 101.797<-247.516 23.1875 113.422 332.328> 83.1875 97.9688<618.5 1141.9> 381.703 108.516<132.763 312.99> 543.031 97.9688<618.5 1143.75> 584.594 109.453<-121.269 296.316> 797.406 101.797<736.821 1288.58> 1152.64 101.797<736.821 1288.58> 1171.47 97.9688<-247.516 275.885> 1363.19 101.797<707.797 1288.58> 1631.31 97.9688<-247.516 277.731>
DStem2: 203.188 1288.58 185.922 1143.66 0.416929 -0.908939<124.527 395.989> 1291.47 422.562 1274.2 277.641 0.416929 -0.908939<124.527 395.989>
LayerCount: 2
Fore
SplineSet
51.46875 -247.515625 m 1xde93
 51.46875 -24.15625 51.46875 199.203125 51.46875 422.5625 c 1
 139.801757812 422.5625 228.135742188 422.5625 316.46875 422.5625 c 1
 374.046875 422.5625 417.40625 405.453125 446.546875 371.234375 c 0
 475.609375 336.9375 490.21875 287.5625 490.21875 222.875 c 256
 490.21875 158.265625 475.609375 108.8125 446.546875 74.59375 c 0
 417.40625 40.296875 374.046875 23.1875 316.46875 23.1875 c 1
 262.067382812 23.1875 207.666992188 23.1875 153.265625 23.1875 c 1
 153.265625 -67.046875 153.265625 -157.28125 153.265625 -247.515625 c 1
 119.333007812 -247.515625 85.4013671875 -247.515625 51.46875 -247.515625 c 1xde93
153.265625 113.421875 m 1
 204.776367188 113.421875 256.286132812 113.421875 307.796875 113.421875 c 1
 332.09375 113.421875 350.53125 119.671875 363.03125 132.171875 c 0
 375.453125 144.671875 381.703125 164.671875 381.703125 192.171875 c 1
 381.703125 212.640625 381.703125 233.109375 381.703125 253.578125 c 1
 381.703125 281.15625 375.453125 301.15625 363.03125 313.578125 c 0
 350.53125 326.078125 332.09375 332.328125 307.796875 332.328125 c 1
 256.286132812 332.328125 204.776367188 332.328125 153.265625 332.328125 c 1
 153.265625 259.359375 153.265625 186.390625 153.265625 113.421875 c 1
838.03125 -259 m 0
 798.96875 -259 763.96875 -252.4375 732.953125 -239.390625 c 0
 701.859375 -226.265625 675.296875 -205.5625 653.265625 -177.4375 c 0
 631.15625 -149.3125 614.203125 -113.296875 602.328125 -69.46875 c 0
 590.53125 -25.5625 584.59375 26.703125 584.59375 87.5625 c 256
 584.59375 148.34375 590.53125 200.609375 602.328125 244.515625 c 0
 614.203125 288.34375 631.15625 324.359375 653.265625 352.484375 c 0
 675.296875 380.609375 701.859375 401.3125 732.953125 414.4375 c 0
 763.96875 427.5625 798.96875 434.046875 838.03125 434.046875 c 0
 894.984375 434.046875 940.609375 421.78125 974.828125 397.09375 c 0
 1009.046875 372.484375 1036.46875 335.53125 1056.9375 286.234375 c 1
 1028.13574219 270.245117188 999.333007812 254.254882812 970.53125 238.265625 c 1
 958.96875 276 942.875 303.1875 922.015625 319.828125 c 0
 901.234375 336.46875 873.265625 344.828125 838.03125 344.828125 c 0
 792.640625 344.828125 757.25 329.125 731.9375 297.796875 c 0
 706.703125 266.390625 694.046875 223.1875 694.046875 168.1875 c 1
 694.046875 114.411132812 694.046875 60.6357421875 694.046875 6.859375 c 1xccb3
 694.046875 -48.140625 706.703125 -91.34375 731.9375 -122.75 c 0
 757.25 -154.078125 792.640625 -169.78125 838.03125 -169.78125 c 0
 873.890625 -169.78125 902.875 -160.796875 924.90625 -142.90625 c 0
 947.015625 -124.9375 964.125 -96.1875 976.3125 -56.5 c 1
 1004.46386719 -73.140625 1032.61425781 -89.78125 1060.765625 -106.421875 c 1
 1039.671875 -155.640625 1011.46875 -193.453125 976.3125 -219.703125 c 0
 941.078125 -245.953125 894.984375 -259 838.03125 -259 c 0
1631.3125 165.296875 m 1
 1633.55175781 203.370117188 1635.79199219 241.442382812 1638.03125 279.515625 c 1
 1634.203125 279.515625 1630.375 279.515625 1626.546875 279.515625 c 1
 1611.18261719 242.067382812 1595.81738281 204.620117188 1580.453125 167.171875 c 1
 1536.9375 76.3125 1493.421875 -14.546875 1449.90625 -105.40625 c 1
 1406.703125 -14.546875 1363.5 76.3125 1320.296875 167.171875 c 1
 1304.93261719 203.995117188 1289.56738281 240.817382812 1274.203125 277.640625 c 1
 1270.375 277.640625 1266.546875 277.640625 1262.71875 277.640625 c 1xec97
 1264.95800781 240.192382812 1267.19824219 202.745117188 1269.4375 165.296875 c 1
 1269.4375 27.6923828125 1269.4375 -109.911132812 1269.4375 -247.515625 c 1
 1236.78125 -247.515625 1204.125 -247.515625 1171.46875 -247.515625 c 1
 1171.46875 -24.15625 1171.46875 199.203125 1171.46875 422.5625 c 1
 1211.46875 422.5625 1251.46875 422.5625 1291.46875 422.5625 c 1xdc97
 1327.640625 344.489257812 1363.8125 266.416992188 1399.984375 188.34375 c 1
 1415.66113281 144.176757812 1431.33886719 100.010742188 1447.015625 55.84375 c 1
 1449.87988281 55.84375 1452.74511719 55.84375 1455.609375 55.84375 c 1
 1471.3125 100.010742188 1487.015625 144.176757812 1502.71875 188.34375 c 1
 1538.55175781 266.416992188 1574.38574219 344.489257812 1610.21875 422.5625 c 1xec97
 1649.90625 422.5625 1689.59375 422.5625 1729.28125 422.5625 c 1xdc97
 1729.28125 199.203125 1729.28125 -24.15625 1729.28125 -247.515625 c 1
 1696.625 -247.515625 1663.96875 -247.515625 1631.3125 -247.515625 c 1
 1631.3125 -109.911132812 1631.3125 27.6923828125 1631.3125 165.296875 c 1
543.03125 1031.3125 m 1xcdd3
 545.270507812 1069.38574219 547.510742188 1107.45800781 549.75 1145.53125 c 1
 545.921875 1145.53125 542.09375 1145.53125 538.265625 1145.53125 c 1
 522.901367188 1108.08300781 507.536132812 1070.63574219 492.171875 1033.1875 c 1
 448.65625 942.328125 405.140625 851.46875 361.625 760.609375 c 1
 318.421875 851.46875 275.21875 942.328125 232.015625 1033.1875 c 1
 216.651367188 1070.01074219 201.286132812 1106.83300781 185.921875 1143.65625 c 1
 182.09375 1143.65625 178.265625 1143.65625 174.4375 1143.65625 c 1
 176.676757812 1106.20800781 178.916992188 1068.76074219 181.15625 1031.3125 c 1
 181.15625 893.708007812 181.15625 756.104492188 181.15625 618.5 c 1
 148.5 618.5 115.84375 618.5 83.1875 618.5 c 1
 83.1875 841.859375 83.1875 1065.21875 83.1875 1288.578125 c 1
 123.1875 1288.578125 163.1875 1288.578125 203.1875 1288.578125 c 1
 239.359375 1210.50488281 275.53125 1132.43261719 311.703125 1054.359375 c 1
 327.379882812 1010.19238281 343.057617188 966.026367188 358.734375 921.859375 c 1
 361.598632812 921.859375 364.463867188 921.859375 367.328125 921.859375 c 1
 383.03125 966.026367188 398.734375 1010.19238281 414.4375 1054.359375 c 1
 450.270507812 1132.43261719 486.104492188 1210.50488281 521.9375 1288.578125 c 1
 561.625 1288.578125 601.3125 1288.578125 641 1288.578125 c 1
 641 1065.21875 641 841.859375 641 618.5 c 1
 608.34375 618.5 575.6875 618.5 543.03125 618.5 c 1
 543.03125 756.104492188 543.03125 893.708007812 543.03125 1031.3125 c 1xcdd3
899.203125 1288.578125 m 1
 899.203125 1143.94238281 899.203125 999.307617188 899.203125 854.671875 c 1
 899.203125 800.921875 908.5 761.234375 927.015625 735.609375 c 0
 945.609375 709.984375 978.578125 697.25 1025.921875 697.25 c 256
 1073.265625 697.25 1106.234375 709.984375 1124.828125 735.609375 c 0
 1143.34375 761.234375 1152.640625 800.921875 1152.640625 854.671875 c 1
 1152.640625 999.307617188 1152.640625 1143.94238281 1152.640625 1288.578125 c 1
 1186.57324219 1288.578125 1220.50488281 1288.578125 1254.4375 1288.578125 c 1
 1254.4375 1149.38574219 1254.4375 1010.19238281 1254.4375 871 c 1xcc9b
 1254.4375 825.53125 1250.375 786.15625 1242.40625 752.875 c 0
 1234.4375 719.59375 1221.46875 692.09375 1203.5 670.375 c 0
 1185.609375 648.578125 1162.09375 632.5625 1132.953125 622.328125 c 0
 1103.8125 612.09375 1068.1875 607.015625 1025.921875 607.015625 c 256
 983.65625 607.015625 948.03125 612.09375 918.890625 622.328125 c 0
 889.75 632.5625 866.234375 648.578125 848.34375 670.375 c 0
 830.375 692.09375 817.40625 719.59375 809.4375 752.875 c 0
 801.46875 786.15625 797.40625 825.53125 797.40625 871 c 1
 797.40625 1010.19238281 797.40625 1149.38574219 797.40625 1288.578125 c 1
 831.338867188 1288.578125 865.270507812 1288.578125 899.203125 1288.578125 c 1
1363.1875 618.5 m 1
 1363.1875 841.859375 1363.1875 1065.21875 1363.1875 1288.578125 c 1
 1397.12011719 1288.578125 1431.05175781 1288.578125 1464.984375 1288.578125 c 1
 1464.984375 1094.984375 1464.984375 901.390625 1464.984375 707.796875 c 1
 1546.26074219 707.796875 1627.53613281 707.796875 1708.8125 707.796875 c 1
 1708.8125 678.03125 1708.8125 648.265625 1708.8125 618.5 c 1
 1593.60449219 618.5 1478.39550781 618.5 1363.1875 618.5 c 1
EndSplineSet
EndChar

StartChar: uniE11D
Encoding: 57629 57629 30
Width: 1792
VWidth: 1687
Flags: W
HStem: -241.846 96.0156<497.016 817.797 1015.27 1260.36> 50.0293 95.9375<497.016 787.953 1142.69 1260.82> 332.217 96.0156<497.016 817.797 1052.91 1288.54> 612.686 95.9375<459.826 685.636> 1209.79 95.9375<485.37 703.815>
VStem: 353.969 107.5<1052.56 1188.85> 388.578 108.438<-145.83 50.0293 145.967 332.217> 713.969 107.5<735.735 882.928> 924.672 107.5<186.541 322.835> 937.875 103.75<624.17 1136.83> 1284.67 107.5<-130.28 16.9126> 1354.59 103.594<781.592 1294.25>
DStem2: 568.031 1025.42 549.75 922.764 0.978916 -0.204262<-84.3815 149.558> 1277.72 923.701 1118.34 994.717 0.508638 -0.860981<-299.653 157.446> 1138.73 159.404 1120.45 56.748 0.978916 -0.204262<-84.3815 149.558>
LayerCount: 2
Fore
SplineSet
388.578125 -241.845703125 m 1xfb
 388.578125 -18.486328125 388.578125 204.873046875 388.578125 428.232421875 c 1
 531.651367188 428.232421875 674.723632812 428.232421875 817.796875 428.232421875 c 1
 817.796875 396.227539062 817.796875 364.221679688 817.796875 332.216796875 c 1
 710.870117188 332.216796875 603.942382812 332.216796875 497.015625 332.216796875 c 1
 497.015625 270.133789062 497.015625 208.049804688 497.015625 145.966796875 c 1
 593.995117188 145.966796875 690.973632812 145.966796875 787.953125 145.966796875 c 1
 787.953125 113.987304688 787.953125 82.0087890625 787.953125 50.029296875 c 1
 690.973632812 50.029296875 593.995117188 50.029296875 497.015625 50.029296875 c 1
 497.015625 -15.2568359375 497.015625 -80.5439453125 497.015625 -145.830078125 c 1
 603.942382812 -145.830078125 710.870117188 -145.830078125 817.796875 -145.830078125 c 1
 817.796875 -177.834960938 817.796875 -209.840820312 817.796875 -241.845703125 c 1
 674.723632812 -241.845703125 531.651367188 -241.845703125 388.578125 -241.845703125 c 1xfb
1149.203125 -253.330078125 m 0
 1092.953125 -253.330078125 1045.140625 -243.095703125 1005.765625 -222.626953125 c 0
 966.390625 -202.158203125 932.640625 -174.658203125 904.515625 -140.048828125 c 1
 929.463867188 -116.689453125 954.411132812 -93.330078125 979.359375 -69.970703125 c 1
 1002.953125 -98.798828125 1029.046875 -120.595703125 1057.484375 -135.283203125 c 0
 1086.078125 -149.970703125 1118.578125 -157.392578125 1154.984375 -157.392578125 c 0
 1197.953125 -157.392578125 1230.140625 -147.783203125 1252.015625 -128.564453125 c 0
 1273.734375 -109.345703125 1284.671875 -83.408203125 1284.671875 -50.830078125 c 0
 1284.671875 -24.580078125 1276.859375 -3.798828125 1261.546875 11.591796875 c 0
 1246.234375 26.982421875 1219.046875 38.466796875 1179.984375 46.123046875 c 1
 1160.140625 49.6650390625 1140.296875 53.2060546875 1120.453125 56.748046875 c 1
 1055.140625 68.857421875 1006.234375 90.341796875 973.578125 121.044921875 c 0
 940.921875 151.748046875 924.671875 194.013671875 924.671875 247.763671875 c 0
 924.671875 277.216796875 930.140625 303.935546875 941.390625 327.919921875 c 0
 952.640625 351.904296875 968.265625 372.060546875 988.421875 388.388671875 c 0
 1008.578125 404.716796875 1033.109375 417.373046875 1061.859375 426.279296875 c 0
 1090.609375 435.263671875 1122.953125 439.716796875 1158.890625 439.716796875 c 0
 1209.359375 439.716796875 1253.265625 430.966796875 1290.296875 413.388671875 c 0
 1327.484375 395.732421875 1359.203125 370.341796875 1385.453125 337.060546875 c 1
 1360.140625 314.665039062 1334.828125 292.268554688 1309.515625 269.873046875 c 1
 1292.328125 292.216796875 1271.234375 310.185546875 1246.234375 323.623046875 c 0
 1221.234375 337.060546875 1190.140625 343.779296875 1153.109375 343.779296875 c 0
 1114.671875 343.779296875 1084.984375 336.044921875 1063.734375 320.732421875 c 0
 1042.640625 305.341796875 1032.171875 282.919921875 1032.171875 253.544921875 c 0
 1032.171875 225.341796875 1040.765625 204.404296875 1058.109375 190.654296875 c 0
 1075.296875 176.904296875 1102.171875 166.435546875 1138.734375 159.404296875 c 1
 1158.578125 155.263671875 1178.421875 151.123046875 1198.265625 146.982421875 c 1
 1265.453125 134.169921875 1314.515625 112.373046875 1345.609375 81.669921875 c 0
 1376.546875 50.966796875 1392.171875 8.701171875 1392.171875 -45.048828125 c 0xf9a0
 1392.171875 -76.376953125 1386.703125 -104.892578125 1375.765625 -130.517578125 c 0
 1364.984375 -156.064453125 1349.046875 -178.017578125 1328.265625 -196.220703125 c 0
 1307.484375 -214.501953125 1282.015625 -228.564453125 1252.015625 -238.486328125 c 0
 1221.859375 -248.408203125 1187.640625 -253.330078125 1149.203125 -253.330078125 c 0
578.5 612.685546875 m 0
 522.25 612.685546875 474.4375 622.919921875 435.0625 643.388671875 c 0
 395.6875 663.857421875 361.9375 691.357421875 333.8125 725.966796875 c 1
 358.760742188 749.326171875 383.708007812 772.685546875 408.65625 796.044921875 c 1
 432.25 767.216796875 458.34375 745.419921875 486.78125 730.732421875 c 0
 515.375 716.044921875 547.875 708.623046875 584.28125 708.623046875 c 0
 627.25 708.623046875 659.4375 718.232421875 681.3125 737.451171875 c 0
 703.03125 756.669921875 713.96875 782.607421875 713.96875 815.185546875 c 0
 713.96875 841.435546875 706.15625 862.216796875 690.84375 877.607421875 c 0
 675.53125 892.998046875 648.34375 904.482421875 609.28125 912.138671875 c 1
 589.4375 915.680664062 569.59375 919.221679688 549.75 922.763671875 c 1
 484.4375 934.873046875 435.53125 956.357421875 402.875 987.060546875 c 0
 370.21875 1017.76367188 353.96875 1060.02929688 353.96875 1113.77929688 c 0
 353.96875 1143.23242188 359.4375 1169.95117188 370.6875 1193.93554688 c 0
 381.9375 1217.91992188 397.5625 1238.07617188 417.71875 1254.40429688 c 0
 437.875 1270.73242188 462.40625 1283.38867188 491.15625 1292.29492188 c 0
 519.90625 1301.27929688 552.25 1305.73242188 588.1875 1305.73242188 c 0
 638.65625 1305.73242188 682.5625 1296.98242188 719.59375 1279.40429688 c 0
 756.78125 1261.74804688 788.5 1236.35742188 814.75 1203.07617188 c 1
 789.4375 1180.68066406 764.125 1158.28417969 738.8125 1135.88867188 c 1
 721.625 1158.23242188 700.53125 1176.20117188 675.53125 1189.63867188 c 0
 650.53125 1203.07617188 619.4375 1209.79492188 582.40625 1209.79492188 c 0
 543.96875 1209.79492188 514.28125 1202.06054688 493.03125 1186.74804688 c 0
 471.9375 1171.35742188 461.46875 1148.93554688 461.46875 1119.56054688 c 0xfd
 461.46875 1091.35742188 470.0625 1070.41992188 487.40625 1056.66992188 c 0
 504.59375 1042.91992188 531.46875 1032.45117188 568.03125 1025.41992188 c 1
 587.875 1021.27929688 607.71875 1017.13867188 627.5625 1012.99804688 c 1
 694.75 1000.18554688 743.8125 978.388671875 774.90625 947.685546875 c 0
 805.84375 916.982421875 821.46875 874.716796875 821.46875 820.966796875 c 0
 821.46875 789.638671875 816 761.123046875 805.0625 735.498046875 c 0
 794.28125 709.951171875 778.34375 687.998046875 757.5625 669.794921875 c 0
 736.78125 651.513671875 711.3125 637.451171875 681.3125 627.529296875 c 0
 651.15625 617.607421875 616.9375 612.685546875 578.5 612.685546875 c 0
1118.34375 994.716796875 m 1
 1093.70800781 1042.08691406 1069.07324219 1089.45605469 1044.4375 1136.82617188 c 1
 1043.5 1136.82617188 1042.5625 1136.82617188 1041.625 1136.82617188 c 1
 1041.625 965.940429688 1041.625 795.055664062 1041.625 624.169921875 c 1
 1007.04199219 624.169921875 972.458007812 624.169921875 937.875 624.169921875 c 1
 937.875 847.529296875 937.875 1070.88867188 937.875 1294.24804688 c 1
 978.1875 1294.24804688 1018.5 1294.24804688 1058.8125 1294.24804688 c 1
 1131.78125 1170.73242188 1204.75 1047.21679688 1277.71875 923.701171875 c 1
 1302.35449219 876.331054688 1326.98925781 828.961914062 1351.625 781.591796875 c 1
 1352.61425781 781.591796875 1353.60449219 781.591796875 1354.59375 781.591796875 c 1
 1354.59375 952.477539062 1354.59375 1123.36230469 1354.59375 1294.24804688 c 1
 1389.125 1294.24804688 1423.65625 1294.24804688 1458.1875 1294.24804688 c 1
 1458.1875 1070.88867188 1458.1875 847.529296875 1458.1875 624.169921875 c 1xf950
 1417.875 624.169921875 1377.5625 624.169921875 1337.25 624.169921875 c 1
 1264.28125 747.685546875 1191.3125 871.201171875 1118.34375 994.716796875 c 1
EndSplineSet
EndChar

StartChar: uniE11E
Encoding: 57630 57630 31
Width: 1792
VWidth: 1687
Flags: W
HStem: 84.8447 119.922<380.027 643.107 1147.14 1395.21> 831.231 119.922<401.199 656.619>
VStem: 232.816 134.375<638.539 801.481> 682.816 134.375<242.984 418.824> 958.012 133.203<263.461 936.798> 1451.18 133.203<263.461 936.798>
DStem2: 500.395 600.763 477.543 472.442 0.978916 -0.204262<-105.472 187.038>
LayerCount: 2
Fore
SplineSet
513.578125 84.8447265625 m 0
 443.16796875 84.8447265625 383.40234375 97.6376953125 334.18359375 123.223632812 c 0
 284.96484375 148.809570312 242.77734375 183.184570312 207.62109375 226.446289062 c 1
 238.805664062 255.645507812 269.991210938 284.844726562 301.17578125 314.043945312 c 1
 330.765625 278.008789062 363.3828125 250.762695312 398.9296875 232.403320312 c 0
 434.57421875 214.043945312 475.19921875 204.766601562 520.8046875 204.766601562 c 0
 574.41796875 204.766601562 614.75 216.778320312 641.99609375 240.801757812 c 0
 669.14453125 264.825195312 682.81640625 297.247070312 682.81640625 337.969726562 c 0
 682.81640625 370.782226562 673.1484375 396.758789062 654.0078125 415.997070312 c 0
 634.76953125 435.235351562 600.78515625 449.590820312 551.95703125 459.161132812 c 1
 527.15234375 463.587890625 502.34765625 468.014648438 477.54296875 472.442382812 c 1
 396 487.579101562 334.76953125 514.434570312 293.94921875 552.813476562 c 0
 253.12890625 591.192382812 232.81640625 644.024414062 232.81640625 711.211914062 c 0
 232.81640625 748.028320312 239.75 781.426757812 253.8125 811.407226562 c 0
 267.77734375 841.387695312 287.40625 866.583007812 312.6015625 886.993164062 c 0
 337.796875 907.403320312 368.36328125 923.223632812 404.3984375 934.356445312 c 0
 440.3359375 945.586914062 480.765625 951.153320312 525.58984375 951.153320312 c 0
 588.7734375 951.153320312 643.55859375 940.215820312 689.9453125 918.243164062 c 0
 736.33203125 896.172851562 775.98046875 864.434570312 808.79296875 822.833007812 c 1
 777.184570312 794.837890625 745.577148438 766.842773438 713.96875 738.848632812 c 1
 692.38671875 766.778320312 666.01953125 789.239257812 634.76953125 806.036132812 c 0
 603.6171875 822.833007812 564.75 831.231445312 518.36328125 831.231445312 c 0
 470.4140625 831.231445312 433.20703125 821.563476562 406.7421875 802.422851562 c 0
 380.375 783.184570312 367.19140625 755.157226562 367.19140625 718.438476562 c 0
 367.19140625 683.184570312 377.93359375 657.012695312 399.61328125 639.825195312 c 0
 421.1953125 622.637695312 454.7890625 609.551757812 500.39453125 600.762695312 c 1
 525.19921875 595.586914062 550.00390625 590.411132812 574.80859375 585.235351562 c 1
 658.79296875 569.219726562 720.21875 541.973632812 758.98828125 503.594726562 c 0
 797.7578125 465.215820312 817.19140625 412.383789062 817.19140625 345.196289062 c 0
 817.19140625 306.036132812 810.35546875 270.391601562 796.78125 238.360351562 c 0
 783.20703125 206.426757812 763.3828125 178.985351562 737.40625 156.231445312 c 0
 711.33203125 133.379882812 679.59375 115.801757812 641.99609375 103.399414062 c 0
 604.3984375 90.9970703125 561.52734375 84.8447265625 513.578125 84.8447265625 c 0
1091.21484375 936.797851562 m 1
 1091.21484375 764.791992188 1091.21484375 592.787109375 1091.21484375 420.782226562 c 1
 1091.21484375 349.590820312 1104.7890625 295.977539062 1131.9375 260.040039062 c 0
 1159.18359375 224.004882812 1205.5703125 206.036132812 1271.1953125 206.036132812 c 256
 1336.8203125 206.036132812 1383.20703125 224.004882812 1410.35546875 260.040039062 c 0
 1437.6015625 295.977539062 1451.17578125 349.590820312 1451.17578125 420.782226562 c 1
 1451.17578125 592.787109375 1451.17578125 764.791992188 1451.17578125 936.797851562 c 1
 1495.57714844 936.797851562 1539.97753906 936.797851562 1584.37890625 936.797851562 c 1
 1584.37890625 771.986328125 1584.37890625 607.174804688 1584.37890625 442.364257812 c 1
 1584.37890625 380.840820312 1578.8125 327.618164062 1567.58203125 282.793945312 c 0
 1556.3515625 237.969726562 1538.3828125 200.958007812 1513.578125 171.758789062 c 0
 1488.7734375 142.559570312 1456.546875 120.782226562 1416.99609375 106.426757812 c 0
 1377.34765625 91.9736328125 1328.8125 84.8447265625 1271.1953125 84.8447265625 c 256
 1213.578125 84.8447265625 1164.9453125 91.9736328125 1125.39453125 106.426757812 c 0
 1085.74609375 120.782226562 1053.6171875 142.559570312 1028.8125 171.758789062 c 0
 1004.0078125 200.958007812 985.94140625 237.969726562 974.80859375 282.793945312 c 0
 963.578125 327.618164062 958.01171875 380.840820312 958.01171875 442.364257812 c 1
 958.01171875 607.174804688 958.01171875 771.986328125 958.01171875 936.797851562 c 1
 1002.41308594 936.797851562 1046.81347656 936.797851562 1091.21484375 936.797851562 c 1
EndSplineSet
EndChar

StartChar: uniE11F
Encoding: 57631 57631 32
Width: 1792
VWidth: 1687
Flags: W
HStem: 171.516 89.2188<906.667 1116.84 1445.69 1645.37> 183 108.516<198.32 221.367 546.758 569.805> 449.875 87.3438<1569.19 1693.09> 750.344 102.734<371.133 393.242> 775.344 89.2188<935.851 1133.42 1446.32 1654.53>
VStem: 0 103.75<749.328 853.078> 321.719 123.75<751.086 853.078> 664.375 99.8438<753.234 853.078> 812.781 101.719<608.533 755.771> 1137.31 101.719<281.429 444.709> 1288.88 109.531<309.707 726.324> 1701.69 90.3125<183 281.906 305.738 449.875>
DStem2: 103.75 853.078 0 853.078 0.190374 -0.981712<0 567.853> 216.094 291.516 355.312 595.812 0.136058 0.990701<4.46299 473.288> 530.938 445.109 387.969 750.344 0.136058 -0.990701<-318.35 155.035> 585.625 446.984 617.344 183 0.190374 0.981712<-154.194 413.659> 1006.69 581.438 988.406 485.422 0.978371 -0.206857<-75.1218 135.909>
LayerCount: 2
Fore
SplineSet
142.1875 183 m 1x77f0
 94.7919921875 406.359375 47.3955078125 629.71875 0 853.078125 c 1
 34.5830078125 853.078125 69.1669921875 853.078125 103.75 853.078125 c 1
 130 717.713867188 156.25 582.348632812 182.5 446.984375 c 1
 189.53125 395.161132812 196.5625 343.338867188 203.59375 291.515625 c 1
 207.760742188 291.515625 211.926757812 291.515625 216.09375 291.515625 c 1
 223.125 342.713867188 230.15625 393.911132812 237.1875 445.109375 c 1
 265.364257812 581.098632812 293.541992188 717.088867188 321.71875 853.078125 c 1
 362.96875 853.078125 404.21875 853.078125 445.46875 853.078125 c 1
 473.958007812 717.088867188 502.448242188 581.098632812 530.9375 445.109375 c 1
 537.96875 393.911132812 545 342.713867188 552.03125 291.515625 c 1
 556.198242188 291.515625 560.364257812 291.515625 564.53125 291.515625 c 1
 571.5625 343.338867188 578.59375 395.161132812 585.625 446.984375 c 1
 611.875 582.348632812 638.125 717.713867188 664.375 853.078125 c 1
 697.65625 853.078125 730.9375 853.078125 764.21875 853.078125 c 1
 715.260742188 629.71875 666.301757812 406.359375 617.34375 183 c 1
 576.71875 183 536.09375 183 495.46875 183 c 1
 466.666992188 320.604492188 437.864257812 458.208007812 409.0625 595.8125 c 1
 402.03125 647.323242188 395 698.833007812 387.96875 750.34375 c 1
 384.114257812 750.34375 380.260742188 750.34375 376.40625 750.34375 c 1
 369.375 698.833007812 362.34375 647.323242188 355.3125 595.8125 c 1
 325.208007812 458.208007812 295.104492188 320.604492188 265 183 c 1
 224.0625 183 183.125 183 142.1875 183 c 1x77f0
1017.3125 171.515625 m 4xaff0
 967.3125 171.515625 924.03125 180.890625 887.15625 199.796875 c 4
 850.4375 218.703125 818.875 246.046875 792.625 281.90625 c 5
 815.958007812 303.338867188 839.291992188 324.770507812 862.625 346.203125 c 5
 882.46875 318.703125 905.28125 297.53125 930.90625 282.84375 c 4
 956.375 268.15625 985.59375 260.734375 1018.25 260.734375 c 4
 1097.625 260.734375 1137.3125 297.21875 1137.3125 370.1875 c 4
 1137.3125 399.640625 1130.125 422.21875 1116.0625 437.84375 c 4
 1102 453.546875 1077.78125 465.578125 1043.09375 473.859375 c 5
 1024.86425781 477.713867188 1006.63574219 481.567382812 988.40625 485.421875 c 5
 928.25 498.859375 884.03125 520.421875 855.4375 550.1875 c 4
 827 579.953125 812.78125 621.75 812.78125 675.5 c 4
 812.78125 737.53125 831.53125 784.5625 868.875 816.59375 c 4
 906.375 848.625 958.71875 864.5625 1025.90625 864.5625 c 4
 1073.875 864.5625 1114.34375 856.4375 1147.3125 840.109375 c 4
 1180.28125 823.78125 1208.875 798.390625 1233.25 763.78125 c 5
 1209.86425781 743.3125 1186.47949219 722.84375 1163.09375 702.375 c 5
 1145.90625 726.671875 1126.53125 744.953125 1105.125 757.0625 c 4
 1083.71875 769.25 1056.53125 775.34375 1024.03125 775.34375 c 4
 987.46875 775.34375 960.125 767.765625 941.84375 752.765625 c 4
 923.71875 737.6875 914.5 712.921875 914.5 678.390625 c 4
 914.5 650.1875 921.6875 628.9375 936.0625 614.484375 c 4
 950.59375 600.109375 974.03125 589.09375 1006.6875 581.4375 c 5
 1024.91699219 577.270507812 1043.14550781 573.104492188 1061.375 568.9375 c 5
 1093.40625 561.90625 1120.59375 553.078125 1142.9375 542.53125 c 4
 1165.4375 531.984375 1183.875 519.015625 1198.25 503.625 c 4
 1212.625 488.3125 1222.9375 470.1875 1229.34375 449.40625 c 4
 1235.75 428.625 1239.03125 404.40625 1239.03125 376.90625 c 4
 1239.03125 309.71875 1219.65625 258.703125 1180.90625 223.78125 c 4
 1142.15625 188.9375 1087.625 171.515625 1017.3125 171.515625 c 4xaff0
1701.6875 281.90625 m 5
 1697.83300781 281.90625 1693.97949219 281.90625 1690.125 281.90625 c 5
 1683.875 249.875 1667.46875 223.46875 1641.21875 202.6875 c 4
 1614.96875 181.90625 1577.9375 171.515625 1529.8125 171.515625 c 4xa7f0
 1495.28125 171.515625 1463.40625 177.84375 1434.34375 190.65625 c 4
 1405.28125 203.46875 1379.8125 223.78125 1358.09375 251.671875 c 4
 1336.21875 279.484375 1319.34375 315.34375 1307.15625 359.171875 c 4
 1294.96875 403 1288.875 455.65625 1288.875 517.0625 c 260
 1288.875 578.546875 1294.8125 631.125 1306.6875 675.03125 c 4
 1318.5625 718.859375 1335.75 754.875 1358.5625 783 c 4
 1381.21875 811.125 1408.5625 831.828125 1440.59375 844.953125 c 4
 1472.625 858.078125 1508.71875 864.5625 1549.03125 864.5625 c 4
 1608.5625 864.5625 1657 851.828125 1694.03125 826.203125 c 4
 1731.21875 800.578125 1759.96875 764.09375 1780.4375 716.75 c 5
 1752.625 700.421875 1724.8125 684.09375 1697 667.765625 c 5
 1685.4375 700.421875 1667.9375 726.359375 1644.65625 745.578125 c 4
 1621.21875 764.796875 1589.65625 774.328125 1549.96875 774.328125 c 4
 1502 774.328125 1464.8125 759.015625 1438.25 728.3125 c 4
 1411.6875 697.53125 1398.40625 654.71875 1398.40625 599.640625 c 5
 1398.40625 545.239257812 1398.40625 490.838867188 1398.40625 436.4375 c 5
 1398.40625 381.4375 1411.6875 338.546875 1438.25 307.765625 c 4
 1464.8125 277.0625 1502 261.75 1549.96875 261.75 c 4
 1569.8125 261.75 1588.40625 264.5625 1605.75 270.34375 c 4
 1622.9375 276.125 1638.25 284.40625 1651.375 295.34375 c 4
 1664.5 306.203125 1674.65625 319.796875 1682 336.125 c 4
 1689.34375 352.453125 1693.09375 370.8125 1693.09375 391.28125 c 5
 1693.09375 410.8125 1693.09375 430.34375 1693.09375 449.875 c 5
 1651.79199219 449.875 1610.48925781 449.875 1569.1875 449.875 c 5
 1569.1875 478.989257812 1569.1875 508.104492188 1569.1875 537.21875 c 5
 1643.45800781 537.21875 1717.72949219 537.21875 1792 537.21875 c 5
 1792 419.145507812 1792 301.073242188 1792 183 c 5
 1761.89550781 183 1731.79199219 183 1701.6875 183 c 5x6ff0
 1701.6875 215.96875 1701.6875 248.9375 1701.6875 281.90625 c 5
EndSplineSet
EndChar

StartChar: uniE120
Encoding: 57632 57632 33
Width: 1792
VWidth: 1687
Flags: W
HStem: -247.516 96.0156<738.656 979.032> 326.547 96.0156<738.656 979.032> 618.5 96.0156<177.043 421.987 1508.81 1781.47> 885.375 95.0781<868.812 1105.12> 1193.58 95<177.765 421.265 868.812 1105.12>
VStem: 10.5312 116.25<767.663 1139.42> 472.25 116.25<767.663 1139.42> 630.219 108.438<-151.5 326.547> 760.375 108.438<618.5 885.375 980.453 1193.58> 1034.36 116.172<-96.0967 271.144> 1128.97 114.219<1002.69 1171.26> 1400.38 108.438<714.516 1288.58>
LayerCount: 2
Fore
SplineSet
630.21875 422.5625 m 5xffd0
 709.254882812 422.5625 788.291992188 422.5625 867.328125 422.5625 c 5
 910.21875 422.5625 949.046875 415.53125 983.96875 401.46875 c 4
 1018.8125 387.328125 1048.578125 366.390625 1073.265625 338.578125 c 4
 1097.875 310.6875 1116.9375 275.84375 1130.375 233.890625 c 4
 1143.8125 192.015625 1150.53125 143.1875 1150.53125 87.5625 c 260
 1150.53125 31.859375 1143.8125 -16.96875 1130.375 -58.84375 c 4
 1116.9375 -100.796875 1097.875 -135.640625 1073.265625 -163.53125 c 4
 1048.578125 -191.34375 1018.8125 -212.28125 983.96875 -226.421875 c 4
 949.046875 -240.484375 910.21875 -247.515625 867.328125 -247.515625 c 5
 788.291992188 -247.515625 709.254882812 -247.515625 630.21875 -247.515625 c 5
 630.21875 -24.15625 630.21875 199.203125 630.21875 422.5625 c 5xffd0
867.328125 -151.5 m 5
 917.25 -151.5 957.5625 -135.796875 988.265625 -104.46875 c 4
 1018.96875 -73.140625 1034.359375 -27.046875 1034.359375 33.734375 c 5
 1034.359375 69.59375 1034.359375 105.453125 1034.359375 141.3125 c 5
 1034.359375 202.09375 1018.96875 248.1875 988.265625 279.515625 c 4
 957.5625 310.921875 917.25 326.546875 867.328125 326.546875 c 5
 824.4375 326.546875 781.546875 326.546875 738.65625 326.546875 c 5
 738.65625 167.198242188 738.65625 7.8486328125 738.65625 -151.5 c 5
 781.546875 -151.5 824.4375 -151.5 867.328125 -151.5 c 5
299.59375 607.015625 m 260
 256 607.015625 216.46875 614.515625 181 629.515625 c 4
 145.375 644.59375 115.0625 666.625 89.75 695.765625 c 4
 64.4375 724.90625 44.90625 761.078125 31.15625 804.28125 c 4
 17.40625 847.484375 10.53125 897.25 10.53125 953.578125 c 260
 10.53125 1009.828125 17.40625 1059.59375 31.15625 1102.796875 c 4
 44.90625 1146 64.4375 1182.171875 89.75 1211.3125 c 4
 115.0625 1240.453125 145.375 1262.484375 181 1277.5625 c 4
 216.46875 1292.5625 256 1300.0625 299.59375 1300.0625 c 260
 343.03125 1300.0625 382.5625 1292.5625 418.03125 1277.5625 c 4
 453.65625 1262.484375 483.96875 1240.453125 509.28125 1211.3125 c 4
 534.59375 1182.171875 554.125 1146 567.875 1102.796875 c 4
 581.625 1059.59375 588.5 1009.828125 588.5 953.578125 c 260
 588.5 897.25 581.625 847.484375 567.875 804.28125 c 4
 554.125 761.078125 534.59375 724.90625 509.28125 695.765625 c 4
 483.96875 666.625 453.65625 644.59375 418.03125 629.515625 c 4
 382.5625 614.515625 343.03125 607.015625 299.59375 607.015625 c 260
299.59375 703.96875 m 4
 325.0625 703.96875 348.65625 708.421875 370.0625 717.40625 c 4
 391.46875 726.3125 409.75 739.28125 424.75 756.234375 c 4
 439.90625 773.1875 451.46875 793.890625 459.90625 818.1875 c 4
 468.1875 842.484375 472.25 869.984375 472.25 900.765625 c 5
 472.25 935.948242188 472.25 971.129882812 472.25 1006.3125 c 5
 472.25 1037.09375 468.1875 1064.59375 459.90625 1088.890625 c 4
 451.46875 1113.1875 439.90625 1133.890625 424.75 1150.84375 c 4
 409.75 1167.796875 391.46875 1180.765625 370.0625 1189.671875 c 4
 348.65625 1198.65625 325.0625 1203.109375 299.59375 1203.109375 c 4
 273.34375 1203.109375 249.59375 1198.65625 228.5 1189.671875 c 4
 207.40625 1180.765625 189.28125 1167.796875 174.28125 1150.84375 c 4
 159.125 1133.890625 147.5625 1113.1875 139.125 1088.890625 c 4
 130.84375 1064.59375 126.78125 1037.09375 126.78125 1006.3125 c 5
 126.78125 971.129882812 126.78125 935.948242188 126.78125 900.765625 c 5
 126.78125 869.984375 130.84375 842.484375 139.125 818.1875 c 4
 147.5625 793.890625 159.125 773.1875 174.28125 756.234375 c 4
 189.28125 739.28125 207.40625 726.3125 228.5 717.40625 c 4
 249.59375 708.421875 273.34375 703.96875 299.59375 703.96875 c 4
760.375 618.5 m 5
 760.375 841.859375 760.375 1065.21875 760.375 1288.578125 c 5
 856.364257812 1288.578125 952.354492188 1288.578125 1048.34375 1288.578125 c 5
 1110.375 1288.578125 1158.34375 1270.375 1192.25 1233.890625 c 4
 1226.3125 1197.40625 1243.1875 1148.421875 1243.1875 1087.015625 c 260xffb0
 1243.1875 1025.53125 1226.3125 976.546875 1192.25 940.0625 c 4
 1158.34375 903.65625 1110.375 885.375 1048.34375 885.375 c 5
 988.5 885.375 928.65625 885.375 868.8125 885.375 c 5
 868.8125 796.416992188 868.8125 707.458007812 868.8125 618.5 c 5
 832.666992188 618.5 796.520507812 618.5 760.375 618.5 c 5
868.8125 980.453125 m 5
 926.416992188 980.453125 984.020507812 980.453125 1041.625 980.453125 c 5
 1069.125 980.453125 1090.53125 987.640625 1105.84375 1002.015625 c 4
 1121.3125 1016.390625 1128.96875 1037.09375 1128.96875 1063.96875 c 5
 1128.96875 1079.30761719 1128.96875 1094.64550781 1128.96875 1109.984375 c 5
 1128.96875 1136.9375 1121.3125 1157.5625 1105.84375 1171.9375 c 4
 1090.53125 1186.3125 1069.125 1193.578125 1041.625 1193.578125 c 5
 984.020507812 1193.578125 926.416992188 1193.578125 868.8125 1193.578125 c 5
 868.8125 1122.53613281 868.8125 1051.49511719 868.8125 980.453125 c 5
1400.375 618.5 m 5
 1400.375 841.859375 1400.375 1065.21875 1400.375 1288.578125 c 5
 1436.52050781 1288.578125 1472.66699219 1288.578125 1508.8125 1288.578125 c 5
 1508.8125 1097.22363281 1508.8125 905.870117188 1508.8125 714.515625 c 5
 1599.69824219 714.515625 1690.58300781 714.515625 1781.46875 714.515625 c 5
 1781.46875 682.510742188 1781.46875 650.504882812 1781.46875 618.5 c 5
 1654.4375 618.5 1527.40625 618.5 1400.375 618.5 c 5
EndSplineSet
EndChar

StartChar: uniE121
Encoding: 57633 57633 34
Width: 1792
VWidth: 1687
Flags: W
HStem: 171.516 90.2344<160.025 367.673> 453.703 90.2344<772.328 981.503> 708.156 144.922<1321.78 1349.11 1669.28 1697.09> 762.844 90.2344<151.573 376.123 772.328 981.503>
VStem: 3.65625 109.453<309.775 726.303> 414.516 109.453<309.775 726.303> 670.531 101.797<183 453.703 543.938 762.844> 1000.77 108.516<563.279 743.506> 1230.53 97.9688<183 706.401> 1690.38 97.9688<183 708.247>
DStem2: 1350.53 853.078 1333.27 708.156 0.416929 -0.908939<124.527 395.989>
LayerCount: 2
Fore
SplineSet
263.8125 171.515625 m 256xcfc0
 223.5 171.515625 187.328125 178.078125 155.375 191.125 c 0
 123.34375 204.25 96 224.953125 73.265625 253.078125 c 0
 50.53125 281.203125 33.265625 317.21875 21.390625 361.046875 c 0
 9.59375 404.953125 3.65625 457.21875 3.65625 518.078125 c 256
 3.65625 578.859375 9.59375 631.125 21.390625 675.03125 c 0
 33.265625 718.859375 50.53125 754.875 73.265625 783 c 0
 96 811.125 123.34375 831.828125 155.375 844.953125 c 0
 187.328125 858.078125 223.5 864.5625 263.8125 864.5625 c 256
 304.125 864.5625 340.296875 858.078125 372.328125 844.953125 c 0
 404.28125 831.828125 431.703125 811.125 454.359375 783 c 0
 477.09375 754.875 494.359375 718.859375 506.234375 675.03125 c 0
 518.03125 631.125 523.96875 578.859375 523.96875 518.078125 c 256
 523.96875 457.21875 518.03125 404.953125 506.234375 361.046875 c 0
 494.359375 317.21875 477.09375 281.203125 454.359375 253.078125 c 0
 431.703125 224.953125 404.28125 204.25 372.328125 191.125 c 0
 340.296875 178.078125 304.125 171.515625 263.8125 171.515625 c 256xcfc0
263.8125 261.75 m 256
 311.859375 261.75 348.96875 277.21875 375.21875 308.3125 c 0
 401.390625 339.328125 414.515625 382.375 414.515625 437.375 c 1
 414.515625 491.151367188 414.515625 544.926757812 414.515625 598.703125 c 1
 414.515625 653.703125 401.390625 696.75 375.21875 727.765625 c 0
 348.96875 758.859375 311.859375 774.328125 263.8125 774.328125 c 256
 215.84375 774.328125 178.734375 758.859375 152.484375 727.765625 c 0
 126.234375 696.75 113.109375 653.703125 113.109375 598.703125 c 1
 113.109375 544.926757812 113.109375 491.151367188 113.109375 437.375 c 1
 113.109375 382.375 126.234375 339.328125 152.484375 308.3125 c 0
 178.734375 277.21875 215.84375 261.75 263.8125 261.75 c 256
670.53125 183 m 1
 670.53125 406.359375 670.53125 629.71875 670.53125 853.078125 c 1
 758.864257812 853.078125 847.198242188 853.078125 935.53125 853.078125 c 1xdfc0
 993.109375 853.078125 1036.46875 835.96875 1065.609375 801.75 c 0
 1094.671875 767.453125 1109.28125 718.078125 1109.28125 653.390625 c 256
 1109.28125 588.78125 1094.671875 539.328125 1065.609375 505.109375 c 0
 1036.46875 470.8125 993.109375 453.703125 935.53125 453.703125 c 1
 881.129882812 453.703125 826.729492188 453.703125 772.328125 453.703125 c 1
 772.328125 363.46875 772.328125 273.234375 772.328125 183 c 1
 738.395507812 183 704.463867188 183 670.53125 183 c 1
772.328125 543.9375 m 1
 823.838867188 543.9375 875.348632812 543.9375 926.859375 543.9375 c 1
 951.15625 543.9375 969.59375 550.1875 982.09375 562.6875 c 0
 994.515625 575.1875 1000.765625 595.1875 1000.765625 622.6875 c 1
 1000.765625 643.15625 1000.765625 663.625 1000.765625 684.09375 c 1
 1000.765625 711.671875 994.515625 731.671875 982.09375 744.09375 c 0
 969.59375 756.59375 951.15625 762.84375 926.859375 762.84375 c 1
 875.348632812 762.84375 823.838867188 762.84375 772.328125 762.84375 c 1
 772.328125 689.875 772.328125 616.90625 772.328125 543.9375 c 1
1690.375 595.8125 m 1
 1692.61425781 633.885742188 1694.85449219 671.958007812 1697.09375 710.03125 c 1
 1693.265625 710.03125 1689.4375 710.03125 1685.609375 710.03125 c 1
 1670.24511719 672.583007812 1654.87988281 635.135742188 1639.515625 597.6875 c 1
 1596 506.828125 1552.484375 415.96875 1508.96875 325.109375 c 1
 1465.765625 415.96875 1422.5625 506.828125 1379.359375 597.6875 c 1
 1363.99511719 634.510742188 1348.62988281 671.333007812 1333.265625 708.15625 c 1
 1329.4375 708.15625 1325.609375 708.15625 1321.78125 708.15625 c 1xefc0
 1324.02050781 670.708007812 1326.26074219 633.260742188 1328.5 595.8125 c 1
 1328.5 458.208007812 1328.5 320.604492188 1328.5 183 c 1
 1295.84375 183 1263.1875 183 1230.53125 183 c 1
 1230.53125 406.359375 1230.53125 629.71875 1230.53125 853.078125 c 1
 1270.53125 853.078125 1310.53125 853.078125 1350.53125 853.078125 c 1xdfc0
 1386.703125 775.004882812 1422.875 696.932617188 1459.046875 618.859375 c 1
 1474.72363281 574.692382812 1490.40136719 530.526367188 1506.078125 486.359375 c 1
 1508.94238281 486.359375 1511.80761719 486.359375 1514.671875 486.359375 c 1
 1530.375 530.526367188 1546.078125 574.692382812 1561.78125 618.859375 c 1
 1597.61425781 696.932617188 1633.44824219 775.004882812 1669.28125 853.078125 c 1xefc0
 1708.96875 853.078125 1748.65625 853.078125 1788.34375 853.078125 c 1
 1788.34375 629.71875 1788.34375 406.359375 1788.34375 183 c 1
 1755.6875 183 1723.03125 183 1690.375 183 c 1
 1690.375 320.604492188 1690.375 458.208007812 1690.375 595.8125 c 1
EndSplineSet
EndChar

StartChar: uniE122
Encoding: 57634 57634 35
Width: 1792
VWidth: 1687
Flags: W
HStem: 183 96.0156<862.719 1183.34 1380.88 1625.94> 474.875 95.9375<862.719 1153.66 1508.24 1626.52> 757.062 96.0156<862.719 1183.34 1418.58 1654.18>
VStem: 34.2812 103.594<183 695.656> 450.844 103.75<340.422 853.078> 754.281 108.438<279.016 474.875 570.812 757.062> 1290.22 107.5<611.387 747.68> 1650.22 107.5<294.565 441.758>
DStem2: 374.125 482.531 214.75 553.547 0.508638 -0.860981<-299.653 157.446> 1504.28 584.25 1486 481.594 0.978916 -0.204262<-84.3745 149.704>
LayerCount: 2
Fore
SplineSet
214.75 553.546875 m 1
 190.114257812 600.916992188 165.479492188 648.286132812 140.84375 695.65625 c 1
 139.854492188 695.65625 138.864257812 695.65625 137.875 695.65625 c 1
 137.875 524.770507812 137.875 353.885742188 137.875 183 c 1
 103.34375 183 68.8125 183 34.28125 183 c 1
 34.28125 406.359375 34.28125 629.71875 34.28125 853.078125 c 1
 74.59375 853.078125 114.90625 853.078125 155.21875 853.078125 c 1
 228.1875 729.5625 301.15625 606.046875 374.125 482.53125 c 1
 398.760742188 435.161132812 423.395507812 387.791992188 448.03125 340.421875 c 1
 448.96875 340.421875 449.90625 340.421875 450.84375 340.421875 c 1
 450.84375 511.307617188 450.84375 682.192382812 450.84375 853.078125 c 1
 485.426757812 853.078125 520.010742188 853.078125 554.59375 853.078125 c 1
 554.59375 629.71875 554.59375 406.359375 554.59375 183 c 1
 514.28125 183 473.96875 183 433.65625 183 c 1
 360.6875 306.515625 287.71875 430.03125 214.75 553.546875 c 1
754.28125 183 m 1
 754.28125 406.359375 754.28125 629.71875 754.28125 853.078125 c 1
 897.301757812 853.078125 1040.32324219 853.078125 1183.34375 853.078125 c 1
 1183.34375 821.073242188 1183.34375 789.067382812 1183.34375 757.0625 c 1
 1076.46875 757.0625 969.59375 757.0625 862.71875 757.0625 c 1
 862.71875 694.979492188 862.71875 632.895507812 862.71875 570.8125 c 1
 959.698242188 570.8125 1056.67675781 570.8125 1153.65625 570.8125 c 1
 1153.65625 538.833007812 1153.65625 506.854492188 1153.65625 474.875 c 1
 1056.67675781 474.875 959.698242188 474.875 862.71875 474.875 c 1
 862.71875 409.588867188 862.71875 344.301757812 862.71875 279.015625 c 1
 969.59375 279.015625 1076.46875 279.015625 1183.34375 279.015625 c 1
 1183.34375 247.010742188 1183.34375 215.004882812 1183.34375 183 c 1
 1040.32324219 183 897.301757812 183 754.28125 183 c 1
1514.90625 171.515625 m 0
 1458.5 171.515625 1410.6875 181.75 1371.3125 202.21875 c 0
 1331.9375 222.6875 1298.1875 250.1875 1270.0625 284.796875 c 1
 1295.01074219 308.15625 1319.95800781 331.515625 1344.90625 354.875 c 1
 1368.65625 326.046875 1394.75 304.25 1423.1875 289.5625 c 0
 1451.625 274.875 1484.125 267.453125 1520.6875 267.453125 c 0
 1563.5 267.453125 1595.84375 277.0625 1617.5625 296.28125 c 0
 1639.28125 315.5 1650.21875 341.4375 1650.21875 374.015625 c 0
 1650.21875 400.265625 1642.5625 421.046875 1627.25 436.4375 c 0
 1611.78125 451.828125 1584.59375 463.3125 1545.53125 470.96875 c 1
 1525.6875 474.510742188 1505.84375 478.051757812 1486 481.59375 c 1
 1420.84375 493.703125 1371.78125 515.1875 1339.125 545.890625 c 0
 1306.46875 576.59375 1290.21875 618.859375 1290.21875 672.609375 c 0
 1290.21875 702.0625 1295.84375 728.78125 1307.09375 752.765625 c 0
 1318.1875 776.75 1333.96875 796.90625 1354.125 813.234375 c 0
 1374.28125 829.5625 1398.65625 842.21875 1427.5625 851.125 c 0
 1456.3125 860.109375 1488.65625 864.5625 1524.4375 864.5625 c 0
 1575.0625 864.5625 1618.8125 855.8125 1656 838.234375 c 0
 1693.03125 820.578125 1724.75 795.1875 1751 761.90625 c 1
 1725.73925781 739.510742188 1700.47949219 717.114257812 1675.21875 694.71875 c 1
 1657.875 717.0625 1636.78125 735.03125 1611.78125 748.46875 c 0
 1586.9375 761.90625 1555.84375 768.625 1518.65625 768.625 c 0
 1480.375 768.625 1450.53125 760.890625 1429.4375 745.578125 c 0
 1408.34375 730.1875 1397.71875 707.765625 1397.71875 678.390625 c 0
 1397.71875 650.1875 1406.3125 629.25 1423.65625 615.5 c 0
 1441 601.75 1467.875 591.28125 1504.28125 584.25 c 1
 1524.125 580.109375 1543.96875 575.96875 1563.8125 571.828125 c 1
 1631 559.015625 1680.21875 537.21875 1711.15625 506.515625 c 0
 1742.25 475.8125 1757.71875 433.546875 1757.71875 379.796875 c 0
 1757.71875 348.46875 1752.25 319.953125 1741.46875 294.328125 c 0
 1730.53125 268.78125 1714.75 246.828125 1693.96875 228.625 c 0
 1673.03125 210.34375 1647.71875 196.28125 1617.5625 186.359375 c 0
 1587.5625 176.4375 1553.1875 171.515625 1514.90625 171.515625 c 0
EndSplineSet
EndChar

